<?xml version="1.0" encoding="utf-8"?>
<!-- Generator: Adobe Illustrator 28.2.0, SVG Export Plug-In . SVG Version: 6.00 Build 0)  -->
<svg version="1.1" id="Layer_1" xmlns="http://www.w3.org/2000/svg" xmlns:xlink="http://www.w3.org/1999/xlink" x="0px" y="0px"
	 viewBox="0 0 1024 768" style="enable-background:new 0 0 1024 768;" xml:space="preserve">
<g>
	<path d="M22.1,27.02c-1.99,0.62-4.22,0.69-6.29,0.54c-1.93-0.14-3.88-0.57-5.57-1.53c-1.8-1.03-3.28-2.69-3.7-4.76
		c-0.48-2.39-0.41-4.94,0.04-7.33c0.51-2.71,1.57-5.3,3.1-7.6c-0.11,0-0.22,0-0.34,0c0.33,0.59,0.67,1.17,1,1.76
		c0.29,0.5,0.54,1.05,0.88,1.52c0.3,0.41,0.69,0.56,1.18,0.6c0.68,0.06,1.36,0.09,2.04,0.13c1.35,0.09,2.71,0.17,4.06,0.26
		c0.69,0.04,1.38,0.09,2.07,0.13c0.53,0.03,1.15,0.16,1.67,0c0.55-0.16,0.77-0.69,1.02-1.16c0.35-0.68,0.71-1.35,1.06-2.03
		c-0.1,0.01-0.2,0.03-0.31,0.04c2.01,2.58,3.23,5.75,3.52,9c0.24,2.78-0.06,5.95-1.94,8.16C24.67,25.84,23.44,26.58,22.1,27.02
		c-0.24,0.08-0.14,0.45,0.1,0.38c2.58-0.84,4.47-2.74,5.26-5.34c0.94-3.1,0.6-6.67-0.44-9.7c-0.63-1.82-1.55-3.51-2.73-5.03
		c-0.08-0.1-0.25-0.06-0.31,0.04c-0.34,0.65-0.68,1.31-1.02,1.96c-0.15,0.29-0.29,0.69-0.55,0.9c-0.28,0.23-0.66,0.2-0.99,0.18
		c-1.56-0.09-3.12-0.2-4.67-0.3c-0.77-0.05-1.53-0.1-2.3-0.15c-0.38-0.02-0.77-0.05-1.15-0.07c-0.38-0.02-0.79-0.01-1.16-0.1
		c-0.69-0.16-1-1.07-1.31-1.63c-0.38-0.67-0.76-1.35-1.15-2.02c-0.08-0.13-0.26-0.12-0.34,0c-2.81,4.21-4.01,9.43-3.31,14.44
		c0.17,1.23,0.52,2.32,1.26,3.34c0.56,0.77,1.25,1.44,2.03,1.99c1.63,1.14,3.59,1.7,5.55,1.95c1.12,0.14,2.26,0.17,3.39,0.12
		c1.33-0.06,2.66-0.19,3.94-0.59C22.44,27.32,22.34,26.94,22.1,27.02z"/>
	<path d="M24.09,9.6c-0.11,0.39-0.18,0.79-0.21,1.2c-0.01,0.09,0.07,0.16,0.14,0.19c0.34,0.14,0.68,0.17,1.04,0.12
		c0.1-0.01,0.17-0.15,0.14-0.24c-0.16-0.45-0.38-0.86-0.65-1.25c-0.08-0.12-0.33-0.13-0.36,0.05c-0.07,0.45-0.05,0.88,0.09,1.32
		c0.04,0.12,0.17,0.18,0.29,0.12c0.17-0.1,0.33-0.24,0.29-0.45c-0.03-0.17-0.21-0.31-0.38-0.25c-0.36,0.12-0.08,0.7,0.26,0.44
		c0.2-0.15-0.08-0.43-0.28-0.28c-0.01,0.01-0.02,0.01-0.03,0.02c0.06-0.02,0.13-0.03,0.19-0.05c0.02,0.03,0.05,0.05,0.07,0.08
		c-0.02,0.05-0.04,0.09-0.06,0.14c0.01-0.01,0.02-0.02,0.03-0.03c-0.05,0.02-0.09,0.04-0.14,0.06c-0.05-0.06-0.1-0.07-0.15-0.01
		c0.1,0.04,0.19,0.08,0.29,0.12c-0.11-0.36-0.14-0.73-0.09-1.11c-0.12,0.02-0.24,0.03-0.36,0.05c0.25,0.36,0.46,0.75,0.61,1.16
		c0.05-0.08,0.09-0.16,0.14-0.24c-0.29,0.04-0.57-0.01-0.83-0.12c0.05,0.06,0.1,0.13,0.14,0.19c0.03-0.37,0.1-0.74,0.2-1.1
		C24.54,9.47,24.16,9.36,24.09,9.6L24.09,9.6z"/>
	<path d="M9.07,8.63c-0.19,0.3-0.39,0.6-0.58,0.91C8.44,9.62,8.47,9.76,8.56,9.8c0.39,0.17,0.79,0.22,1.21,0.14
		C9.87,9.92,9.93,9.8,9.9,9.7C9.81,9.35,9.68,9.02,9.5,8.71C9.44,8.6,9.29,8.59,9.2,8.67C9.05,8.81,8.9,8.98,8.95,9.2
		c0.04,0.18,0.2,0.33,0.39,0.31c0.25-0.03,0.25-0.36,0-0.39C9.07,9.09,8.83,9.23,8.7,9.45C8.65,9.53,8.67,9.63,8.73,9.69
		c0.11,0.12,0.24,0.17,0.4,0.16c0.25-0.02,0.25-0.41,0-0.39C9.07,9.48,9.03,9.46,9,9.41c0.01,0.08,0.02,0.16,0.03,0.24
		C9.1,9.53,9.2,9.49,9.34,9.51c0-0.13,0-0.26,0-0.39c-0.02,0,0.12-0.16,0.13-0.18c-0.1-0.01-0.2-0.03-0.31-0.04
		c0.16,0.29,0.28,0.58,0.36,0.9c0.05-0.08,0.09-0.16,0.14-0.24c-0.31,0.06-0.62,0.02-0.91-0.1c0.02,0.09,0.05,0.18,0.07,0.27
		c0.19-0.3,0.39-0.6,0.58-0.91C9.54,8.61,9.21,8.42,9.07,8.63L9.07,8.63z"/>
	<path d="M22.42,15.62c-0.13,0.41,0.02,0.8,0.37,1.03c0.07,0.05,0.18,0.03,0.24-0.03c0.47-0.52,0.47-1.27,0.01-1.79
		c-0.09-0.1-0.24-0.05-0.31,0.04c-0.51,0.67-0.56,1.58-0.14,2.31c0.07,0.11,0.21,0.12,0.31,0.04c0.58-0.52,0.58-1.46,0-1.98
		c-0.09-0.08-0.24-0.07-0.31,0.04c-0.28,0.5-0.2,1.08,0.18,1.49c0.07,0.07,0.21,0.08,0.28,0c0.23-0.26,0.28-0.59,0.08-0.89
		c-0.07-0.11-0.21-0.12-0.31-0.04c-0.31,0.27-0.37,0.67-0.19,1.03c0.08,0.17,0.3,0.09,0.36-0.05c0.11-0.26,0.12-0.49,0.08-0.76
		c-0.03-0.22-0.39-0.16-0.38,0.05c0,0.11,0,0.22,0,0.32c0,0.25,0.39,0.25,0.39,0c0-0.11,0-0.22,0-0.32
		c-0.13,0.02-0.25,0.03-0.38,0.05c0.03,0.21-0.01,0.37-0.08,0.56c0.12-0.02,0.24-0.03,0.36-0.05c-0.11-0.22-0.04-0.41,0.13-0.56
		c-0.1-0.01-0.2-0.03-0.31-0.04c0.11,0.14,0.1,0.28-0.02,0.42c0.09,0,0.18,0,0.28,0c-0.27-0.29-0.31-0.68-0.12-1.02
		c-0.1,0.01-0.2,0.03-0.31,0.04c0.43,0.38,0.42,1.04,0,1.43c0.1,0.01,0.2,0.03,0.31,0.04c-0.36-0.62-0.29-1.35,0.14-1.92
		c-0.1,0.01-0.2,0.03-0.31,0.04c0.31,0.36,0.3,0.89-0.01,1.24c0.08-0.01,0.16-0.02,0.24-0.03c-0.21-0.14-0.27-0.36-0.19-0.59
		C22.87,15.48,22.49,15.38,22.42,15.62L22.42,15.62z"/>
	<path d="M10.79,15.62c-0.13,0.41,0.02,0.8,0.37,1.03c0.07,0.05,0.18,0.03,0.24-0.03c0.47-0.52,0.47-1.27,0.01-1.79
		c-0.09-0.1-0.24-0.05-0.31,0.04c-0.51,0.67-0.56,1.58-0.14,2.31c0.07,0.11,0.21,0.12,0.31,0.04c0.58-0.52,0.58-1.46,0-1.98
		c-0.09-0.08-0.24-0.07-0.31,0.04c-0.28,0.5-0.2,1.08,0.18,1.49c0.07,0.07,0.21,0.08,0.28,0c0.23-0.26,0.28-0.59,0.08-0.89
		c-0.07-0.11-0.21-0.12-0.31-0.04c-0.31,0.27-0.37,0.67-0.19,1.03c0.08,0.17,0.3,0.09,0.36-0.05c0.11-0.26,0.12-0.49,0.08-0.76
		c-0.03-0.22-0.39-0.16-0.38,0.05c0,0.11,0,0.22,0,0.32c0,0.25,0.39,0.25,0.39,0c0-0.11,0-0.22,0-0.32
		c-0.13,0.02-0.25,0.03-0.38,0.05c0.03,0.21-0.01,0.37-0.08,0.56c0.12-0.02,0.24-0.03,0.36-0.05c-0.11-0.22-0.04-0.41,0.13-0.56
		c-0.1-0.01-0.2-0.03-0.31-0.04c0.11,0.14,0.1,0.28-0.02,0.42c0.09,0,0.18,0,0.28,0c-0.27-0.29-0.31-0.68-0.12-1.02
		c-0.1,0.01-0.2,0.03-0.31,0.04c0.43,0.38,0.42,1.04,0,1.43c0.1,0.01,0.2,0.03,0.31,0.04c-0.36-0.62-0.29-1.35,0.14-1.92
		c-0.1,0.01-0.2,0.03-0.31,0.04c0.31,0.36,0.3,0.89-0.01,1.24c0.08-0.01,0.16-0.02,0.24-0.03c-0.21-0.14-0.27-0.36-0.19-0.59
		C11.24,15.48,10.86,15.38,10.79,15.62L10.79,15.62z"/>
	<path d="M16.84,17.89c-0.41-0.33-0.86,0.25-0.51,0.62c0.39,0.41,1.12,0.21,1.44-0.19c0.35-0.45-0.31-0.86-0.73-0.81
		c-0.49,0.05-0.73,0.55-0.54,0.99c0.19,0.44,0.73,0.53,1.03,0.14c0.3-0.39,0.1-1.04-0.46-0.96c-0.46,0.07-0.5,0.81-0.01,0.82
		c0.44,0.01,0.47-0.66,0.1-0.8c-0.61-0.22-0.95,0.81-0.36,1.05c0.5,0.2,0.76-0.62,0.26-0.73c-0.09-0.02-0.17,0.01-0.22,0.09
		c-0.12,0.17-0.12,0.37-0.01,0.55c0.05,0.08,0.13,0.1,0.22,0.09c0.65-0.1,0.25-1.25-0.4-0.79c-0.3,0.21-0.31,0.6-0.12,0.88
		c0.21,0.31,0.62,0.45,0.99,0.4c0.7-0.1,1.11-1.09,0.44-1.53c-0.57-0.37-1.48,0.04-1.62,0.69c-0.09,0.4,0.22,0.71,0.61,0.69
		c0.44-0.02,0.67-0.44,0.78-0.82c0.03-0.11-0.04-0.2-0.14-0.24c-0.36-0.14-0.98,0.19-0.73,0.62c0.09,0.15,0.3,0.35,0.49,0.31
		c0.25-0.05,0.47-0.39,0.57-0.59c0.11-0.22-0.22-0.42-0.34-0.2c-0.09,0.18-0.21,0.32-0.39,0.43c0.07,0,0.13,0,0.2,0
		c-0.09-0.04-0.23-0.08-0.16-0.17c0.05-0.07,0.19-0.04,0.25-0.02c-0.05-0.08-0.09-0.16-0.14-0.24c-0.05,0.16-0.12,0.39-0.28,0.48
		c-0.12,0.07-0.21,0.08-0.3-0.03c-0.1-0.11-0.05-0.2,0.03-0.32c0.16-0.24,0.53-0.4,0.81-0.32c0.42,0.11,0.34,0.66,0,0.82
		c-0.19,0.09-0.42,0.07-0.6-0.03c-0.08-0.05-0.17-0.12-0.21-0.2c-0.01-0.06-0.02-0.12-0.03-0.18c0.22-0.11,0.28-0.11,0.16-0.02
		c0.07,0.03,0.15,0.06,0.22,0.09c0-0.05,0-0.1,0.01-0.15c-0.07,0.03-0.15,0.06-0.22,0.09c-0.18-0.04-0.04-0.31,0.1-0.33
		c0.16-0.03,0.24,0.05,0.22,0.2c-0.03,0.24-0.31,0.3-0.42,0.09c-0.25-0.48,0.47-0.61,0.67-0.19c0-0.07,0-0.13,0-0.2
		c-0.1,0.17-0.24,0.29-0.42,0.34c-0.07,0.02-0.14,0.03-0.21,0.03c-0.19-0.01-0.19-0.07-0.32-0.18
		C16.76,18.32,17.04,18.04,16.84,17.89L16.84,17.89z"/>
	<path d="M14.44,19.73c-0.29,1.15,0.68,2.22,1.86,1.97c1.23-0.26,1.42-1.68,1.46-2.72c0.01-0.26-0.36-0.24-0.39,0
		c-0.13,0.97-0.16,2.82,0.98,3.27c0.48,0.19,1.03-0.01,1.37-0.38c0.42-0.45,0.53-1.08,0.6-1.66c0.03-0.25-0.36-0.25-0.39,0
		c-0.06,0.48-0.14,1.02-0.49,1.39c-0.34,0.36-0.88,0.47-1.24,0.09c-0.62-0.65-0.55-1.9-0.45-2.71c-0.13,0-0.26,0-0.39,0
		c-0.03,0.75-0.08,1.76-0.81,2.2c-0.93,0.57-2.01-0.33-1.75-1.35C14.88,19.59,14.5,19.48,14.44,19.73L14.44,19.73z"/>
	<path d="M14,10.44c-0.18,0.81-0.2,1.65-0.03,2.47c0.1,0.48,0.39,1.11,0.98,1.05c0.58-0.06,0.8-0.76,0.91-1.24
		c0.19-0.85,0.19-1.72,0.03-2.58c-0.02-0.12-0.19-0.19-0.29-0.12c-0.38,0.27-0.79,0.48-1.25,0.61c0.06,0.11,0.13,0.22,0.19,0.33
		c0.14-0.13,0.29-0.18,0.48-0.17c-0.05-0.11-0.09-0.22-0.14-0.33c-0.36,0.39-0.6,0.84-0.72,1.36C14.11,12,14.34,12.15,14.48,12
		c0.39-0.42,0.78-0.83,1.16-1.25c-0.09-0.09-0.18-0.18-0.28-0.28c-0.51,0.6-0.84,1.3-0.94,2.08c-0.03,0.2,0.24,0.36,0.36,0.15
		c0.28-0.5,0.56-1,0.84-1.5c-0.12-0.05-0.24-0.1-0.36-0.15c-0.25,0.65-0.51,1.31-0.76,1.96c-0.08,0.2,0.26,0.35,0.36,0.15
		c0.27-0.53,0.54-1.07,0.8-1.6c-0.12-0.03-0.24-0.07-0.36-0.1c-0.05,0.78-0.29,1.51-0.7,2.18c0.1-0.01,0.2-0.03,0.31-0.04
		c-0.72-0.93-0.46-2.23-0.22-3.28c-0.13-0.02-0.25-0.03-0.38-0.05c0,0.41-0.04,0.84,0,1.24c0.02,0.22,0.11,0.45,0.35,0.51
		c0.62,0.15,0.92-1.08,1.03-1.48c-0.13-0.02-0.25-0.03-0.38-0.05c0.11,0.91-0.05,1.79-0.48,2.6c0.09-0.02,0.18-0.05,0.27-0.07
		c-0.11-0.07-0.16-0.16-0.16-0.27c-0.04-0.25-0.42-0.14-0.38,0.1c0.04,0.23,0.15,0.38,0.34,0.5c0.09,0.06,0.22,0.02,0.27-0.07
		c0.46-0.86,0.65-1.82,0.53-2.8c-0.02-0.21-0.32-0.28-0.38-0.05c-0.05,0.16-0.41,1.3-0.61,1.12c-0.07-0.06-0.01-0.49-0.01-0.58
		c0-0.24,0-0.48,0-0.71c0-0.22-0.33-0.27-0.38-0.05c-0.27,1.22-0.5,2.6,0.32,3.66c0.08,0.1,0.25,0.06,0.31-0.04
		c0.45-0.72,0.7-1.53,0.76-2.37c0.01-0.19-0.28-0.27-0.36-0.1c-0.27,0.53-0.54,1.07-0.8,1.6c0.12,0.05,0.24,0.1,0.36,0.15
		c0.25-0.65,0.51-1.31,0.76-1.96c0.08-0.21-0.25-0.34-0.36-0.15c-0.28,0.5-0.56,1-0.84,1.5c0.12,0.05,0.24,0.1,0.36,0.15
		c0.1-0.71,0.37-1.36,0.84-1.91c0.16-0.19-0.1-0.46-0.28-0.28c-0.39,0.42-0.78,0.83-1.16,1.25c0.11,0.06,0.22,0.13,0.33,0.19
		c0.11-0.45,0.31-0.84,0.62-1.18c0.12-0.13,0.03-0.32-0.14-0.33c-0.3-0.02-0.54,0.08-0.75,0.28c-0.14,0.13,0,0.38,0.19,0.33
		c0.48-0.14,0.93-0.36,1.34-0.65c-0.1-0.04-0.19-0.08-0.29-0.12c0.11,0.6,0.13,1.21,0.06,1.82c-0.05,0.41-0.12,1.25-0.55,1.47
		c-0.57,0.29-0.72-0.87-0.75-1.18c-0.07-0.61-0.03-1.22,0.1-1.81C14.42,10.3,14.05,10.19,14,10.44L14,10.44z"/>
	<path d="M17.18,10.57c-0.26,0.81-0.36,1.74-0.12,2.57c0.14,0.5,0.53,1.07,1.13,0.95c0.62-0.12,0.83-0.87,0.97-1.4
		c0.21-0.76,0.32-1.54-0.02-2.28c-0.07-0.16-0.32-0.11-0.36,0.05c-0.23,0.88-0.53,1.74-0.89,2.58c0.12,0.05,0.24,0.1,0.36,0.15
		c0.17-0.81,0.34-1.62,0.5-2.43c0.04-0.21-0.23-0.34-0.36-0.15c-0.33,0.51-0.65,1.02-0.98,1.53c0.11,0.07,0.22,0.13,0.34,0.2
		c0.21-0.4,0.33-0.82,0.37-1.27c0.01-0.11-0.1-0.18-0.19-0.19c-0.22-0.03-0.37,0.04-0.52,0.19c0.1,0.08,0.2,0.16,0.31,0.24
		c0.13-0.27,0.16-0.52,0.1-0.82c-0.04-0.21-0.32-0.16-0.38,0c-0.38,1.04-0.72,2.52,0.47,3.19c0.1,0.06,0.26,0.01,0.29-0.12
		c0.16-0.93,0.26-1.86,0.3-2.8c0.01-0.18-0.21-0.25-0.33-0.14c-0.69,0.64-0.77,1.6-0.8,2.48c-0.01,0.16,0.22,0.27,0.33,0.14
		c0.53-0.63,0.74-1.39,0.61-2.2c-0.02-0.14-0.24-0.19-0.33-0.09c-0.34,0.43-0.57,0.89-0.67,1.43c0.13,0,0.25,0,0.38,0
		c-0.13-0.56,0-1.12,0.38-1.56c-0.11-0.05-0.22-0.09-0.33-0.14c0.01,0.44-0.01,0.87-0.06,1.3c-0.03,0.22,0.32,0.25,0.38,0.05
		c0.1-0.34,0.26-0.62,0.5-0.88c-0.11-0.03-0.22-0.06-0.33-0.09c0.34,0.86,0.28,1.8-0.19,2.61c-0.11,0.19,0.15,0.4,0.31,0.24
		c0.71-0.78,0.98-1.83,0.74-2.85c-0.05-0.23-0.36-0.15-0.38,0.05c-0.09,0.89-0.37,1.73-0.83,2.5c0.11,0,0.22,0,0.34,0
		c-0.52-0.87-0.02-1.91,0.4-2.71c-0.07,0.03-0.15,0.06-0.22,0.09c0.08,0.03,0.16,0.06,0.25,0.1c0.03-0.13,0.07-0.25,0.1-0.38
		c-0.11-0.02-0.22-0.04-0.33-0.06c-0.24-0.04-0.35,0.33-0.1,0.38c0.11,0.02,0.22,0.04,0.33,0.06c0.25,0.04,0.34-0.28,0.1-0.38
		c-0.08-0.03-0.16-0.06-0.25-0.1c-0.08-0.03-0.18,0.02-0.22,0.09c-0.49,0.94-0.99,2.1-0.4,3.1c0.07,0.13,0.26,0.13,0.34,0
		c0.49-0.83,0.79-1.74,0.88-2.7c-0.13,0.02-0.25,0.03-0.38,0.05c0.21,0.88-0.03,1.8-0.64,2.48c0.1,0.08,0.2,0.16,0.31,0.24
		c0.52-0.88,0.61-1.95,0.23-2.91c-0.05-0.13-0.22-0.2-0.33-0.09c-0.28,0.31-0.48,0.65-0.6,1.05c0.13,0.02,0.25,0.03,0.38,0.05
		c0.06-0.43,0.08-0.86,0.06-1.3c0-0.16-0.22-0.27-0.33-0.14c-0.47,0.54-0.64,1.23-0.48,1.93c0.04,0.18,0.34,0.19,0.38,0
		c0.09-0.47,0.27-0.89,0.57-1.26c-0.11-0.03-0.22-0.06-0.33-0.09c0.1,0.66-0.09,1.31-0.51,1.82c0.11,0.05,0.22,0.09,0.33,0.14
		c0.03-0.78,0.08-1.64,0.68-2.21c-0.11-0.05-0.22-0.09-0.33-0.14c-0.03,0.91-0.13,1.81-0.28,2.7c0.1-0.04,0.19-0.08,0.29-0.12
		c-1.02-0.57-0.61-1.88-0.29-2.75c-0.13,0-0.25,0-0.38,0c0.04,0.19,0.02,0.34-0.06,0.52c-0.09,0.19,0.14,0.4,0.31,0.24
		c0.08-0.02,0.17-0.05,0.25-0.07c-0.06-0.06-0.13-0.13-0.19-0.19c-0.03,0.39-0.13,0.73-0.31,1.07c-0.12,0.22,0.2,0.41,0.34,0.2
		c0.33-0.51,0.65-1.02,0.98-1.53c-0.12-0.05-0.24-0.1-0.36-0.15c-0.17,0.81-0.34,1.62-0.5,2.43c-0.04,0.2,0.26,0.36,0.36,0.15
		c0.37-0.87,0.68-1.76,0.93-2.68c-0.12,0.02-0.24,0.03-0.36,0.05c0.26,0.55,0.19,1.15,0.05,1.72c-0.1,0.41-0.23,1.22-0.7,1.36
		c-0.59,0.17-0.77-0.76-0.81-1.16c-0.06-0.63,0.02-1.26,0.21-1.86C17.63,10.43,17.26,10.33,17.18,10.57L17.18,10.57z"/>
	<path d="M20.28,10.78c-0.26,0.81-0.34,1.67-0.23,2.52c0.08,0.59,0.29,1.31,1.03,1.22c0.66-0.08,0.95-0.76,1.09-1.33
		c0.2-0.83,0.18-1.68-0.04-2.5c-0.06-0.22-0.37-0.16-0.38,0.05c-0.07,1.07-0.32,2.11-0.74,3.1c0.13,0.02,0.25,0.03,0.38,0.05
		c-0.05-0.91,0.1-1.79,0.45-2.64c-0.13-0.03-0.25-0.07-0.38-0.1c-0.2,0.61-0.41,1.23-0.61,1.84c0.13,0.03,0.25,0.07,0.38,0.1
		c0.19-0.74,0.38-1.47,0.57-2.21c0.05-0.19-0.18-0.32-0.33-0.19c-0.5,0.45-0.83,1.03-0.97,1.69c-0.04,0.21,0.24,0.35,0.36,0.15
		c0.28-0.5,0.48-1.02,0.6-1.58c0.03-0.14-0.09-0.29-0.24-0.24c-0.39,0.12-0.66,0.41-0.73,0.81c-0.04,0.21,0.24,0.35,0.36,0.15
		c0.18-0.3,0.18-0.62,0-0.92c-0.09-0.15-0.3-0.11-0.36,0.05c-0.37,1.08-0.29,2.24,0.19,3.28c0.07,0.15,0.33,0.11,0.36-0.05
		c0.12-0.66,0.15-1.32,0.07-1.98c-0.02-0.21-0.32-0.28-0.38-0.05c-0.2,0.7-0.14,1.39,0.14,2.06c0.08,0.19,0.36,0.08,0.36-0.1
		c0-0.31,0.07-0.59,0.21-0.87c-0.12-0.05-0.24-0.1-0.36-0.15c-0.11,0.34-0.22,0.69-0.32,1.03c-0.05,0.16,0.14,0.31,0.29,0.22
		c0.91-0.56,1.33-1.69,0.98-2.71c-0.08-0.24-0.46-0.13-0.38,0.1c0.29,0.85-0.04,1.79-0.8,2.27c0.1,0.07,0.19,0.15,0.29,0.22
		c0.11-0.34,0.22-0.69,0.32-1.03c0.07-0.21-0.26-0.35-0.36-0.15c-0.17,0.34-0.26,0.69-0.26,1.07c0.12-0.03,0.24-0.07,0.36-0.1
		c-0.24-0.57-0.27-1.17-0.1-1.76c-0.13-0.02-0.25-0.03-0.38-0.05c0.07,0.63,0.05,1.25-0.06,1.88c0.12-0.02,0.24-0.03,0.36-0.05
		c-0.44-0.94-0.49-1.99-0.15-2.98c-0.12,0.02-0.24,0.03-0.36,0.05c0.1,0.18,0.1,0.35,0,0.53c0.12,0.05,0.24,0.1,0.36,0.15
		c0.05-0.27,0.2-0.45,0.46-0.54c-0.08-0.08-0.16-0.16-0.24-0.24c-0.11,0.53-0.3,1.02-0.56,1.49c0.12,0.05,0.24,0.1,0.36,0.15
		c0.12-0.6,0.41-1.11,0.87-1.52c-0.11-0.06-0.22-0.13-0.33-0.19c-0.19,0.74-0.38,1.47-0.57,2.21c-0.06,0.24,0.3,0.34,0.38,0.1
		c0.2-0.61,0.41-1.23,0.61-1.84c0.08-0.24-0.28-0.33-0.38-0.1c-0.36,0.87-0.52,1.8-0.46,2.74c0.01,0.23,0.3,0.25,0.38,0.05
		c0.43-1.02,0.67-2.1,0.75-3.2c-0.13,0.02-0.25,0.03-0.38,0.05c0.15,0.57,0.2,1.15,0.14,1.73c-0.06,0.5-0.19,1.4-0.75,1.59
		c-0.73,0.24-0.74-1.01-0.75-1.44c-0.01-0.61,0.09-1.21,0.27-1.79C20.73,10.65,20.36,10.54,20.28,10.78L20.28,10.78z"/>
	<path d="M26.47,19.88c0.73-0.25,1.47-0.24,2.18,0.05c0.23,0.09,0.33-0.28,0.1-0.38c-0.77-0.31-1.61-0.32-2.39-0.05
		C26.13,19.59,26.23,19.96,26.47,19.88L26.47,19.88z"/>
	<path d="M26.42,21.33c0.76,0.02,1.45,0.3,2.01,0.81c0.18,0.17,0.46-0.11,0.28-0.28c-0.63-0.58-1.43-0.9-2.29-0.92
		C26.17,20.94,26.17,21.33,26.42,21.33L26.42,21.33z"/>
	<path d="M26.15,22.62c0.56,0.2,1.01,0.6,1.29,1.12c0.12,0.22,0.45,0.02,0.34-0.2c-0.33-0.62-0.87-1.07-1.52-1.3
		C26.02,22.16,25.91,22.53,26.15,22.62L26.15,22.62z"/>
	<path d="M4.58,19.16c0.85-0.34,1.78-0.36,2.63,0.01c0.23,0.1,0.43-0.24,0.2-0.34c-0.94-0.4-1.98-0.43-2.93-0.05
		C4.25,18.88,4.35,19.26,4.58,19.16L4.58,19.16z"/>
	<path d="M5.56,20.54c0.53-0.31,1.1-0.46,1.72-0.45c0.25,0.01,0.25-0.38,0-0.39c-0.68-0.02-1.33,0.15-1.91,0.5
		C5.15,20.33,5.34,20.67,5.56,20.54L5.56,20.54z"/>
	<path d="M5.74,22.16c0.62-0.5,1.33-0.83,2.11-1.01c0.24-0.06,0.14-0.43-0.1-0.38c-0.84,0.19-1.6,0.57-2.28,1.11
		C5.27,22.04,5.55,22.31,5.74,22.16L5.74,22.16z"/>
</g>
</svg>
