<?xml version="1.0" encoding="utf-8"?>
<!-- Generator: Adobe Illustrator 28.2.0, SVG Export Plug-In . SVG Version: 6.00 Build 0)  -->
<svg version="1.1" id="Layer_1" xmlns="http://www.w3.org/2000/svg" xmlns:xlink="http://www.w3.org/1999/xlink" x="0px" y="0px"
	 viewBox="0 0 22.4 21" style="enable-background:new 0 0 22.4 21;" xml:space="preserve">
<style type="text/css">
	.st0{fill:#F7931E;}
</style>
<g>
	<g>
		<path class="st0" d="M16.4,19.94c-0.64,0.2-1.33,0.35-2.07,0.43c-4.4,0.48-9.81-0.13-12.18-4.36c-0.39-0.69-0.55-1.48-0.66-2.26
			C0.82,9.09,1.93,4.2,4.56,0.29c0.51,0.9,1.02,1.79,1.52,2.69C6.24,3.26,6.41,3.55,6.69,3.7c0.21,0.11,0.46,0.13,0.7,0.15
			c2.77,0.18,5.55,0.36,8.32,0.54c0.34,0.02,0.7,0.04,0.98-0.15c0.2-0.14,0.32-0.36,0.43-0.58c0.38-0.73,0.77-1.47,1.15-2.2
			c2.6,3.32,3.81,7.68,3.29,11.86C21.14,16.77,19.33,19,16.4,19.94z"/>
	</g>
	<path d="M16.22,8.97c-0.18,0.45,0.07,0.94,0.5,1.12c0.06,0.02,0.14-0.01,0.18-0.05c0.28-0.28,0.51-0.65,0.41-1.07
		c-0.08-0.36-0.42-0.63-0.79-0.54c-0.34,0.08-0.6,0.41-0.59,0.76c0.01,0.42,0.33,0.73,0.7,0.87c0.06,0.02,0.14,0,0.18-0.05
		c0.35-0.35,0.34-0.91,0-1.25c-0.09-0.09-0.27-0.06-0.3,0.08c-0.05,0.24-0.05,0.46,0.02,0.69c0.06,0.23,0.41,0.13,0.35-0.1
		c-0.05-0.17-0.05-0.33-0.02-0.5c-0.1,0.03-0.2,0.05-0.3,0.08c0.21,0.2,0.21,0.53,0,0.74c0.06-0.02,0.12-0.03,0.18-0.05
		c-0.21-0.08-0.42-0.28-0.43-0.52C16.29,9,16.44,8.81,16.63,8.78c0.24-0.04,0.36,0.21,0.35,0.42c-0.01,0.23-0.17,0.43-0.33,0.59
		c0.06-0.02,0.12-0.03,0.18-0.05c-0.26-0.11-0.35-0.42-0.25-0.67C16.66,8.85,16.31,8.75,16.22,8.97L16.22,8.97z"/>
	<path d="M6.28,8.05C5.7,8.25,6.01,9.13,6.58,9.06C7.2,8.98,7.54,7.95,6.96,7.59c-0.64-0.4-1.28,0.73-0.98,1.25
		C6.38,9.51,7.29,8.9,7.14,8.25C7.06,7.91,6.69,7.75,6.4,7.96C6.06,8.2,6.21,8.66,6.56,8.8c0.22,0.08,0.31-0.27,0.1-0.35
		C6.43,8.36,6.67,8.15,6.76,8.27C6.8,8.31,6.8,8.38,6.79,8.43C6.78,8.57,6.67,8.74,6.52,8.77C6.28,8.82,6.23,8.51,6.28,8.35
		C6.32,8.19,6.46,7.97,6.61,7.9c0.38-0.15,0.27,0.5,0.14,0.65c-0.08,0.1-0.25,0.21-0.36,0.09C6.35,8.6,6.29,8.43,6.38,8.4
		C6.6,8.32,6.5,7.97,6.28,8.05L6.28,8.05z"/>
	<path d="M10.93,12.17c-0.03,0.1-0.06,0.2-0.09,0.31c-0.02,0.06,0,0.13,0.05,0.18c0.08,0.07,0.16,0.15,0.23,0.22
		c0.04,0.04,0.12,0.07,0.18,0.05c0.31-0.12,0.56-0.32,0.74-0.6c0.05-0.07,0.02-0.16-0.03-0.22c-0.21-0.28-0.68-0.28-0.9-0.01
		c-0.22,0.28-0.11,0.72,0.21,0.88c0.36,0.17,0.69-0.46,0.41-0.72c-0.3-0.28-0.71,0.21-0.37,0.45c0.19,0.14,0.37-0.18,0.18-0.31
		c0.08,0.1,0.06,0.14-0.06,0.14c0,0.02-0.01,0.03-0.02,0.05c-0.04,0.04-0.09,0.09-0.14,0.13c0.06-0.02,0.12-0.03,0.18-0.05
		c-0.12-0.04-0.19-0.23-0.1-0.33c0.1-0.12,0.28-0.06,0.35,0.04c-0.01-0.07-0.02-0.15-0.03-0.22c-0.13,0.2-0.31,0.35-0.52,0.43
		c0.06,0.02,0.12,0.03,0.18,0.05c-0.08-0.07-0.16-0.15-0.23-0.22c0.02,0.06,0.03,0.12,0.05,0.18c0.03-0.1,0.06-0.2,0.09-0.31
		C11.35,12.04,10.99,11.95,10.93,12.17L10.93,12.17z"/>
	<path d="M8.54,14.61c0.45,0.58,1.24,0.64,1.87,0.32c0.82-0.41,1.14-1.39,1.39-2.21c-0.12-0.03-0.23-0.06-0.35-0.1
		c-0.24,0.92-0.13,2.07,0.69,2.69c0.68,0.51,1.76,0.51,2.31-0.19c0.14-0.18-0.11-0.44-0.26-0.26c-0.46,0.58-1.36,0.57-1.9,0.1
		c-0.63-0.55-0.69-1.5-0.49-2.25c0.06-0.23-0.28-0.32-0.35-0.1c-0.2,0.64-0.42,1.37-0.95,1.81c-0.44,0.37-1.25,0.49-1.64-0.02
		C8.71,14.25,8.39,14.43,8.54,14.61L8.54,14.61z"/>
	<path d="M16.63,12.96c0.66-0.15,1.31-0.3,1.97-0.45c0.23-0.05,0.13-0.4-0.1-0.35c-0.66,0.15-1.31,0.3-1.97,0.45
		C16.3,12.66,16.4,13.01,16.63,12.96L16.63,12.96z"/>
	<path d="M17.06,14.26c0.51-0.11,1.02-0.21,1.53-0.32c0.23-0.05,0.13-0.4-0.1-0.35c-0.51,0.11-1.02,0.21-1.53,0.32
		C16.74,13.96,16.83,14.31,17.06,14.26L17.06,14.26z"/>
	<path d="M6.34,11.94c-0.63-0.26-1.29-0.45-1.96-0.57c-0.23-0.04-0.33,0.31-0.1,0.35c0.68,0.12,1.33,0.31,1.96,0.57
		C6.46,12.39,6.55,12.03,6.34,11.94L6.34,11.94z"/>
	<path d="M3.67,14.04c0.75,0.05,1.49,0.01,2.24-0.1c0.23-0.04,0.13-0.39-0.1-0.35c-0.71,0.11-1.42,0.14-2.14,0.09
		C3.44,13.66,3.44,14.02,3.67,14.04L3.67,14.04z"/>
</g>
</svg>
