<?xml version="1.0" encoding="utf-8"?>
<!-- Generator: Adobe Illustrator 28.2.0, SVG Export Plug-In . SVG Version: 6.00 Build 0)  -->
<svg version="1.1" id="Layer_1" xmlns="http://www.w3.org/2000/svg" xmlns:xlink="http://www.w3.org/1999/xlink" x="0px" y="0px"
	 viewBox="0 0 640 480" style="enable-background:new 0 0 640 480;" xml:space="preserve">
<style type="text/css">
	.st0{fill:#FFFF00;}
</style>
<path d="M204.39,385.47c21.15,31.61,47.04,63.04,86.86,69.14c20.41,3.13,41.05,0.47,61.25-2.94c20.11-3.39,38.81-6.84,53.69-21.85
	c14.47-14.6,25.03-33.2,34.8-51.11c10.65-19.55,21.11-39.21,31.85-58.72c20.18-36.66,40.2-75.02,46.24-116.94
	c5.8-40.26-1.03-83.31-28.39-114.73c-1.22-1.4-3.97-1.44-5.17,0c-10.27,12.27-20.55,24.54-30.82,36.81
	c-8.48,10.12-17.83,26.16-31.62,29.15c-6.71,1.45-14.1,0.82-20.91,0.91c-8.25,0.12-16.5,0.23-24.76,0.35
	c-15.53,0.22-31.07,0.44-46.6,0.66c-32.04,0.45-64.07,0.91-96.11,1.36c-13.83,0.2-29.51,1.82-42.29-4.57
	c-9.61-4.81-15.97-13.94-22.02-22.47c-5.22-7.36-10.39-15.04-17.53-20.71c-4.06-3.23-12.61-9.21-18.11-6.48
	c-3.25,1.61-4.64,6.21-5.7,9.35c-2.16,6.41-3.39,13.19-4.57,19.84c-5.65,31.79-9.6,63.46-2.5,95.36
	C135.01,286.36,171.74,336.52,204.39,385.47c2.6,3.9,8.94,0.24,6.32-3.69c-28.73-43.08-59.98-86.32-76.21-136.04
	c-6.45-19.76-10.86-41.15-9.22-62.02c1.06-13.54,2.74-27.07,4.82-40.48c1.1-7.12,2.31-14.25,3.99-21.26
	c0.6-2.49,1.71-11.21,4.47-12.46c-1.84,0.83,3.24,1.98,3.58,2.13c1.86,0.83,3.61,1.94,5.25,3.15c4.22,3.12,7.7,7.2,10.87,11.35
	c5.51,7.2,10.25,15,16.3,21.78c16.69,18.68,39.94,17.25,63.06,16.92c31.07-0.44,62.13-0.88,93.2-1.32
	c16.99-0.24,33.98-0.48,50.97-0.72c8.25-0.12,16.5-0.23,24.76-0.35c6.84-0.1,14.1,0.3,20.75-1.67c13.12-3.89,21.48-17.2,29.79-27.13
	c11.21-13.38,22.41-26.77,33.62-40.15c-1.72,0-3.45,0-5.17,0c23.75,27.27,30.73,64.35,27.44,99.57c-3.6,38.6-20.26,74.5-38.3,108.27
	c-9.45,17.7-19.44,35.11-28.87,52.83c-9.02,16.96-17.78,34.13-28.57,50.05c-11.69,17.25-24.54,31.47-45.48,36.43
	c-19.51,4.62-40.29,7.95-60.36,8.06c-22.32,0.13-43.13-5.91-60.69-19.93c-16.19-12.93-28.54-29.93-39.97-47.01
	C208.1,377.88,201.76,381.54,204.39,385.47z"/>
<path d="M421.48,210.4c-18.41-7.64-30.73,17.32-30.7,32.07c0.03,16.56,13.34,32.15,30.91,29.72c18.12-2.51,26.59-26.17,23.67-42.12
	c-3-16.37-20.22-29.03-36.58-22.32c-4.3,1.76-2.42,8.85,1.95,7.06c11.8-4.84,24.1,3.12,27.11,14.99
	c2.92,11.56-2.24,30.85-14.89,34.68c-12.83,3.88-23.8-7.79-24.76-19.72c-0.86-10.72,6.89-33.3,21.36-27.29
	C423.88,219.26,425.78,212.18,421.48,210.4L421.48,210.4z"/>
<path d="M409.95,233.89c-0.65,5.98-0.2,11.82,1.21,17.66c0.7,2.89,4.11,3.27,6.12,1.61c8.69-7.16,9.15-20.49,1.8-28.72
	c-1.99-2.23-5.21-0.77-6.12,1.61c-2.68,7.06-9.06,31,6.54,27.78c4.51-0.93,8.23-4.45,9.02-9.03c1.13-6.57-3.29-12.37-7.28-17.04
	c-1.86-2.17-5.38-0.85-6.12,1.61c-2.3,7.73-1.29,15.69,2.79,22.63c1.49,2.53,4.76,2.19,6.32,0c4.3-6.04,8.33-15.53,0.96-21.15
	c-6.1-4.64-15,0.84-13.15,8.36c1.12,4.57,8.18,2.64,7.06-1.95c0.51-0.25,1.02-0.5,1.54-0.75c0.58,0.44,0.95,1,1.09,1.68
	c0.43,1.14,0.32,2.28,0.02,3.46c-0.63,2.45-2.39,4.63-3.83,6.65c2.11,0,4.21,0,6.32,0c-3.14-5.33-3.81-11.08-2.05-16.99
	c-2.04,0.54-4.08,1.08-6.12,1.61c1.98,2.31,4.46,5.1,5.09,8.19c0.37,1.84-0.35,6.34-3.51,5.6c-3.92-0.91,1.38-16.12,2.37-18.73
	c-2.04,0.54-4.08,1.08-6.12,1.61c4.89,5.48,3.69,13.84-1.8,18.37c2.04,0.54,4.08,1.08,6.12,1.61c-1.26-5.23-1.53-10.38-0.95-15.72
	C417.78,229.22,410.46,229.25,409.95,233.89L409.95,233.89z"/>
<path d="M215.3,210.4c-18.41-7.64-30.73,17.32-30.7,32.07c0.03,16.56,13.34,32.15,30.91,29.72c18.12-2.51,26.59-26.17,23.67-42.12
	c-3-16.37-20.22-29.03-36.58-22.32c-4.3,1.76-2.42,8.85,1.95,7.06c11.8-4.84,24.1,3.12,27.11,14.99
	c2.92,11.56-2.24,30.85-14.89,34.68c-12.83,3.88-23.8-7.79-24.76-19.72c-0.86-10.72,6.89-33.3,21.36-27.29
	C217.7,219.26,219.59,212.18,215.3,210.4L215.3,210.4z"/>
<path d="M203.77,233.89c-0.65,5.98-0.2,11.82,1.21,17.66c0.7,2.89,4.11,3.27,6.12,1.61c8.69-7.16,9.15-20.49,1.8-28.72
	c-1.99-2.23-5.21-0.77-6.12,1.61c-2.68,7.06-9.06,31,6.54,27.78c4.51-0.93,8.23-4.45,9.02-9.03c1.13-6.57-3.29-12.37-7.28-17.04
	c-1.86-2.17-5.38-0.85-6.12,1.61c-2.3,7.73-1.29,15.69,2.79,22.63c1.49,2.53,4.76,2.19,6.32,0c4.3-6.04,8.33-15.53,0.96-21.15
	c-6.1-4.64-15,0.84-13.15,8.36c1.12,4.57,8.18,2.64,7.06-1.95c0.51-0.25,1.02-0.5,1.54-0.75c0.58,0.44,0.95,1,1.09,1.68
	c0.43,1.14,0.32,2.28,0.02,3.46c-0.63,2.45-2.39,4.63-3.83,6.65c2.11,0,4.21,0,6.32,0c-3.14-5.33-3.81-11.08-2.05-16.99
	c-2.04,0.54-4.08,1.08-6.12,1.61c1.98,2.31,4.46,5.1,5.09,8.19c0.37,1.84-0.35,6.34-3.51,5.6c-3.92-0.91,1.38-16.12,2.37-18.73
	c-2.04,0.54-4.08,1.08-6.12,1.61c4.89,5.48,3.69,13.84-1.8,18.37c2.04,0.54,4.08,1.08,6.12,1.61c-1.26-5.23-1.53-10.38-0.95-15.72
	C211.6,229.22,204.28,229.25,203.77,233.89L203.77,233.89z"/>
<path d="M317.58,290.11c-4.62-6.21-11.38-7.98-18.48-4.96c-1.23,0.52-1.69,1.97-1.81,3.16c-1.83,17.6,21.09,27.92,31.98,13
	c12.04-16.5-13.03-32.4-26.5-20.57c-12.31,10.82-1.65,33.26,14.65,25.92c15.06-6.78,2.98-31.5-10.46-22.41
	c-5.26,3.56-5.29,11.24-0.76,15.53c5.6,5.29,14.54,2.1,17.76-4.26c2.89-5.7-0.77-13.32-7.86-11.71c-6.85,1.56-7.6,10.72-2.81,14.96
	c12.15,10.75,26.21-8.55,19.15-20.05c-9.47-15.41-34.69-0.9-34.21,14.29c0.64,20.51,31.57,16.34,40.4,4.65
	c4.76-6.29,5.15-16.78-1.91-21.69c-6.57-4.56-15.91-1.13-17.98,6.45c-1.25,4.55,5.81,6.49,7.06,1.95c0.49-1.79,2.84-3.24,4.63-3.12
	c3.25,0.22,4.52,4.39,4.34,6.91c-0.27,3.84-2.96,6.73-6.09,8.72c-4.95,3.15-12.1,4.67-17.74,2.44c-10.39-4.11-3.11-15.43,4.06-18.39
	c7.51-3.09,16.33,2.71,10.51,10.66c-2.51,3.42-10.55,4.74-13.38,1.89c-2.62-1.1-2.68-1.95-0.17-2.55c1.16-1.32,2.18-1.3,3.07,0.06
	c1.75,0.99,2.79,3.73,2.26,5.71c-1.07,4.08-6.71,4.78-9.8,2.81c-4.64-2.96-3.41-9.66-0.02-12.83c3.41-3.19,8.26-3.38,12.39-1.44
	c6.39,3.01,6.26,10.94,0.47,14.49c-8.37,5.14-16.62-2.83-15.73-11.41c-0.6,1.05-1.21,2.11-1.81,3.16c3.02-1.29,6.52-0.28,8.47,2.34
	C314.04,297.54,320.39,293.9,317.58,290.11L317.58,290.11z"/>
<path d="M275.1,327.85c-3.01,18.29,17.05,30.1,32.79,22.38c19.98-9.8,20.65-34.05,17.2-53.06c-0.84-4.63-7.9-2.67-7.06,1.95
	c2.42,13.3,3.34,28.81-6.6,39.44c-4.26,4.56-10.55,7.99-16.98,6.86c-7.2-1.26-13.54-8.1-12.3-15.62
	C282.91,325.18,275.86,323.2,275.1,327.85L275.1,327.85z"/>
<path d="M318.85,308.13c2.08,14.81,9.18,40.82,26.84,43.98c15.36,2.74,22.99-14.42,26.39-26.39c1.29-4.54-5.77-6.48-7.06-1.95
	c-2.66,9.39-9.98,27.82-22.71,19c-10.66-7.39-14.71-24.55-16.41-36.59C325.25,301.54,318.2,303.52,318.85,308.13L318.85,308.13z"/>
<path d="M200.12,163.97c-4.2-27.47,15.47-53.98,30.09-75.48c14.18-20.85,31.75-37.92,56.16-45.82
	c44.92-14.53,93.9,2.81,119.91,42.05c14.41,21.73,21.26,47.65,19.57,73.64c-0.31,4.7,7.01,4.68,7.32,0
	c3.21-49.27-24.3-100.26-70.73-119.61c-22.56-9.4-48.22-11.02-71.86-4.92c-25.38,6.55-45.37,22-60.89,42.79
	c-10.11,13.54-19.59,28.27-27.26,43.34c-7.36,14.47-11.86,29.68-9.37,45.96C193.78,170.56,200.83,168.59,200.12,163.97
	L200.12,163.97z"/>
<path d="M193.14,162.49c32.85,35.11,73.71,74.67,125.94,70.46c23.12-1.86,44.2-12.53,62.77-25.89c9.43-6.78,18.39-14.21,27.07-21.92
	c8.01-7.12,15.35-14.86,18.1-25.5c1.18-4.56-5.88-6.51-7.06-1.95c-2.73,10.55-10.94,17.68-18.86,24.59
	c-8.31,7.25-16.85,14.27-25.92,20.56c-18.07,12.54-38.67,22.53-61.05,23.03c-48.31,1.09-85.23-35.88-115.82-68.57
	C195.09,153.87,189.92,159.06,193.14,162.49L193.14,162.49z"/>
<path d="M273.12,158.17c-3.89-45.59,15.64-90.86,51.41-119.38c3.68-2.93-1.53-8.08-5.17-5.17c-37.09,29.57-57.58,77.29-53.55,124.55
	C266.2,162.83,273.52,162.87,273.12,158.17L273.12,158.17z"/>
<path d="M319.99,39.83c32.38,28.64,58.59,75.46,52.52,119.95c-0.63,4.61,6.42,6.6,7.06,1.95c6.44-47.22-19.81-96.47-54.4-127.07
	C321.65,31.54,316.45,36.7,319.99,39.83L319.99,39.83z"/>
<path d="M315.06,32.92c-0.66,1.45-2.15,1.66-3.47,0.85c-2.33-1.43-1.14-4.26,0.27-5.88c3.42-3.94,9.31-3.23,13.87-2.45
	c1.06,0.18,4.23,0.26,4.94,1.24c0.39,0.08,0.73,0.25,1.01,0.51c-0.8,0.7-1.67,1.33-2.58,1.87c-3.63,2.26-12.5,4.51-12.43-2.7
	c-0.6,1.05-1.21,2.11-1.81,3.16c5.7-2.62,11.9-2.65,17.61-0.05c-0.25-1.92-0.49-3.83-0.74-5.75c-2.81,2.19-5.76,2.88-9.25,2.73
	c-4.71-0.2-4.7,7.12,0,7.32c5.56,0.23,10.08-1.47,14.43-4.87c1.76-1.37,1.25-4.84-0.74-5.75c-8.3-3.77-16.71-3.76-25,0.05
	c-1.15,0.53-1.8,1.97-1.81,3.16c-0.13,13.49,15.55,14.28,24.25,8.51c3.55-2.36,6.96-5.77,5.07-10.32
	c-2.01-4.86-8.38-5.79-12.91-6.48c-9.47-1.43-24.58,2.18-22.7,14.96c1.26,8.52,14.38,12.15,18.3,3.58
	C323.33,32.36,317.02,28.64,315.06,32.92L315.06,32.92z"/>
<path d="M320.62,43.64c-14.72,13.82-27.36,29.5-37.77,46.8c-2.27,3.78,2.68,6.93,5.75,4.43c13.29-10.82,25.98-22.29,38.08-34.42
	c-1.72-1.72-3.45-3.45-5.17-5.17c-15.03,19.19-30.05,38.37-45.08,57.56c-2.61,3.33,0.53,7.43,4.43,5.75
	c23.41-10.08,29.58-38.58,51.16-50.82c-1.67-1.67-3.34-3.34-5.01-5.01c-18.03,25.35-36.06,50.7-54.09,76.04
	c-2.38,3.35,3.12,7.66,5.75,4.43c20.73-25.53,41.46-51.06,62.19-76.58c-1.92-1.48-3.83-2.96-5.75-4.43
	c-16.31,22.77-32.63,45.54-48.94,68.31c2.11,1.23,4.21,2.46,6.32,3.69c13.35-18.86,28.72-36.05,45.9-51.51
	c-1.92-1.48-3.83-2.96-5.75-4.43c-10.94,18.14-22.82,35.64-35.65,52.49c-2.52,3.32,2.96,7.45,5.75,4.43
	c14.71-15.88,29.42-31.75,44.13-47.63c-1.92-1.48-3.83-2.96-5.75-4.43c-10.56,22.18-24,42.68-40.24,61.11
	c-3.09,3.51,1.92,8.63,5.17,5.17c15.97-16.94,31.95-33.89,47.92-50.83c-1.92-1.48-3.83-2.96-5.75-4.43
	c-11.97,17.92-23.94,35.84-35.92,53.76c-2.68,4.01,3.54,7.32,6.32,3.69c11.37-14.85,24.36-28.28,38.69-40.28
	c-2.04-1.19-4.08-2.37-6.12-3.56c-5.16,13.69-12.5,26.26-21.87,37.49c-3.01,3.6,1.59,8.31,5.17,5.17
	c8.34-7.3,16.69-14.6,25.03-21.91c-1.92-1.48-3.83-2.96-5.75-4.43c-3.41,7-6.83,14-10.24,21c-1.45,2.97,1.75,7.31,5.01,5.01
	c4.73-3.34,9.45-6.69,14.18-10.03c-1.79-1.38-3.58-2.75-5.38-4.13c-1.6,5.79-3.88,11.05-6.99,16.2c-1.62,2.67,1.07,6.33,4.13,5.38
	c3.45-1.08,6.4-2.5,9.33-4.65c-1.79-0.73-3.58-1.46-5.38-2.19c0.69,2.03,1.38,4.06,2.07,6.09c0.92,2.69,5.26,3.94,6.69,0.87
	c3.75-8.09,8.72-18.14,8.3-27.26c-0.26-5.56-3.3-11.87-9.73-11.06c1.05,1.84,2.11,3.67,3.16,5.51c5.56-10.41,0.48-22.24-7.26-30.15
	c-6-6.13-16.83-8.08-20.19,1.72c2.4,0.32,4.79,0.65,7.19,0.97c0.93-14.85-4.11-28.82-14.03-39.88c-2.72-3.04-8.31,1.11-5.75,4.43
	c13.77,17.87,22.65,38.77,25.46,61.19c2.4-0.32,4.79-0.65,7.19-0.97c-0.41-2.62-0.82-5.24-1.24-7.86c-0.27-1.7-2.05-2.52-3.53-2.69
	c-4.22-0.47-7.62,1.42-10.03,4.91c-4.32,6.25-2.25,12.51-10.5,16.12c-6.7,2.93-15.03,3.98-22.11,5.86
	c-7.37,1.95-14.74,3.91-22.11,5.86c1.19,2.04,2.37,4.08,3.56,6.12c8.4-7.32,16.81-14.64,25.21-21.96c-1.72-1.72-3.45-3.45-5.17-5.17
	c-13.22,13.13-29.6,21.59-47.92,24.93c-2.96,0.54-3.19,4.2-1.61,6.12c7.53,9.14,20.52,4.55,30.08,1.96
	c16.06-4.36,32.13-8.71,48.19-13.07c-0.94-2.23-1.88-4.46-2.82-6.69c-10.63,6.56-21.93,11.15-34.12,13.88
	c0.65,2.35,1.3,4.7,1.95,7.06c11.42-3.21,22.84-6.42,34.26-9.63c-1.5-1.5-3-3-4.5-4.5c-4.09,10.29-24.07,5.72-31.85,3.9
	c-6.08-1.42-12.58-3.81-16.27-9.17c-3.5-5.08-4.32-12.05,0.28-16.66c-2.04-1.19-4.08-2.37-6.12-3.56
	c-1.47,5.4-2.95,10.79-4.42,16.19c-0.67,2.46,1.19,4.43,3.53,4.63c7.04,0.62,13.44-1.06,19.3-5.01c3.87-2.61,0.37-8.8-3.69-6.32
	c-4.23,2.58-9.16,5.65-14.1,6.58c-3.85,0.72-7.68,0.06-6.98-4.55c0.32-2.13,0.84-4.25,1.28-6.36c1.63-7.87,3.42-15.72,5.73-23.43
	c5-16.69,12.73-33.66,26.95-44.47c2.46-1.87,7.23-4.48,10.45-3.37c1.89,0.66,3.8,3.81,5.07,5.4c3.29,4.13,6.28,8.51,9.05,13.01
	c5.07,8.25,9.27,17.02,12.51,26.15c6.48,18.28,9.05,37.51,7.79,56.85c-0.28,4.31,5.91,4.7,7.19,0.97
	c2.84-8.31,4.39-16.75,4.78-25.52c-2.4,0.32-4.79,0.65-7.19,0.97c1.12,5.76,1.13,11.13,0.01,16.88c-0.89,4.6,6.16,6.57,7.06,1.95
	c1.36-7.02,1.36-13.76-0.01-20.77c-0.82-4.2-7.01-2.99-7.19,0.97c-0.37,8.13-1.89,15.89-4.52,23.57c2.4,0.32,4.79,0.65,7.19,0.97
	c1.29-19.91-1.38-39.97-8.05-58.79c-3.31-9.34-7.52-18.38-12.63-26.87c-4.26-7.08-9.58-16.76-16.57-21.47
	c-13.91-9.38-30.65,12.98-36.83,23.14c-9.38,15.42-13.96,33.34-17.61,50.84c-1.41,6.74-5.14,17.93,3.37,21.6
	c8.07,3.48,20.27-3.85,26.97-7.94c-1.23-2.11-2.46-4.21-3.69-6.32c-4.88,3.29-9.75,4.52-15.6,4.01c1.18,1.54,2.35,3.09,3.53,4.63
	c1.47-5.4,2.95-10.79,4.42-16.19c0.96-3.52-3.53-6.16-6.12-3.56c-5.78,5.8-6.6,13.99-3.54,21.42c3.31,8.03,10.43,12.83,18.49,15.46
	c13.29,4.35,38.53,8.77,45.13-7.83c1.06-2.67-2.04-5.19-4.5-4.5c-11.42,3.21-22.84,6.42-34.26,9.63c-4.55,1.28-2.64,8.08,1.95,7.06
	c12.77-2.86,24.73-7.74,35.87-14.61c3.49-2.15,1.26-7.79-2.82-6.69c-12.39,3.36-24.78,6.72-37.17,10.08
	c-8.27,2.24-27.17,11.16-33.97,2.91c-0.54,2.04-1.08,4.08-1.61,6.12c19.49-3.56,37.11-12.86,51.15-26.82
	c3.38-3.36-1.65-8.24-5.17-5.17c-8.4,7.32-16.81,14.64-25.21,21.96c-2.85,2.48,0.2,7.01,3.56,6.12
	c13.82-3.66,27.65-7.27,41.46-10.99c4.32-1.16,8.75-2.09,11.71-5.7c2.76-3.38,3.8-16.45,9.64-15.8c-1.18-0.9-2.35-1.79-3.53-2.69
	c0.41,2.62,0.82,5.24,1.24,7.86c0.63,4.03,7.7,3.13,7.19-0.97c-2.98-23.74-11.83-45.9-26.46-64.88c-1.92,1.48-3.83,2.96-5.75,4.43
	c8.69,9.69,12.7,21.75,11.89,34.7c-0.27,4.31,5.91,4.7,7.19,0.97c2.15-6.26,10.92,5.04,12.05,6.85c3.04,4.89,4.91,10.54,2.03,15.94
	c-1.16,2.18,0.23,5.88,3.16,5.51c6.89-0.87-4.11,25.63-4.89,27.31c2.23,0.29,4.46,0.58,6.69,0.87c-0.69-2.03-1.38-4.06-2.07-6.09
	c-0.69-2.02-3.35-3.68-5.38-2.19c-2.54,1.86-4.48,2.94-7.58,3.91c1.38,1.79,2.75,3.58,4.13,5.38c3.42-5.65,5.96-11.58,7.73-17.95
	c0.8-2.88-2.68-6.04-5.38-4.13c-4.73,3.34-9.45,6.69-14.18,10.03c1.67,1.67,3.34,3.34,5.01,5.01c3.41-7,6.83-14,10.24-21
	c1.83-3.75-2.56-7.23-5.75-4.43c-8.34,7.3-16.69,14.6-25.03,21.91c1.72,1.72,3.45,3.45,5.17,5.17
	c10.23-12.24,18.13-25.79,23.76-40.71c1.41-3.75-3.62-5.65-6.12-3.56c-14.84,12.44-28.07,26.4-39.84,41.76
	c2.11,1.23,4.21,2.46,6.32,3.69c11.97-17.92,23.94-35.84,35.92-53.76c2.31-3.46-2.91-7.44-5.75-4.43
	c-15.97,16.94-31.95,33.89-47.92,50.83c1.72,1.72,3.45,3.45,5.17,5.17c16.65-18.89,30.56-39.85,41.39-62.59
	c1.68-3.54-2.74-7.68-5.75-4.43c-14.71,15.88-29.42,31.75-44.13,47.63c1.92,1.48,3.83,2.96,5.75,4.43
	c12.83-16.85,24.72-34.35,35.65-52.49c2.21-3.67-2.73-7.15-5.75-4.43c-17.64,15.88-33.33,33.62-47.04,52.99
	c-2.73,3.86,3.6,7.49,6.32,3.69c16.31-22.77,32.63-45.54,48.94-68.31c2.4-3.34-3.12-7.66-5.75-4.43
	c-20.73,25.53-41.46,51.06-62.19,76.58c1.92,1.48,3.83,2.96,5.75,4.43c18.03-25.35,36.06-50.7,54.09-76.04
	c2.22-3.11-2.02-6.7-5.01-5.01c-21.61,12.26-28.1,40.89-51.16,50.82c1.48,1.92,2.96,3.83,4.43,5.75
	c15.03-19.19,30.05-38.37,45.08-57.56c2.82-3.6-1.75-8.61-5.17-5.17c-12.1,12.13-24.79,23.6-38.08,34.42
	c1.92,1.48,3.83,2.96,5.75,4.43c10.1-16.79,22.34-31.91,36.63-45.31C329.24,45.58,324.06,40.41,320.62,43.64L320.62,43.64z"/>
<path d="M466.45,170.95c7.48-12.99,14.96-25.98,22.44-38.96c-2.11,0-4.21,0-6.32,0c5.87,11.76,10.18,23.99,13.1,36.8
	c1.18-1.54,2.35-3.09,3.53-4.63c-9.93,0.48-19.76,0.04-29.59-1.51c0.73,1.79,1.46,3.58,2.19,5.38c4.31-8.95,8.61-17.9,12.92-26.84
	c-2.27-0.62-4.55-1.23-6.82-1.85c-1.04,7.82-2.08,15.64-3.12,23.46c-0.45,3.39,4.16,4.48,6.25,2.59c5.83-5.31,8.86-11.83,9.63-19.64
	c0.4-4.06-6.54-5.05-7.19-0.97c-0.69,4.31-1.37,8.61-2.06,12.92c2.35,0,4.7,0,7.06,0c-0.05-0.37-0.1-0.74-0.15-1.11
	c-0.31,1.19-0.63,2.37-0.94,3.56c-3.1,3.19,0.2,7.69,3.33,9.32c3.43,1.78,6.47-1.72,5.01-5.01c-3.94-8.84-7.88-17.69-11.82-26.53
	c-1.59-3.57-6.64-1.43-6.82,1.85c-0.59,11.08,2.21,21.48,8.26,30.78c0.73-1.79,1.46-3.58,2.19-5.38c-0.97-0.39-1.95-0.79-2.92-1.18
	c-1.18,1.54-2.35,3.09-3.53,4.63c2.68-0.12,5.37-0.24,8.06-0.36c4.69-0.21,4.72-7.53,0-7.32c-2.69,0.12-5.37,0.24-8.06,0.36
	c-2.18,0.1-4.4,2.29-3.53,4.63c1.92,5.19,6.44,7.89,11.93,6.29c2.17-0.63,3.5-3.36,2.19-5.38c-5.4-8.29-7.78-17.21-7.26-27.09
	c-2.27,0.62-4.55,1.23-6.82,1.85c3.94,8.84,7.88,17.69,11.82,26.53c1.67-1.67,3.34-3.34,5.01-5.01c-1.44-0.75-1.7-6.71-3.02-8.24
	c-1.11-1.28-2.63-2.22-4.42-2.25c-4.2-0.06-6.05,3.37-5.55,6.98c0.48,3.53,6.51,3.46,7.06,0c0.69-4.31,1.37-8.61,2.06-12.92
	c-2.4-0.32-4.79-0.65-7.19-0.97c-0.58,5.88-3.14,10.5-7.49,14.46c2.08,0.86,4.16,1.72,6.25,2.59c1.04-7.82,2.08-15.64,3.12-23.46
	c0.48-3.6-5.31-4.99-6.82-1.85c-4.31,8.95-8.61,17.9-12.92,26.84c-0.91,1.89-0.33,4.98,2.19,5.38c10.48,1.65,20.93,2.29,31.54,1.77
	c2.44-0.12,4.07-2.24,3.53-4.63c-3.06-13.42-7.7-26.24-13.84-38.55c-1.24-2.49-5.01-2.27-6.32,0
	c-7.48,12.99-14.96,25.98-22.44,38.96C457.77,171.34,464.1,175.03,466.45,170.95L466.45,170.95z"/>
<path d="M147.36,165.63c1.33-9.51,2.67-19.02,4-28.53c-1.79,0.73-3.58,1.46-5.38,2.19c4.78,3.39,10.28,7.13,12.46,12.83
	c1.27,3.31,1.65,7.24-0.85,10.06c-1.89,2.14-5.38,2.96-7.69,0.93c-0.25,1.92-0.49,3.83-0.74,5.75c8.12-5.47,11.8-14.7,9.53-24.25
	c-0.94-3.97-7.38-3.18-7.19,0.97c0.23,4.97,1.53,9.42,4.12,13.66c1.72,2.83,7.32,1.97,6.82-1.85c-0.76-5.81-3.02-10.56-7.7-14.24
	c-2.17-1.71-6.6-0.94-6.25,2.59c0.4,3.93,1.65,6.93,4.67,9.58c2.92,2.56,8.33-0.86,5.75-4.43c-1.15-1.59-2.3-3.18-3.44-4.77
	c-2.05-2.84-6.74-2-6.82,1.85c-0.11,5.12-0.21,10.25-0.32,15.37c2.4-0.32,4.79-0.65,7.19-0.97c-0.74-1.71-0.22-3.02,1.57-3.94
	c4.37-1.65,2.47-8.72-1.95-7.06c-5.45,2.06-8.47,7.18-6.68,12.94c1.22,3.93,7.1,3.22,7.19-0.97c0.11-5.12,0.21-10.25,0.32-15.37
	c-2.27,0.62-4.55,1.23-6.82,1.85c1.15,1.59,2.3,3.18,3.44,4.77c1.92-1.48,3.83-2.96,5.75-4.43c-1.52-1-2.36-2.47-2.53-4.41
	c-2.08,0.86-4.16,1.72-6.25,2.59c2.99,2.36,5.05,5.2,5.56,9.07c2.27-0.62,4.55-1.23,6.82-1.85c-1.94-3.18-2.95-6.26-3.12-9.97
	c-2.4,0.32-4.79,0.65-7.19,0.97c1.47,6.2-0.87,12.41-6.17,15.99c-1.83,1.23-2.62,4.1-0.74,5.75c7.32,6.43,18.69,2.57,21.39-6.66
	c3.72-12.73-7.28-22.14-16.46-28.65c-1.76-1.25-5.06-0.06-5.38,2.19c-1.33,9.51-2.66,19.02-4,28.53
	C139.66,168.29,146.71,170.28,147.36,165.63L147.36,165.63z"/>
<path d="M445.94,311.76c14.57-0.08,28.17,6.46,36.89,18.22c2.77,3.74,9.13,0.1,6.32-3.69c-10.29-13.88-25.86-21.94-43.21-21.84
	C441.23,304.47,441.22,311.79,445.94,311.76L445.94,311.76z"/>
<path d="M435.49,340.62c10.62,5.08,19.72,12.16,27.25,21.21c3.02,3.62,8.17-1.58,5.17-5.17c-7.89-9.47-17.61-17.03-28.73-22.35
	C434.95,332.28,431.24,338.59,435.49,340.62L435.49,340.62z"/>
<path d="M430.26,365.1c4.27,7.24,8.53,14.47,12.8,21.71c2.39,4.05,8.72,0.38,6.32-3.69c-4.27-7.24-8.53-14.47-12.8-21.71
	C434.19,357.35,427.86,361.03,430.26,365.1L430.26,365.1z"/>
<path d="M199.43,299.61c-19.91,1.67-38.07,10.35-51.63,25.07c-3.19,3.46,1.97,8.65,5.17,5.17c12.21-13.24,28.47-21.41,46.46-22.93
	C204.09,306.54,204.14,299.22,199.43,299.61L199.43,299.61z"/>
<path d="M176.05,361.84c7.66-13.45,18.21-24.51,31.34-32.72c3.98-2.49,0.31-8.83-3.69-6.32c-14.16,8.86-25.69,20.83-33.96,35.35
	C167.39,362.25,173.71,365.94,176.05,361.84L176.05,361.84z"/>
<path d="M198.76,377.47c3.76-9.19,9.34-17.31,16.4-24.27c3.36-3.31-1.82-8.48-5.17-5.17c-8.01,7.89-14.03,17.1-18.28,27.5
	C189.92,379.88,197,381.78,198.76,377.47L198.76,377.47z"/>
<path class="st0" d="M320.83,127.76c-4.12-4.24-7.18-8.95-9-14.62c-0.72-2.24-3.68-13.39-0.48-13.77c1.9-0.23,2.6,5.91,4.28,7.94
	c1.67,2.02,4.11,3.3,6.78,3.17c2.8-0.14,5.1-1.92,6.83-3.97c1.17-1.38,4.9-10.67,7.08-7.24c1.27,2-4.89,11.93-6.01,13.81
	c-3,5.05-6.7,9.42-10.93,13.47c2.04,0.54,4.08,1.08,6.12,1.61c-1.07-6.75-3.06-13.07-5.83-19.3c-0.9-2.01-4.37-2.48-5.75-0.74
	c-3.56,4.49-3.58,9.37,0.05,13.84c1.15,1.42,4.03,1.43,5.17,0c3.01-3.79,3.97-7.41,2.99-12.16c-0.53-2.55-4.41-3.71-6.12-1.61
	c-5.1,6.26-5.09,14.01,0.35,20.08c1.38,1.54,3.75,1.24,5.17,0c5.32-4.65,8.89-10.12,11.28-16.76c-2.35,0-4.7,0-7.06,0
	c1.15,2.96,1.36,5.15,0.45,8.28c-1.31,4.53,5.74,6.47,7.06,1.95c1.24-4.27,1.16-8.01-0.45-12.17c-1.32-3.39-5.78-3.53-7.06,0
	c-1.97,5.45-5.05,9.72-9.4,13.53c1.72,0,3.45,0,5.17,0c-2.51-2.81-2.77-6.75-0.35-9.73c-2.04-0.54-4.08-1.08-6.12-1.61
	c-0.37,1.68-0.74,3.36-1.11,5.04c1.72,0,3.45,0,5.17,0c-0.99-1.15-1.01-2.31-0.05-3.49c-1.92-0.25-3.83-0.49-5.75-0.74
	c2.53,5.67,4.13,11.44,5.1,17.55c0.45,2.85,4.31,3.34,6.12,1.61c5.49-5.25,10.21-11.21,13.75-17.95c2.67-5.1,6.56-12.31,5.66-18.23
	c-0.66-4.34-4.18-7.63-8.77-6.76c-2.41,0.46-4.58,2.18-6.18,3.95c-2.33,2.58-2.91,7.7-6.53,7.8c-3.56,0.09-2.67-3.81-4.25-6.69
	c-1.03-1.88-2.57-3.73-4.57-4.64c-4.46-2.03-8.68,0.91-10.06,5.25c-4.21,13.22,2.98,29.16,12.05,38.49
	C318.94,136.32,324.12,131.14,320.83,127.76L320.83,127.76z"/>
</svg>
