<?xml version="1.0" encoding="utf-8"?>
<!-- Generator: Adobe Illustrator 28.2.0, SVG Export Plug-In . SVG Version: 6.00 Build 0)  -->
<svg version="1.1" id="Layer_1" xmlns="http://www.w3.org/2000/svg" xmlns:xlink="http://www.w3.org/1999/xlink" x="0px" y="0px"
	 viewBox="0 0 640 480" style="enable-background:new 0 0 640 480;" xml:space="preserve">
<path d="M114.51,13.49c-1.79,44.15-3.58,88.31-5.37,132.46c-1.58,38.94-4.27,78.02-4.02,117c0.21,31.99,2.98,65.06,15.27,94.93
	c12.12,29.44,33.79,52.38,62.81,65.65c33.42,15.28,71.74,20.56,107.81,25.75c38.27,5.5,77.66,7.68,115.51-1.76
	c32.92-8.22,63.97-25.17,85.12-52.15c21.13-26.96,31.36-60.93,34.25-94.7c3.95-46.14-5.68-92.19-14.16-137.29
	c-9.23-49.1-18.46-98.19-27.69-147.29c-0.69-3.68-5.69-3.68-7.46-0.98c-13.23,20.26-27.49,41.9-48.72,54.6
	c-25.6,15.32-59.43,10.48-88.01,10.39c-31.06-0.1-62.12-0.39-93.18-0.88c-14.91-0.23-30.01,0.11-44.88-1.03
	c-13.74-1.06-25.12-5.73-34.04-16.37c-14.61-17.43-20.96-40.3-40.04-54.06c-4.27-3.08-8.35,4-4.12,7.05
	c18.38,13.25,24.55,36.9,39.05,53.54c18.55,21.3,47.04,18.4,72.78,18.84c33.73,0.58,67.47,0.93,101.21,1.05
	c16.87,0.06,33.79,0.39,50.66-0.08c13.3-0.37,26.31-2.25,38.41-8.04c25.83-12.36,42.75-37.68,57.92-60.9
	c-2.49-0.33-4.98-0.65-7.46-0.98c7.63,40.56,15.25,81.12,22.88,121.67c7.55,40.18,16.71,80.57,19.04,121.49
	c2.03,35.67-1.79,72.54-17.84,104.92c-15.57,31.42-42.14,54.26-74.78,66.7c-34.56,13.17-71.93,14.65-108.41,11.22
	c-36.54-3.43-74.87-9.22-109.97-20.31c-31.89-10.07-58.85-28.68-74.43-58.86c-14.21-27.52-18.16-59.34-19.14-89.91
	c-1.31-40.86,1.88-81.96,3.53-122.77c1.88-46.31,3.75-92.62,5.63-138.93C122.89,8.23,114.73,8.24,114.51,13.49L114.51,13.49z"/>
<path d="M444.47,150.79c-32.42-7.6-63.25,14.02-82.2,38.64c-9.71,12.61-17.3,28.19-15.51,44.51c1.68,15.27,11.61,28.26,23.27,37.63
	c23.32,18.75,56.67,25.05,84.18,11.96c25.98-12.36,43.83-40.91,39.67-69.91c-4.63-32.22-32.85-57.32-63.84-63.79
	c-5.13-1.07-7.32,6.8-2.17,7.87c23.96,5,46.18,21.66,54.86,45.03c8.98,24.17-0.22,50.24-20.1,65.96
	c-21.52,17.01-51.36,17.32-75.1,4.69c-11.49-6.11-22.37-15.26-28.46-26.95c-7.41-14.24-4.31-29.71,3.53-43.04
	c15.36-26.12,47.7-52.24,79.71-44.73C447.41,159.86,449.59,151.99,444.47,150.79L444.47,150.79z"/>
<path d="M230.88,150.79c-32.42-7.6-63.25,14.02-82.2,38.64c-9.71,12.61-17.3,28.19-15.51,44.51c1.68,15.27,11.61,28.26,23.27,37.63
	c23.32,18.75,56.67,25.05,84.18,11.96c25.98-12.36,43.83-40.91,39.67-69.91c-4.63-32.22-32.85-57.32-63.84-63.79
	c-5.13-1.07-7.32,6.8-2.17,7.87c23.96,5,46.18,21.66,54.86,45.03c8.98,24.17-0.22,50.24-20.1,65.96
	c-21.52,17.01-51.36,17.32-75.1,4.69c-11.49-6.11-22.37-15.26-28.46-26.95c-7.41-14.24-4.31-29.71,3.53-43.04
	c15.36-26.12,47.7-52.24,79.71-44.73C233.82,159.86,236,151.99,230.88,150.79L230.88,150.79z"/>
<path d="M410.77,200.6c-6.94,9.26-7.2,21.51-0.98,31.21c1.42,2.21,4.48,2.73,6.41,0.83c9.36-9.23,9.76-23.21,1.82-33.41
	c-1.62-2.08-5.27-1.26-6.41,0.83c-4.22,7.69-6.8,17.64-3.98,26.3c2.06,6.33,8.06,8.59,13.67,4.82c13.33-8.97,7.01-30.87-2.37-39.96
	c-1.51-1.46-4.29-1.68-5.77,0c-6.46,7.32-9.72,16.68-8.3,26.44c0.99,6.83,4.9,17.36,13.69,15.7c7.88-1.48,10.74-11.33,11.21-18.15
	c0.58-8.52-1.63-17.27-9.51-21.7c-1.47-0.83-3.78-0.74-4.95,0.64c-9.86,11.65-11.75,27.14-4.86,40.78c1.49,2.95,5.42,2.33,7.05,0
	c5.98-8.51,8.65-18.22,7.89-28.59c-0.19-2.57-2.47-4.73-5.17-3.94c-7.63,2.25-10.27,11.94-4.27,17.44c3.87,3.55,9.66-2.21,5.77-5.77
	c0.22-1.26,0.44-2.53,0.66-3.79c-1.72-1.31-3.45-2.63-5.17-3.94c0.66,9.06-1.57,17.06-6.78,24.47c2.35,0,4.7,0,7.05,0
	c-5.13-10.16-3.79-22.18,3.58-30.89c-1.65,0.21-3.3,0.43-4.95,0.64c4.35,2.44,5.47,6.9,5.55,11.63c0.04,2.42-0.47,12.7-4.25,13
	c-4.12,0.33-4.83-10.71-4.74-13.05c0.22-5.7,2.49-10.9,6.25-15.16c-1.92,0-3.85,0-5.77,0c5.52,5.34,8.72,13.32,6.91,21.04
	c-0.29,1.26-1.14,4.91-2.29,5.43c-2.95,1.33-2.94-2.6-2.99-4.3c-0.18-5.39,1.32-10.31,3.89-14.98c-2.14,0.28-4.28,0.55-6.41,0.83
	c5.22,6.71,4.07,16.06-1.82,21.86c2.14,0.28,4.28,0.55,6.41,0.83c-4.79-7.47-4.3-15.91,0.98-22.96
	C420.97,200.51,413.88,196.44,410.77,200.6L410.77,200.6z"/>
<path d="M197.6,198.97c-2.66,11.14-3.61,22.3-2.75,33.73c0.25,3.33,3.22,4.76,6.14,3.53c16.94-7.15,18.16-32.26,3.4-42.2
	c-1.82-1.22-4.55-0.36-5.59,1.46c-4.52,7.93-9.82,20.83-6.43,30.09c2.5,6.82,10.67,7.53,15.68,3.01c3.63-3.28,4.35-8.28,5-12.88
	c0.76-5.45,2.24-11.34,1.99-16.85c-0.28-6.2-7.38-15.23-14.04-9.3c-3.49,3.11-4.54,10.14-6.37,14.49
	c-1.82,4.34-3.31,8.83-3.18,13.59c0.21,7.84,4.73,15.65,13.08,16.61c7.81,0.89,15.24-4.94,18.05-11.97
	c3.72-9.28,0.78-22.61-4.11-30.94c-5.22-8.89-13.72-7.28-17.69,1.39c-5.21,11.4-5.2,24.42-0.9,36.06c0.99,2.68,4.61,4.27,6.82,1.8
	c8.24-9.2,9.87-21.32,4.46-32.4c-1.33-2.72-5.69-2.61-7.05,0c-3.72,7.13-3.73,14.01-0.09,21.17c2.38,4.69,9.43,0.56,7.05-4.12
	c-2.18-4.3-2.13-8.67,0.09-12.93c-2.35,0-4.7,0-7.05,0c3.73,7.65,2.48,16.19-3.19,22.51c2.27,0.6,4.55,1.2,6.82,1.8
	c-2.95-7.97-3.81-16.3-1.62-24.61c0.44-1.68,0.91-4.23,1.98-5.62c0.35-2.42,1.21-2.54,2.59-0.37c1.29,0.6,2.03,1.57,2.22,2.91
	c2.04,3.82,3.21,10.42,3.1,14.58c-0.11,4.63-2.1,9.82-6.63,11.86c-5.74,2.57-9.51-2.55-9.77-7.73c-0.4-8.17,5.51-16.08,7.8-23.79
	c-0.95,0.95-1.9,1.9-2.85,2.85c3.51-1.43,1.33,11.59,1.14,12.94c-0.26,1.96-0.12,8.66-1.6,10.04c-6.61,6.18-3.47-6.94-3.02-8.74
	c1.01-4.04,2.7-7.72,4.76-11.33c-1.86,0.49-3.72,0.98-5.59,1.46c10.25,6.9,7.41,23.53-3.4,28.09c2.05,1.18,4.1,2.35,6.14,3.53
	c-0.81-10.71-0.04-21.11,2.46-31.56C206.69,196.03,198.82,193.85,197.6,198.97L197.6,198.97z"/>
<path d="M320.37,268.53c-5.4-11.04-19.03-0.14-23.51,5.84c-6.44,8.61-8.07,22.01,4.96,25.08c10.55,2.49,24.95-1.27,30.13-11.5
	c4.21-8.33,1.39-20.68-8.36-23.49c-10.75-3.11-23.22,6.19-27.02,15.93c-1.68,4.32-1.82,9.45,1.48,13.07
	c4.05,4.44,10.9,4.26,16.38,3.66c10.1-1.11,21.02-8.76,17.38-20.31c-3.33-10.59-18.9-9.9-24.51-1.74
	c-6.47,9.4,6.01,23.69,14.13,13.71c2.76-3.39,3.43-10.15-1.27-12.46c-5.16-2.54-11.48,3.11-13.99,7.08
	c-1.64,2.58,0.49,6.24,3.53,6.14c5.02-0.16,8.72-2.28,11.51-6.44c1.54-2.3-0.09-5.23-2.44-6c-6.05-1.99-12.04,2.62-11.84,8.93
	c0.06,1.96,1.26,3.26,3,3.94c4.43,1.72,8.4,0.59,12.02-2.24c4.13-3.24-1.68-8.98-5.77-5.77c-1.41,0.9-2.77,0.94-4.08,0.14
	c1,1.31,2,2.62,3,3.94c0.5-0.35,1-0.71,1.5-1.06c-0.81-2-1.63-4-2.44-6c-1,1.71-2.48,2.51-4.45,2.39c1.18,2.05,2.35,4.1,3.53,6.14
	c1.48-2.34,3.3-3.27,5.96-3.74c-1.32-0.35-2.65-0.7-3.97-1.05c-0.4,0.16-0.81,0.32-1.21,0.49c-0.73-0.97-0.78-1.91-0.14-2.84
	c0.49-1.45,1.5-2.07,2.86-2.65c2.9-1.24,6.96-0.95,7.52,2.64c1.02,6.56-7.62,8.53-12.38,8.79c-2.32,0.13-6.95,0.69-8.22-1.94
	c-1.04-2.16,1.25-5.61,2.49-7.29c3.05-4.13,10.9-10.36,16.32-7.16c4,2.37,4,8.72,1.8,12.27c-2.99,4.82-9.4,6.56-14.7,6.82
	c-2.76,0.13-7.87,0.38-9.41-2.53c-1.21-2.27,0.41-5.48,1.49-7.39c0.6-1.06,9.89-12.95,11.7-9.27
	C315.62,277.38,322.67,273.24,320.37,268.53L320.37,268.53z"/>
<path d="M312.6,290.44c-0.27,21.05,0.16,42.24-1.02,63.26c-1.09,19.42-6.47,40.42-25.14,49.94c-4.68,2.39-0.56,9.44,4.12,7.05
	c17.12-8.73,25.44-26.72,28.03-45.03c3.49-24.61,1.86-50.4,2.18-75.22C320.83,285.19,312.67,285.18,312.6,290.44L312.6,290.44z"/>
<path d="M312.67,381.94c6.42,16.23,19.4,28.34,36.22,33.22c5.06,1.47,7.22-6.41,2.17-7.87c-13.87-4.03-25.18-14.03-30.52-27.52
	C318.63,374.94,310.73,377.04,312.67,381.94L312.67,381.94z"/>
<path d="M284,225.93c19.64-13.57,45.6-13.14,64.83,0.98c4.24,3.11,8.32-3.97,4.12-7.05c-21.36-15.67-51.3-16.03-73.08-0.98
	C275.59,221.85,279.67,228.93,284,225.93L284,225.93z"/>
<path d="M383.49,290.56c-29.27-15.85-44.19-49.85-37.24-82.26c6.9-32.18,32.66-59.25,65.41-65.17
	c32.74-5.92,60.44,14.33,74.76,42.56c13.7,27,19.52,68.23-5.31,90.81c-11.81,10.74-27.85,15.47-42.97,19.34
	c-9.76,2.5-19.92,5.14-30.03,3.24c-9.2-1.73-17.55-6.36-25.38-11.3c-15.01-9.47-28.93-21.13-32.53-39.37
	c-2.97-15.06-0.83-31.42,4.48-45.71c10.52-28.33,35.64-50.78,66.82-50.91c13.44-0.05,27.02,3.7,38.24,11.18
	c14,9.34,20.73,23.03,25.3,38.84c4.86,16.81,10.2,35.58,6.15,53.1c-4.65,20.13-22.66,28.72-41.19,33
	c-20.84,4.82-42.01,6.83-61.22-4.25c-15.89-9.17-28.13-23.49-39.86-37.3c-1.92,1.93-3.85,3.85-5.77,5.77
	c24.56,25.74,60.77,44.3,97.12,39.26c30.25-4.19,57.05-28.1,58.17-59.71c0.19-5.26-7.98-5.25-8.17,0
	c-1.06,30.09-28.9,50.76-57.31,52.25c-31.95,1.68-62.48-14.99-84.03-37.57c-3.68-3.85-9.13,1.82-5.77,5.77
	c12.44,14.66,25.57,29.71,42.59,39.18c19.05,10.6,39.39,9.92,60.23,5.79c17.18-3.4,35.55-9.01,46.09-24.07
	c10.15-14.49,9.67-33.1,6.66-49.78c-3.19-17.74-7.74-37.84-18.82-52.44c-9.38-12.37-23.29-20.8-38.24-24.66
	c-32.55-8.42-64.93,5.39-83.78,32.71c-19.15,27.77-26.22,72.26-1.33,98.7c12.66,13.45,32.34,26.5,50.74,29.61
	c18.5,3.12,40.98-4.28,57.92-11.5c16.41-6.99,29.87-18.31,36.33-35.28c6.42-16.88,5.57-36.08,1.36-53.39
	c-7.89-32.45-31.03-65.24-65.67-71.81c-41.35-7.84-81.14,20.74-95.26,58.68c-14.41,38.71,0.63,83.83,37.4,103.74
	C383.99,300.11,388.12,293.06,383.49,290.56L383.49,290.56z"/>
<path d="M272.04,225.75c1.04,1.23,2.08,2.47,3.12,3.7c1.87,2.22,6.35,1.15,6.82-1.8c1-6.23,2-12.46,2.99-18.69
	c-2.67-0.36-5.35-0.72-8.02-1.09c2.07,22.6,2.2,44.79-14.23,62.4c-13.01,13.94-31.49,21.75-50.47,22.22
	c-37.22,0.91-74.21-24.51-80.56-62.4c-6.99-41.72,28.06-78.57,68.92-79.49c42.09-0.95,76.73,32.51,81.84,73.56
	c2.77,22.29-4.64,42.92-24.89,54.07c-19.66,10.82-42.91,9.64-64.46,7.11c-10.84-1.28-24.01-1.43-32.24-9.62
	c-7.58-7.55-10.5-19.18-13.56-29.12c-6.99-22.68-9.08-44.83,5.4-65.06c24.47-34.18,75.95-42.12,108.34-14.71
	c30.78,26.04,31.19,74.98,1.71,102.34c-33.38,30.97-88.26,23.41-112.53-14.72c-11.37-17.87-14.2-39.86-5.64-59.49
	c8.63-19.78,27.05-35.3,48.78-37.84c5.16-0.6,5.22-8.77,0-8.17c-43.09,5.02-72.14,50.97-58.49,92.13
	c14.2,42.82,61.86,65.7,104.27,51.21c42.38-14.48,65.89-63.07,47.5-104.85c-19.24-43.73-74.45-56.88-114.4-34.01
	c-19.42,11.12-35.35,30.52-38.45,53.13c-1.83,13.32,0.95,26.57,4.75,39.3c3.26,10.93,6.49,22.95,13.57,32.13
	c7.55,9.79,18.05,12.54,29.86,14.12c14.23,1.9,28.64,3.8,43.03,2.97c21.84-1.26,44.78-9.41,57.36-28.37
	c12.94-19.51,10.36-46.45,1.98-67.21c-8.32-20.62-23.83-38.64-43.98-48.41c-42.33-20.51-95.23-2.79-112.48,41.87
	c-16.91,43.78,11.5,89.25,54.05,103.2c39.56,12.96,90.96-4.27,102.15-47.85c3.4-13.23,2.27-26.97,1.04-40.4
	c-0.39-4.2-7.24-5.98-8.02-1.09c-1,6.23-2,12.46-2.99,18.69c2.27-0.6,4.55-1.2,6.82-1.8c-1.04-1.23-2.08-2.47-3.12-3.7
	C274.42,215.95,268.67,221.75,272.04,225.75L272.04,225.75z"/>
<path d="M523.48,193.51c-5.23-4.82-13.67-4.81-18.52,0.61c-1.9,2.12-1.39,6.18,1.8,6.82c6.5,1.31,12.66,0.56,18.7-2.15
	c-1.37-2.35-2.75-4.7-4.12-7.05c-3.57,2.73-7.43,4.11-11.93,4c-5.26-0.12-5.26,8.04,0,8.17c5.79,0.14,11.45-1.59,16.05-5.12
	c4.16-3.19,0.74-9.23-4.12-7.05c-3.9,1.75-8.23,2.17-12.41,1.33c0.6,2.27,1.2,4.55,1.8,6.82c1.81-2.01,4.87-2.55,6.97-0.61
	C521.56,202.84,527.35,197.08,523.48,193.51L523.48,193.51z"/>
<path d="M105.32,197.38c8.57,1.07,16.93,3.1,25.1,5.88c0.36-2.67,0.72-5.35,1.09-8.02c-7.66-0.36-15.05-1.64-22.4-3.81
	c-0.36,2.67-0.72,5.35-1.09,8.02c6.09,0.55,12.19,1.1,18.28,1.65c4.58,0.41,5.55-7.04,1.09-8.02c-7.74-1.71-15.12-4.22-22.24-7.72
	c-1.05,2.49-2.1,4.98-3.15,7.46c2.33,0.39,4.66,0.78,6.99,1.16c5.14,0.86,7.35-7.01,2.17-7.87c-2.33-0.39-4.66-0.78-6.99-1.16
	c-4.19-0.7-7.64,5.25-3.15,7.46c7.74,3.81,15.76,6.69,24.19,8.54c0.36-2.67,0.72-5.35,1.09-8.02c-6.09-0.55-12.19-1.1-18.28-1.65
	c-4.7-0.43-5.37,6.76-1.09,8.02c8.04,2.37,16.21,3.71,24.57,4.1c4.79,0.22,5.28-6.6,1.09-8.02c-8.9-3.03-17.95-5-27.27-6.17
	C100.12,188.56,100.16,196.73,105.32,197.38L105.32,197.38z"/>
</svg>
