<?xml version="1.0" encoding="utf-8"?>
<!-- Generator: Adobe Illustrator 28.2.0, SVG Export Plug-In . SVG Version: 6.00 Build 0)  -->
<svg version="1.1" id="Layer_1" xmlns="http://www.w3.org/2000/svg" xmlns:xlink="http://www.w3.org/1999/xlink" x="0px" y="0px"
	 viewBox="0 0 640 480" style="enable-background:new 0 0 640 480;" xml:space="preserve">
<style type="text/css">
	.st0{fill:#FFFFFF;}
</style>
<path class="st0" d="M478.38,246.41c-13.24,16.95-19.01,38.89-13.3,60c4.77,17.61,22,29.69,37.49,14.33
	c7.57-7.51,10.35-19.19,12.63-29.25c2.36-10.39,3.7-22.03-1.12-31.96c-6.81-14.04-26.76-20.99-38.42-8.7
	c-4.89,5.16,2.91,12.99,7.81,7.81c11.14-11.75,22.83,6.6,22.82,16.88c-0.01,10.9-3.45,29.29-11.6,37.05
	c-14.66,13.96-20.7-12.22-20.74-22.81c-0.06-12.92,4.29-25.37,12.23-35.54C490.52,248.68,482.76,240.81,478.38,246.41L478.38,246.41
	z"/>
<path class="st0" d="M340.21,350.47c-10.93-11.48-30.25-2.29-28.75,13.3c1.49,15.56,20.66,25.65,34.16,17.33
	c11.87-7.31,12.53-27.48-0.3-34.17c-12.45-6.49-29.88,6-25.64,20.02c4.3,14.21,26.54,13.8,31.09,0.2c0.84-2.51-0.63-4.81-2.54-6.24
	c-5.82-4.34-17.17-7.44-19.76,2.26c-1.65,6.16,3.27,13.57,10.09,11.26c6.7-2.27,3.82-12.94-2.94-10.66c2.7,0.59,4,2.09,3.91,4.52
	c1.09,0.65,2.13,1.37,3.12,2.16c-0.85-2.08-1.69-4.16-2.54-6.24c-1.5,4.49-11.13,2.4-9.9-2.73c0.75-3.11,4.93-5.48,7.96-5.25
	c3.84,0.29,5.57,4,5.57,7.47c-0.02,9.24-10.17,11.63-16.76,6.69c-3.27-2.45-6.58-8.42-3.47-12.15c2.26-2.71,6.64-2.31,8.88,0.04
	C337.3,363.44,345.11,355.62,340.21,350.47L340.21,350.47z"/>
<g>
	<path d="M315.76,114.67c-20.65-2.18-40.33-5.86-51.07-8.13c-26.62-5.64-39.7-41.52-55-60.48
		c-36.1,90.66-126.54,177.02-109.42,281.62c25.9,158.23,261.47,171.08,363.45,82.6c36.25-31.72,55.13-76.45,53.36-124.51
		c-1.83-49.8-23.41-92.62-49.29-133.94c-3.06-4.88-6.12-9.77-8.86-14.84c-4.44-8.22-8.44-17.07-12.16-26.01
		c-3.61-8.69-6.95-17.47-10.16-25.84c-1.95-5.1-10.44-30.15-5.75-34.57c-16.65,15.68-29.4,45.55-46.63,58.22
		C371.98,117.82,343.02,117.55,315.76,114.67z"/>
</g>
<path d="M259.05,104.45c-4.92-1.21-6.66-5.74-7.57-10.31c-0.49-2.46-0.74-5.02-0.74-7.53c0-0.96,0.01-1.89,0.12-2.85
	c0.21-1.97,1.53-5.06,4.23-4.63c2.47,0.39,5.83,5.48,7.85,7c2.94,2.21,6.33,3.5,10.06,2.78c8.76-1.69,12.18-10.64,12.87-18.51
	c1.08-12.42,1.73-24.25,5.55-36.26c0.91-2.86,1.78-5.92,3.28-8.54c2.46-4.29,5.73-3.55,8.97-0.81c3.13,2.65,4.91,5.3,9,6.85
	c8.33,3.16,15.37,0.22,22.04-4.85c14.53-11.06,22.99,5.98,23.5,18.86c0.41,10.29-1.57,22.42,4.29,31.61
	c2.18,3.42,5.76,6.51,9.9,7.01c1.93,0.23,3.4-0.32,5.2-0.83c2.43-0.68,1.79-0.98,3.03,0.39c0.98,1.08,0.82,4.43,0.83,5.74
	c0.15,12.23-7.72,23.92-19.03,28.47c-4.01,1.61-2.26,8.19,1.81,6.56c9.9-3.98,17.56-11.49,21.46-21.48
	c2.64-6.75,5.87-23.58-3.35-27.29c-2.21-0.89-3.26-0.2-5.35,0.28c-5.69,1.31-8.45-0.42-10.39-6.16c-2.72-8.06-1.22-17.07-1.66-25.42
	c-0.57-11.04-4.35-23.17-15.76-27.3c-4.54-1.65-9.36-1.49-13.67,0.78c-6.22,3.27-10.18,9.39-18.07,7.9
	c-7.24-1.37-7.97-7.88-13.6-10.9c-4.11-2.2-8.58-0.49-11.67,2.58c-8.6,8.53-10.69,25.34-12.06,36.74
	c-0.82,6.82,0.27,14.98-2.09,21.48c-1.79,4.93-6.57,8.19-11.3,4.66c-2.33-1.74-4.07-4.16-6.4-5.92
	c-8.91-6.72-16.02,1.14-16.39,10.43c-0.39,9.93,2.17,23.3,13.3,26.03C261.49,112.05,263.31,105.49,259.05,104.45L259.05,104.45z"/>
<path d="M277.66,87.01c16.35,2.48,32.83,3.92,49.37,4.01c13.33,0.07,30.59,1.62,41.89-6.85c3.46-2.6,0.07-8.5-3.43-5.87
	c-10.73,8.05-28.37,6.07-41.09,5.9c-15.05-0.21-30.05-1.48-44.94-3.74C275.19,79.81,273.34,86.36,277.66,87.01L277.66,87.01z"/>
<path d="M281.9,64.84c25.94,8.99,53.56,10.56,80.38,4.81c4.28-0.92,2.47-7.47-1.81-6.56c-25.68,5.51-51.97,3.78-76.77-4.81
	C279.56,56.85,277.78,63.42,281.9,64.84L281.9,64.84z"/>
<path d="M288.01,62.5c-1.94,5.04-3.48,10.12-4.66,15.39c-0.73,3.26,3.18,5.75,5.68,3.31c3.02-2.95,6.04-5.91,9.07-8.86
	c-1.6-1.6-3.21-3.21-4.81-4.81c-3.52,3.99-5.26,8.21-5.5,13.52c-0.13,2.84,3.89,4.63,5.8,2.4c3.1-3.6,6.19-7.2,9.29-10.8
	c-1.89-0.5-3.79-1-5.68-1.5c0.85,2.91,0.83,5.69-0.05,8.59c-1,3.3,3.32,5.65,5.68,3.31c3.4-3.36,6.16-6.94,8.54-11.09
	c-2.11-0.57-4.22-1.14-6.34-1.72c-0.36,3.35-0.72,6.7-1.07,10.05c-0.34,3.2,3.81,4.12,5.8,2.4c2.64-2.27,5.27-4.53,7.91-6.8
	c-1.93-0.8-3.87-1.6-5.8-2.4c-0.28,3.35-0.56,6.71-0.84,10.06c-0.27,3.24,3.76,4.07,5.8,2.4c3.38-2.76,6.31-5.76,8.99-9.21
	c-1.78-1.37-3.56-2.75-5.34-4.12c-1.54,3.56-2.45,6.92-2.92,10.78c-0.32,2.62,3.11,4.17,5.12,2.94c3.75-2.29,7-4.93,9.98-8.17
	c-1.93-0.8-3.87-1.6-5.8-2.4c-0.31,3.08-0.96,5.5-2.02,8.35c-1.2,3.24,3.44,5.67,5.68,3.31c3.38-3.55,6.75-7.1,10.13-10.65
	c-1.89-1.1-3.79-2.21-5.68-3.31c-0.53,3.14-1.05,6.29-1.58,9.44c-0.43,2.55,2.35,5.81,5,3.84c2.51-1.86,5.01-3.72,7.52-5.58
	c-1.71-0.98-3.41-1.96-5.12-2.94c-0.27,2.66,0.24,4.56,1.36,6.95c0.91,1.93,3.97,2.22,5.34,0.69c3.45-3.84,6.39-7.88,8.95-12.37
	c-2.11-0.57-4.22-1.14-6.34-1.72c-0.06,1.83-0.11,3.66-0.17,5.48c-0.12,3.77,5.92,4.71,6.68,0.9c0.67-1.28,1.34-2.56,2.02-3.84
	c-1.89-0.5-3.79-1-5.68-1.5c0.7,4.29,1.41,8.57,2.11,12.86c0.45,2.75,3.94,2.97,5.68,1.5c2.83-2.39,3.9-4.98,3.84-8.67
	c-0.04-2.41-2.13-3.61-4.3-3.28c-4.23,0.65-8.46,1.3-12.7,1.95c1.39,1.39,2.79,2.79,4.18,4.18c0.68-3.36,0.98-6.57,0.84-10
	c-0.08-2-2.14-4.12-4.3-3.28c-3.96,1.54-6.31,3.89-7.66,7.92c-0.91,2.72,1.83,4.54,4.18,4.18c2.7-0.41,5.41-0.81,8.11-1.22
	c2.41-0.36,3.41-4.18,1.5-5.68c-6.39-5.03-13.39-4-20.84-1.94c-12.18,3.37-23.81,4.37-36.25,1.62c-4.26-0.94-6.09,5.61-1.81,6.56
	c8.78,1.94,17.64,2.55,26.58,1.36c7.38-0.98,20.95-7.94,27.5-2.79c0.5-1.89,1-3.79,1.5-5.68c-2.7,0.41-5.41,0.81-8.11,1.22
	c1.39,1.39,2.79,2.79,4.18,4.18c0.97-1.06,1.94-2.12,2.91-3.17c-1.43-1.09-2.87-2.19-4.3-3.28c0.12,2.92-0.01,5.27-0.6,8.19
	c-0.55,2.72,1.56,4.59,4.18,4.18c4.23-0.65,8.46-1.3,12.7-1.95c-1.43-1.09-2.87-2.19-4.3-3.28c-0.62,1.29-1.23,2.58-1.85,3.86
	c1.89,0.5,3.79,1,5.68,1.5c-0.7-4.29-1.41-8.57-2.11-12.86c-0.43-2.62-4.01-3.14-5.68-1.5c-2.13,2.08-3.19,3.93-3.76,6.84
	c2.23,0.3,4.45,0.6,6.68,0.9c0.06-1.83,0.11-3.66,0.17-5.48c0.11-3.39-4.69-4.6-6.34-1.72c-2.27,3.99-4.82,7.58-7.89,11
	c1.78,0.23,3.56,0.46,5.34,0.69c-0.14-1.17-0.29-2.34-0.43-3.52c0.25-2.44-3.13-4.41-5.12-2.94c-2.51,1.86-5.01,3.72-7.52,5.58
	c1.67,1.28,3.33,2.56,5,3.84c0.53-3.14,1.05-6.29,1.58-9.44c0.52-3.11-3.14-5.98-5.68-3.31c-3.38,3.55-6.75,7.1-10.13,10.65
	c1.89,1.1,3.79,2.21,5.68,3.31c1.25-3.36,1.91-6.61,2.26-10.15c0.29-2.95-3.91-4.46-5.8-2.4c-2.59,2.82-5.33,5.1-8.6,7.1
	c1.71,0.98,3.41,1.96,5.12,2.94c0.24-2.56,0.91-5.01,2-7.34c1.37-3.17-2.75-7.47-5.34-4.12c-2.67,3.45-5.6,6.45-8.99,9.21
	c1.93,0.8,3.87,1.6,5.8,2.4c0.28-3.35,0.56-6.71,0.84-10.06c0.27-3.19-3.77-4.15-5.8-2.4c-2.64,2.27-5.27,4.53-7.91,6.8
	c1.93,0.8,3.87,1.6,5.8,2.4c0.36-3.35,0.72-6.7,1.07-10.05c0.37-3.47-4.76-4.47-6.34-1.72c-2.08,3.63-4.5,6.78-7.48,9.72
	c1.89,1.1,3.79,2.21,5.68,3.31c1.29-4.26,1.3-7.93,0.05-12.21c-0.67-2.31-3.96-3.51-5.68-1.5c-3.1,3.6-6.19,7.2-9.29,10.8
	c1.93,0.8,3.87,1.6,5.8,2.4c0.16-3.51,1.18-6.08,3.51-8.71c2.88-3.26-1.65-7.9-4.81-4.81c-3.02,2.95-6.04,5.91-9.07,8.86
	c1.89,1.1,3.79,2.21,5.68,3.31c1.18-5.27,2.72-10.35,4.66-15.39C296.14,60.22,289.57,58.45,288.01,62.5L288.01,62.5z"/>
<path class="st0" d="M413.1,200.71c-15.06-3.94-26.17,11.37-27.26,24.87c-1.15,14.23,9.72,29,25.03,27.48
	c14.75-1.47,22.83-16.77,20.5-30.4c-2.27-13.31-15.46-26.49-29.16-17.93c-3.7,2.31-0.29,8.2,3.43,5.87
	c18.64-11.65,29.77,35.4,3.35,35.79c-24.64,0.36-18.88-44.67,2.3-39.12C415.53,208.38,417.33,201.82,413.1,200.71L413.1,200.71z"/>
<path class="st0" d="M407.73,222.64c-5.54,3.23-2.88,13.46,3.85,12.6c1.58-0.2,2.77-0.93,3.28-2.5c1.59-4.84,0.33-9.91-2.95-13.72
	c-1.46-1.7-4.28-1.07-5.34,0.69c-1.01,1.67-2.02,3.35-3.03,5.02c-2.27,3.76,3.61,7.18,5.87,3.43c1.01-1.67,2.02-3.35,3.03-5.02
	c-1.78,0.23-3.56,0.46-5.34,0.69c1.74,2.02,2.01,4.64,1.2,7.11c1.09-0.83,2.19-1.66,3.28-2.5c-1.15,0.15-0.11,0-0.12,0.12
	c-0.04,0.38,0.13-0.57-0.02-0.21c0.35-0.87-0.19,0.11-0.27,0.16C414.95,226.3,411.53,220.42,407.73,222.64L407.73,222.64z"/>
<path class="st0" d="M221.05,200.71c-15.06-3.94-26.17,11.37-27.26,24.87c-1.15,14.23,9.72,29,25.03,27.48
	c14.75-1.47,22.83-16.77,20.5-30.4c-2.27-13.31-15.46-26.49-29.16-17.93c-3.7,2.31-0.29,8.2,3.43,5.87
	c18.64-11.65,29.77,35.4,3.35,35.79c-24.64,0.36-18.88-44.67,2.3-39.12C223.48,208.38,225.29,201.82,221.05,200.71L221.05,200.71z"
	/>
<path class="st0" d="M215.69,222.64c-5.54,3.23-2.88,13.46,3.84,12.6c1.58-0.2,2.77-0.93,3.28-2.5c1.59-4.84,0.33-9.91-2.95-13.72
	c-1.46-1.7-4.28-1.07-5.34,0.69c-1.01,1.67-2.02,3.35-3.03,5.02c-2.27,3.76,3.61,7.18,5.87,3.43c1.01-1.67,2.02-3.35,3.03-5.02
	c-1.78,0.23-3.56,0.46-5.34,0.69c1.74,2.02,2.01,4.64,1.2,7.11c1.09-0.83,2.19-1.66,3.28-2.5c-1.15,0.15-0.11,0-0.12,0.12
	c-0.04,0.38,0.13-0.57-0.02-0.21c0.35-0.87-0.19,0.11-0.27,0.16C222.9,226.3,219.48,220.42,215.69,222.64L215.69,222.64z"/>
<path class="st0" d="M281.07,120.84c-1.83,9.16-2.57,18.41-1.72,27.73c0.49,5.38,0.6,13.45,5.27,17.16
	c11.27,8.96,18.72-14.89,19.37-22.04c0.83-9.1-2.74-24.13-14.58-23.81c-6.29,0.17-7.27,5.64-7.49,10.76
	c-0.4,9.22,0.93,18.55,3.11,27.49c0.77,3.14,5.92,3.34,6.56,0c1.96-10.22,2.56-20.43,1.69-30.81c-0.36-4.3-7-4.42-6.8,0
	c0.41,9.03,0.23,18.02-0.56,27.02c-0.38,4.36,6.42,4.33,6.8,0c0.78-9.01,0.97-17.99,0.56-27.02c-2.27,0-4.53,0-6.8,0
	c0.83,9.77,0.4,19.37-1.44,29.01c2.19,0,4.37,0,6.56,0c-1.09-4.45-1.98-8.93-2.44-13.49c-0.34-3.39-1.79-10.25-0.39-13.4
	c2.42-5.46,6.62,1.19,7.59,4.23c1.03,3.22,1.17,6.7,0.83,10.04c-0.42,4.09-1.52,8.42-3.6,11.99c-1.23,2.11-2.18,4.46-4.56,3.26
	c-2.01-1.01-1.85-2.88-2.2-4.9c-1.77-10.39-1.26-21.1,0.79-31.39C288.48,118.38,281.92,116.55,281.07,120.84L281.07,120.84z"/>
<path class="st0" d="M298.32,130.29c0.26-0.65,0.51-1.31,0.77-1.96c-1.37,0.18-2.75,0.35-4.12,0.53c1.46,0.96,2.58,2.23,3.36,3.79
	c2.29,3.82,7.69,0.48,5.87-3.43c-1.27-2.74-3.01-4.52-5.63-6.02c-0.27,2.07-0.54,4.14-0.81,6.22c0.12-0.02-3.9,12.78-4.46,14.25
	c-1.92,5.04-3.84,10.09-5.76,15.13c-1.56,4.09,5.01,5.87,6.56,1.81c1.92-5.04,3.84-10.09,5.76-15.13c1.68-4.42,4.6-9.64,4.97-14.39
	c0.42-5.42-3.51-9.34-8.87-8.22c-2.91,0.61-3.25,4.82-0.81,6.22c1.63,0.76,2.7,1.95,3.19,3.58c1.96-1.14,3.91-2.29,5.87-3.43
	c-1.55-2.58-3.37-4.46-5.8-6.23c-1.17-0.86-3.16-0.48-4.12,0.53c-2.45,2.6-3.05,5.11-2.52,8.58
	C292.42,136.41,298.98,134.58,298.32,130.29L298.32,130.29z"/>
<path class="st0" d="M324.28,129.89c-0.45,7.52-0.43,15.03,0.27,22.54c0.47,5.1,0.61,11.39,2.69,16.13
	c3.39,7.76,12.81,5.74,16.16-0.88c2.52-5,2.9-11.41,3.96-16.85c1.08-5.51,2.68-11.48,1.28-17.08c-1.88-7.47-10.33-12.62-17.3-8.15
	c-1.27,0.82-1.98,2.35-1.56,3.84c3.05,11.03,3.34,22.01,0.8,33.17c-0.97,4.25,5.49,6.07,6.56,1.81c2.57-10.27,4.5-20.63,5.89-31.12
	c-2.27,0-4.53,0-6.8,0c0.6,7.71,0.06,15.16-1.77,22.68c-1.03,4.25,5.53,6.07,6.56,1.81c1.96-8.09,2.66-16.18,2.01-24.49
	c-0.35-4.46-6.23-4.27-6.8,0c-1.31,9.89-3.22,19.65-5.65,29.32c2.19,0.6,4.37,1.21,6.56,1.81c2.81-12.31,2.57-24.61-0.8-36.79
	c-0.52,1.28-1.04,2.56-1.56,3.84c9.05-5.8,7.06,12.26,6.26,16.36c-0.65,3.35-0.95,13.21-3.27,15.79c-4.96,5.53-4.99-0.57-5.37-2.89
	c-0.67-4.07-1.09-8.17-1.36-12.29c-0.4-6.19-0.32-12.38,0.05-18.57C331.35,125.52,324.54,125.53,324.28,129.89L324.28,129.89z"/>
<path class="st0" d="M329.62,135.31c0.27,5.38-0.61,10.42-2.61,15.42c-1.63,4.06,4.95,5.83,6.56,1.81
	c2.21-5.5,3.15-11.31,2.85-17.22C336.21,130.96,329.4,130.93,329.62,135.31L329.62,135.31z"/>
<path class="st0" d="M505.82,261.09c-11.81,1.43-23.07,5.35-32.8,12.3c-6.22,4.44-16.85,12.56-7.29,19.4
	c9.21,6.59,22.98,7.86,33.65,4.82c3.76-1.07,6.92-2.51,7.82-6.58c1.43-6.45-0.61-14.73-1.06-21.27c-0.16-2.34-2.85-4.54-5.12-2.94
	c-8.48,6.02-16.95,12.03-25.43,18.05c-2.89,2.05-1.25,7.71,2.62,6.22c7.4-2.86,14-6.65,20.21-11.58c2.99-2.37-1-7.62-4.12-5.34
	c-3.79,2.78-7.09,5.77-10.09,9.42c-0.87,1.05-1.49,2.87-0.53,4.12c1.03,1.34,1.69,2.12,3.32,2.74c0.56,0.21,5.24,0.85,5.25,0.29
	c0.56-0.98,1.12-1.96,1.68-2.94c-0.28,0.17-0.56,0.35-0.85,0.52c1.67,1.28,3.33,2.56,5,3.84c0.5-2.18,1.69-3.93,3.56-5.23
	c-1.37-1.78-2.75-3.56-4.12-5.34c-1.28,1.19-15.39,12.36-14.65,5.2c0.46-4.39,10.65-8.48,13.95-9.68c4.05-1.49,2.5-7.67-1.81-6.56
	c-10.33,2.67-19.4,7.8-27.04,15.24c-2.66,2.58,0.19,6.15,3.31,5.68c7.81-1.18,14.48-4.52,20.31-9.82c3.24-2.95-1.58-7.75-4.81-4.81
	c-5,4.55-10.65,7.07-17.31,8.07c1.1,1.89,2.21,3.79,3.31,5.68c6.85-6.66,14.8-11.1,24.04-13.49c-0.6-2.19-1.21-4.37-1.81-6.56
	c-7.44,2.73-23.58,11.11-19.06,21.62c4.81,11.2,21.4-1.15,26.37-5.77c2.76-2.57-1-7.7-4.12-5.34c-3.35,2.53-5.42,5.26-6.69,9.3
	c-0.89,2.82,2.51,5.38,5,3.84c2.76-1.71,3.3-4.53,1.46-7.26c-0.72-1.07-1.89-1.99-3.09-2.46c-0.71-0.28-5.26-0.11-5.33-0.2
	c-0.18,1.37-0.35,2.75-0.53,4.12c2.61-3.18,5.38-5.92,8.71-8.36c-1.37-1.78-2.75-3.56-4.12-5.34c-5.24,4.16-10.97,7.42-17.21,9.83
	c0.87,2.07,1.75,4.14,2.62,6.22c8.48-6.02,16.95-12.03,25.43-18.05c-1.71-0.98-3.41-1.96-5.12-2.94c0.3,4.28,0.59,8.56,0.89,12.85
	c0.3,4.34,1.25,7.53-3.74,8.71c-7.28,1.72-18.24,1.79-24.66-2.83c-4.06-2.93-0.75-5,2.39-7.51c2.72-2.17,5.61-4.09,8.65-5.77
	c7.1-3.92,14.91-6.34,22.95-7.32C510.11,267.37,510.16,260.56,505.82,261.09L505.82,261.09z"/>
<path class="st0" d="M498.39,315.54c-0.87-6.31-16.74-4.32-20.66-3.21c-5.85,1.67-13.36,5.62-15.04,11.99
	c-1.78,6.76,4,12.73,8.74,16.69c6.07,5.07,13.25,8.22,21.03,9.48c1.46,0.24,3.08-0.15,3.84-1.56c5.22-9.69,7.65-20.02,7.16-31.02
	c-0.12-2.67-3.81-4.83-5.8-2.4c-3.94,4.8-7.88,9.59-11.83,14.39c1.89,1.1,3.79,2.21,5.68,3.31c1.27-3.46,2.54-6.92,3.82-10.38
	c1.08-2.94-2.58-5.15-5-3.84c-4.4,2.38-8.8,4.76-13.21,7.14c1.37,1.78,2.75,3.56,4.12,5.34c2.11-2.3,3.46-4.63,4.37-7.63
	c0.94-3.12-2.46-4.95-5-3.84c-2.13,0.91-4.14,0.85-6.01-0.18c-1.67-0.66-3.79,0.73-4.18,2.37c-1.09,4.56-2,9.62,0.75,13.81
	c3.18,4.85,6.95,3.24,11.67,4.33c3.87,0.89,6.75,3.79,10.35,0.2c3.78-3.77,2.57-11.5,2-16.1c-0.22-1.81-1.38-3.43-3.4-3.4
	c-3.65,0.05-6.1,2.42-6.54,6.1c-0.21,1.71,0.13,3.39,0.91,4.93c0.37,0.72,0.99,1.4,1.49,2.04c0.55,0.63,1.12,1.25,1.7,1.85
	c1.1,1.49,2.72,1.49,4.86-0.01c0.56,0.98,1.12,1.96,1.68,2.94c0.02-0.22,0.03-0.44,0.05-0.67c0.32-4.37-6.49-4.35-6.8,0
	c-0.27,3.73,4.34,6.01,7.17,3.43c1.55-1.42,1.7-3.81,1.14-5.68c-0.45-1.51-4.9-8.15-5.67-8.14c-1.13-1.13-2.27-2.27-3.4-3.4
	c0.31,2.51,0.58,5.03,0.47,7.56c-0.22,5.03-0.09,2.74-2.79,1.67c-1.28-0.51-2.7-0.21-3.93-0.54c-7.12-1.89-6.38-4.07-5.17-9.12
	c-1.39,0.79-2.79,1.58-4.18,2.37c4,1.57,7.39,1.18,11.25-0.5c-1.67-1.28-3.33-2.56-5-3.84c-0.38,1.82-1.26,3.36-2.62,4.63
	c-2.61,2.84,0.67,7.21,4.12,5.34c4.4-2.38,8.8-4.76,13.21-7.14c-1.66-1.28-3.33-2.56-5-3.84c-1.27,3.46-2.54,6.92-3.82,10.38
	c-1.15,3.12,3.55,5.9,5.68,3.31c3.94-4.8,7.88-9.59,11.83-14.39c-1.93-0.8-3.87-1.6-5.8-2.4c0.44,9.82-1.56,18.92-6.23,27.59
	c1.28-0.52,2.56-1.04,3.84-1.56c-6.94-1.13-13.47-3.74-18.83-8.39c-4.06-3.53-8.35-9.66-2.27-13.73c2.94-1.97,6.31-3.14,9.79-3.59
	c3.53-0.46,6.96-0.14,10.36,0.94c2.32,0.73,4.49,2.13,7.04,1.7c3.75-0.62,5.04-3.78,4.57-7.13
	C504.35,309.42,497.8,311.26,498.39,315.54L498.39,315.54z"/>
<path class="st0" d="M108.03,275.4c-0.46,9.17-0.87,18.9,0.6,28c0.85,5.27,3.1,8.27,8.8,7.74c7.66-0.72,15.66-3.63,22.68-6.64
	c5.95-2.56,12.62-6.4,14.9-12.89c4.74-13.43-12.14-17.83-21.82-18.45c-5.41-0.35-13.33-0.67-17.31,3.84
	c-4.6,5.21-2.02,15.93-1.83,22.25c0.07,2.33,2.93,4.56,5.12,2.94c5.9-4.4,10.82-9.4,15.09-15.39c2.22-3.11-2.96-7.17-5.34-4.12
	c-2.87,3.67-4.71,7.33-5.46,11.98c-0.54,3.34,3,5.65,5.68,3.31c4.19-3.65,8.71-6.25,13.98-8.04c-1.28-1.66-2.56-3.33-3.84-5
	c-2.9,4.03-5.8,8.05-8.7,12.08c-2.04,2.83,1.89,6.33,4.65,4.65c5.3-3.23,17.91-7.6,14.03-16.05c-3-6.52-12.34-8-18.6-7.08
	c-6.92,1.01-14.31,5.26-17.4,11.81c-4,8.48,6.18,10.4,12.13,12.73c4.08,1.6,5.84-4.98,1.81-6.56c-3.45-1.35-8.9-2.04-5.63-6.19
	c2.27-2.88,6.51-4.53,10.01-5.05c2.82-0.42,9.06-0.64,10.02,2.75c0.71,2.53-1.47,2.7-3.54,3.96c-2.08,1.27-4.17,2.54-6.25,3.81
	c1.55,1.55,3.1,3.1,4.65,4.65c2.9-4.03,5.8-8.05,8.7-12.08c1.72-2.39-1.14-5.91-3.84-5c-6.38,2.17-11.9,5.36-16.98,9.79
	c1.89,1.1,3.79,2.21,5.68,3.31c0.55-3.38,1.56-6.23,3.71-8.97c-1.78-1.37-3.56-2.75-5.34-4.12c-3.57,5-7.73,9.27-12.65,12.95
	c1.71,0.98,3.41,1.96,5.12,2.94c-0.13-4.35-0.72-8.96-0.4-13.29c0.31-4.05,0.92-5.34,4.8-5.92c2.16-0.32,4.64-0.25,6.81-0.15
	c4.14,0.19,8.91,0.61,12.65,2.57c7.13,3.72,2.73,10.19-2.28,13.34c-3.6,2.26-7.77,3.73-11.78,5.07c-2.46,0.82-13.07,5.09-15.13,3.18
	c-1.62-1.51-0.86-11.05-0.93-13.34c-0.14-5.1-0.04-10.19,0.22-15.29C115.05,271.03,108.25,271.04,108.03,275.4L108.03,275.4z"/>
<path class="st0" d="M116.29,337.05c7.27-1.99,13.44-6.73,20.66-8.68c8-2.15,19.48,1.89,13.19,12.05
	c-4.17,6.74-12.14,11.8-18.71,15.94c-1.02,0.64-3.66,3.02-4.95,2.95c-2.5-0.12-2.05-1.3-3.01-2.93c-0.87-1.49-1.41-3.27-2.08-4.87
	c-0.48-1.15-0.96-2.31-1.44-3.46c-1.53-2.74-0.8-5.24,2.17-7.51c-0.79-1.39-1.58-2.79-2.37-4.18c-1.85,5.15-2.41,9.94-1.77,15.37
	c0.39,3.26,4.39,4.75,6.34,1.72c3.72-5.77,7.43-11.54,11.15-17.32c-1.96-1.14-3.91-2.29-5.87-3.43c-2.2,5.11-4.41,10.22-6.61,15.33
	c-1.41,3.26,2.48,7.2,5.34,4.12c5.18-5.57,10.36-11.14,15.54-16.71c-1.78-1.37-3.56-2.75-5.34-4.12
	c-3.53,6.87-7.61,13.33-12.31,19.46c-2.4,3.14,2.66,6.72,5.34,4.12c5.85-5.67,11.7-11.33,17.55-17c-1.89-1.1-3.79-2.21-5.68-3.31
	c-1.44,3.77-3.49,6.55-6.46,9.27c1.78,1.37,3.56,2.75,5.34,4.12c1.7-3.02,3.68-5.74,6.3-8.04c1.69-1.48,3.83-2.35,4.86-4.39
	c1.53-3.04,0.4-6.57-2.35-8.48c-8.13-5.65-19.61,5.1-25.05,10.32c-4.96,4.76-13.38,16.11-3,20.51
	c11.62,4.93,15.06-10.43,23.22-13.58c4.04-1.56,2.28-8.14-1.81-6.56c-3.98,1.54-6.45,3.87-9.08,7.23c-1.08,1.37-4.87,7.52-7.3,6.6
	c-5.89-2.24,2.17-8.83,3.53-10.11c2.31-2.17,4.68-4.33,7.38-6.02c1.49-0.96,3.05-1.77,4.7-2.43c3.21-0.9,4.03-0.84,2.45,0.19
	c-0.27,1.19-4.88,4.39-5.86,5.57c-1.49,1.8-2.72,3.74-3.86,5.77c-1.93,3.42,2.5,6.71,5.34,4.12c3.83-3.5,6.36-7.43,8.21-12.27
	c1.27-3.32-3.41-5.51-5.68-3.31c-5.85,5.67-11.7,11.33-17.55,17c1.78,1.37,3.56,2.75,5.34,4.12c4.7-6.14,8.78-12.59,12.31-19.46
	c1.69-3.3-2.59-7.08-5.34-4.12c-5.18,5.57-10.36,11.14-15.54,16.71c1.78,1.37,3.56,2.75,5.34,4.12c2.2-5.11,4.41-10.22,6.61-15.33
	c1.7-3.93-3.44-7.21-5.87-3.43c-3.72,5.77-7.43,11.54-11.15,17.32c2.11,0.57,4.22,1.14,6.34,1.72c-0.57-4.79-0.1-9.04,1.53-13.56
	c0.63-1.74-0.71-3.71-2.37-4.18c-4.59-1.32-8.98,0.86-10.93,5.26c-2.83,6.36,1.68,13.82,4.18,19.6c1.96,4.52,4.59,8.99,10.28,7.47
	c6.82-1.82,13.95-8.31,19.3-12.71c8.45-6.95,18.98-21.58,5.87-29.9c-13.09-8.31-25.83,3.41-38.17,6.79
	C110.26,331.65,112.05,338.21,116.29,337.05L116.29,337.05z"/>
<path class="st0" d="M327.08,287.02c-2.67-6.28-10.2-11.36-16.94-7.77c-6.34,3.37-7.88,11.78-2.25,16.52
	c5.3,4.47,13.28,4.29,19.15,1.12c5.11-2.75,11.43-10.34,8-16.47c-1.66-2.96-5.39-3.87-8.41-4.63c-4.6-1.16-9.6-1.78-14.11,0.07
	c-5.95,2.43-10.21,9.4-7.22,15.61c5.59,11.64,33.17,4.79,24.87-7.25c-3.62-5.26-16.91-6.97-19.61,0.11
	c-1.23,3.23,0.49,6.88,3.27,8.69c4.12,2.69,8.87,0.77,12.84-1.23c1.55-0.78,2.22-3.21,1.22-4.65c-2.48-3.56-7.45-3.8-9.74,0.16
	c-2.2,3.79,3.68,7.22,5.87,3.43c-0.67-0.05-1.34-0.11-2.01-0.16c0.41-1.55,0.81-3.1,1.22-4.65c-1.2,0.68-2.46,1.2-3.8,1.57
	c-2.76-0.55-2.96-0.81-0.6-0.76c1.1-0.08,5.06-0.1,5.51,0.99c1.02,2.46-6.07,3.09-7.54,3.08c-3.43-0.04-7.05-1.65-5.12-5.72
	c2.14-4.51,8.43-3.79,12.28-2.95c0.78,0.17,4.26,0.6,4.77,1.42c0.99,1.59-1.03,4.1-2.02,5.14c-2.13,2.23-5.19,3.61-8.27,3.73
	c-3.26,0.12-10.24-2.48-6.14-6.43c3.54-3.42,7.59,1.37,8.9,4.46C322.91,294.47,328.77,291.01,327.08,287.02L327.08,287.02z"/>
<path class="st0" d="M310.44,297.91c5.18,8.03,6.07,18.09,0.76,26.34c-2.28,3.55-5.45,6.46-9.19,8.41
	c-4.06,2.12-16.76,4.67-15.24-4.37c0.72-4.28-5.83-6.12-6.56-1.81c-1.01,5.99,1.67,11.49,7.41,13.96
	c7.08,3.06,15.53,0.08,21.41-4.19c13.44-9.76,16.14-28.04,7.27-41.78C313.95,290.81,308.06,294.22,310.44,297.91L310.44,297.91z"/>
<path class="st0" d="M316.61,301.67c0.41,10.26,1.78,23.43,11.7,29.14c10.98,6.32,22.99-1.05,29.65-10.02
	c2.61-3.52-3.29-6.91-5.87-3.43c-5.27,7.1-16.18,13.22-23.39,5c-4.69-5.35-5.02-13.97-5.29-20.68
	C323.24,297.31,316.43,297.29,316.61,301.67L316.61,301.67z"/>
<path class="st0" d="M378.66,290.44c12.2-3.47,24.35-3.39,36.51,0.24c4.2,1.25,6-5.31,1.81-6.56c-13.24-3.94-26.84-4.02-40.12-0.24
	C372.65,285.08,374.43,291.64,378.66,290.44L378.66,290.44z"/>
<path class="st0" d="M387.08,305.53c5.02,2.19,10.04,4.38,15.06,6.57c3.97,1.73,7.44-4.13,3.43-5.87
	c-5.02-2.19-10.04-4.38-15.06-6.57C386.54,297.93,383.07,303.79,387.08,305.53L387.08,305.53z"/>
<path class="st0" d="M277.03,283.61c-8.73-2.57-17.5-3.06-26.49-1.75c-4.31,0.63-2.48,7.18,1.81,6.56
	c7.74-1.13,15.39-0.45,22.88,1.75C279.43,291.41,281.23,284.85,277.03,283.61L277.03,283.61z"/>
<path class="st0" d="M270.32,293.35c-8.21,3.98-16.42,7.96-24.63,11.94c-3.94,1.91-0.49,7.78,3.43,5.87
	c8.21-3.98,16.42-7.96,24.63-11.94C277.69,297.31,274.25,291.44,270.32,293.35L270.32,293.35z"/>
</svg>
