<?xml version="1.0" encoding="utf-8"?>
<!-- Generator: Adobe Illustrator 28.2.0, SVG Export Plug-In . SVG Version: 6.00 Build 0)  -->
<svg version="1.1" id="Layer_1" xmlns="http://www.w3.org/2000/svg" xmlns:xlink="http://www.w3.org/1999/xlink" x="0px" y="0px"
	 viewBox="0 0 640 480" style="enable-background:new 0 0 640 480;" xml:space="preserve">
<style type="text/css">
	.st0{fill:#FFFFFF;}
</style>
<g>
	<g>
		<path d="M439.23,452.45c-15.56,4.54-32.41,7.71-50.5,9.49c-107.11,10.59-238.83-2.83-296.52-97
			c-9.4-15.34-13.44-32.92-16.17-50.33C59.75,210.9,86.95,101.97,150.85,15c12.37,19.95,24.74,39.9,37.1,59.85
			c3.81,6.14,7.96,12.6,14.77,15.95c5.19,2.55,11.27,2.95,17.15,3.29c67.57,3.98,135.15,7.96,202.72,11.94
			c8.16,0.48,17.03,0.8,23.76-3.45c4.9-3.09,7.84-8.11,10.59-12.93c9.35-16.37,18.69-32.73,28.04-49.1
			c63.24,73.86,92.75,171.14,80.16,264.24C554.71,381.96,510.65,431.62,439.23,452.45z"/>
	</g>
	<path class="st0" d="M434.93,208.19c-4.36,10.12,1.72,20.86,12.28,24.92c1.4,0.54,3.32-0.12,4.32-1.04
		c6.8-6.32,12.37-14.58,10.09-23.79c-2-8.07-10.14-14.12-19.34-12.13c-8.33,1.8-14.56,9.11-14.34,16.93
		c0.26,9.25,8.1,16.2,16.97,19.39c1.43,0.52,3.29-0.1,4.32-1.04c8.42-7.68,8.4-20.28-0.1-27.9c-2.28-2.05-6.69-1.26-7.42,1.79
		c-1.26,5.25-1.18,10.27,0.38,15.45c1.52,5.03,10.09,2.89,8.56-2.16c-1.15-3.81-1.31-7.28-0.38-11.14c-2.47,0.6-4.95,1.19-7.42,1.79
		c5.07,4.55,5.14,11.82,0.1,16.42c1.44-0.35,2.88-0.7,4.32-1.04c-5.14-1.85-10.21-6.18-10.45-11.56c-0.19-4.25,3.28-8.43,7.97-9.1
		c5.73-0.82,8.75,4.72,8.51,9.25c-0.27,5.2-4.25,9.56-8.04,13.09c1.44-0.35,2.88-0.7,4.32-1.04c-6.44-2.47-8.47-9.37-6.08-14.93
		C445.58,205.49,437,203.38,434.93,208.19L434.93,208.19z"/>
	<path class="st0" d="M192.8,187.7c-14.09,4.43-6.67,24.01,7.18,22.44c15.31-1.73,23.39-24.65,9.38-32.68
		c-15.66-8.98-31.18,16.21-23.81,27.83c9.54,15.03,31.88,1.39,28.18-13.17c-1.88-7.41-11.06-11.02-18.01-6.44
		c-8.32,5.49-4.67,15.69,3.86,18.71c5.33,1.89,7.64-5.96,2.36-7.83c-5.56-1.97,0.22-6.55,2.59-3.93c0.81,0.89,0.8,2.44,0.71,3.55
		c-0.27,3.2-2.93,6.83-6.54,7.5c-5.98,1.11-7.16-5.62-5.96-9.32c1.12-3.46,4.41-8.49,8.19-9.87c9.18-3.34,6.51,11.08,3.38,14.48
		c-2.07,2.25-5.99,4.63-8.8,2.08c-1.14-1.04-2.59-4.81-0.34-5.52C200.54,193.84,198.23,185.99,192.8,187.7L192.8,187.7z"/>
	<path class="st0" d="M305.94,279.53c-0.75,2.28-1.49,4.55-2.24,6.83c-0.45,1.36,0.03,2.97,1.14,3.95c1.89,1.67,3.79,3.33,5.68,5
		c1.06,0.93,2.87,1.56,4.32,1.04c7.57-2.71,13.64-7.13,18.06-13.39c1.17-1.66,0.49-3.52-0.69-4.92c-5.22-6.18-16.45-6.24-21.83-0.22
		c-5.47,6.14-2.57,16.12,5.09,19.5c8.86,3.9,16.77-10.31,9.99-16.15c-7.31-6.29-17.27,4.77-9.03,10.09
		c4.68,3.02,9.12-4.02,4.48-7.01c1.87,2.2,1.36,3.22-1.51,3.08c-0.05,0.42-0.24,0.78-0.57,1.07c-1.08,0.99-2.1,1.95-3.31,2.84
		c1.44-0.35,2.88-0.7,4.32-1.04c-2.94-0.94-4.67-5.02-2.54-7.35c2.4-2.63,6.71-1.36,8.63,0.92c-0.23-1.64-0.46-3.28-0.69-4.92
		c-3.08,4.36-7.44,7.76-12.75,9.66c1.44,0.35,2.88,0.7,4.32,1.04c-1.89-1.67-3.79-3.33-5.68-5c0.38,1.32,0.76,2.63,1.14,3.95
		c0.75-2.28,1.49-4.55,2.24-6.83C316.15,276.67,307.58,274.53,305.94,279.53L305.94,279.53z"/>
	<path class="st0" d="M247.7,333.91c10.89,13.01,30.14,14.3,45.54,7.18c19.97-9.23,27.66-30.97,33.84-49.12
		c-2.85-0.72-5.71-1.44-8.56-2.16c-5.9,20.58-3.05,46.16,16.76,59.93c16.49,11.47,42.82,11.39,56.21-4.16
		c3.5-4.06-2.74-9.85-6.28-5.74c-11.18,12.97-33.04,12.68-46.25,2.24c-15.38-12.16-16.7-33.33-11.88-50.11
		c1.45-5.07-6.87-7.14-8.56-2.16c-4.86,14.29-10.12,30.49-23.24,40.41c-10.83,8.19-30.4,10.95-39.91-0.42
		C251.94,325.71,244.22,329.75,247.7,333.91L247.7,333.91z"/>
	<path class="st0" d="M444.79,297.1c15.95-3.36,31.91-6.71,47.86-10.07c5.57-1.17,3.21-9-2.36-7.83
		c-15.95,3.36-31.91,6.71-47.86,10.07C436.86,290.44,439.22,298.27,444.79,297.1L444.79,297.1z"/>
	<path class="st0" d="M455.37,326.03c12.45-2.35,24.9-4.69,37.35-7.04c5.59-1.05,3.23-8.88-2.36-7.83
		c-12.45,2.35-24.9,4.69-37.35,7.04C447.41,319.25,449.78,327.08,455.37,326.03L455.37,326.03z"/>
	<path class="st0" d="M194.24,274.46c-15.46-5.81-31.34-10.05-47.79-12.78c-5.59-0.92-7.98,6.9-2.36,7.83
		c16.45,2.72,32.33,6.97,47.79,12.78C197.16,284.27,199.46,276.42,194.24,274.46L194.24,274.46z"/>
	<path class="st0" d="M129.22,321.14c18.27,1.11,36.39,0.27,54.47-2.34c5.63-0.81,3.24-8.64-2.36-7.83
		c-17.29,2.49-34.65,3.11-52.11,2.05C123.52,312.67,123.54,320.79,129.22,321.14L129.22,321.14z"/>
</g>
</svg>
