<?xml version="1.0" encoding="utf-8"?>
<!-- Generator: Adobe Illustrator 28.2.0, SVG Export Plug-In . SVG Version: 6.00 Build 0)  -->
<svg version="1.1" id="Layer_1" xmlns="http://www.w3.org/2000/svg" xmlns:xlink="http://www.w3.org/1999/xlink" x="0px" y="0px"
	 viewBox="0 0 640 480" style="enable-background:new 0 0 640 480;" xml:space="preserve">
<g>
	<path d="M411.67,428.36c-37.74,11.75-79.91,13.1-119.15,10.27c-36.48-2.62-73.52-10.75-105.54-28.99
		c-34.17-19.47-62.09-50.96-70.04-90.16c-9.19-45.3-7.85-93.64,0.72-138.91c9.73-51.41,29.66-100.5,58.7-144.02
		c-2.12,0-4.24,0-6.37,0c6.3,11.12,12.6,22.23,18.91,33.35c5.4,9.53,10.21,19.89,16.75,28.7c5.73,7.71,12.98,10.61,22.39,11.42
		c12.88,1.11,25.83,1.68,38.73,2.51c25.64,1.65,51.28,3.3,76.92,4.95c13.06,0.84,26.12,1.68,39.18,2.52
		c10.13,0.65,21.71,2.98,31.65,0.08c10.46-3.06,14.62-13.05,19.26-21.94c6.68-12.8,13.37-25.59,20.05-38.39
		c-1.93,0.25-3.86,0.5-5.79,0.75c37.99,48.91,61.26,108.9,66.63,170.58c4.58,52.66-1.09,112.81-36.81,154.59
		C460.35,406.14,437.14,420.09,411.67,428.36c-4.49,1.46-2.57,8.58,1.96,7.11c48.83-15.87,84.74-51.86,99.72-101.1
		c17.9-58.81,11.45-126.35-8.4-183.79c-11.9-34.42-29.37-66.55-51.7-95.3c-1.44-1.85-4.79-1.17-5.79,0.75
		c-6.47,12.38-12.94,24.77-19.4,37.15c-2.89,5.53-5.55,13.01-10.45,17.12c-5.22,4.38-12.44,3.71-18.77,3.36
		c-29.52-1.65-59.02-3.8-88.52-5.7c-14.51-0.93-29.02-1.87-43.54-2.8c-7.26-0.47-14.51-0.93-21.77-1.4
		c-7.19-0.46-15.03-0.16-22.06-1.8c-13.05-3.06-18.91-20.31-24.88-30.83c-7.24-12.76-14.47-25.52-21.71-38.29
		c-1.43-2.52-4.87-2.24-6.37,0c-53.23,79.8-76,178.64-62.66,273.67c3.27,23.27,9.93,44.05,23.8,63.2
		c10.61,14.65,23.63,27.3,38.45,37.67c30.88,21.61,68.08,32.3,105.13,36.9c21.31,2.64,42.86,3.23,64.31,2.34
		c25.19-1.05,50.46-3.62,74.62-11.14C418.14,434.07,416.22,426.95,411.67,428.36z"/>
	<path d="M449.49,98.45c-2.05,7.47-3.35,15.05-4,22.77c-0.15,1.74,1.28,2.97,2.71,3.55c6.42,2.61,12.92,3.16,19.74,2.18
		c1.87-0.27,3.2-2.84,2.57-4.54c-3.1-8.44-7.14-16.36-12.3-23.73c-1.59-2.28-6.21-2.56-6.74,0.88c-1.3,8.51-0.86,16.72,1.63,24.98
		c0.69,2.28,3.31,3.41,5.42,2.2c3.17-1.82,6.22-4.56,5.45-8.61c-0.6-3.16-3.97-5.79-7.22-4.73c-6.81,2.23-1.44,13.31,4.92,8.36
		c3.74-2.91-1.51-8.1-5.21-5.21c-0.17,0.13-0.34,0.26-0.51,0.4c1.2-0.32,2.39-0.63,3.59-0.95c0.46,0.48,0.92,0.97,1.37,1.45
		c-0.36,0.87-0.72,1.74-1.08,2.61c0.17-0.16,0.34-0.33,0.51-0.49c-0.87,0.36-1.74,0.72-2.61,1.08c-1-1.15-1.98-1.24-2.93-0.27
		c1.81,0.73,3.61,1.47,5.42,2.2c-2.08-6.9-2.72-13.91-1.63-21.06c-2.25,0.29-4.49,0.59-6.74,0.88c4.79,6.84,8.67,14.12,11.55,21.97
		c0.86-1.51,1.72-3.02,2.57-4.54c-5.47,0.78-10.74-0.11-15.82-2.18c0.9,1.19,1.8,2.37,2.71,3.55c0.59-7.07,1.85-13.97,3.73-20.81
		C457.86,95.83,450.75,93.87,449.49,98.45L449.49,98.45z"/>
	<path d="M164.91,79.99c-3.67,5.72-7.33,11.43-11,17.15c-0.98,1.54-0.46,4.27,1.32,5.04c7.39,3.22,14.91,4.14,22.86,2.68
		c1.98-0.37,3.04-2.74,2.57-4.54c-1.7-6.61-4.26-12.89-7.62-18.83c-1.2-2.13-4.08-2.33-5.79-0.75c-2.79,2.59-5.56,5.96-4.74,10.05
		c0.69,3.46,3.81,6.35,7.43,5.87c4.69-0.61,4.78-6.84,0-7.37c-5.06-0.56-9.63,2-12.2,6.32c-0.86,1.45-0.53,3.27,0.58,4.47
		c2.02,2.18,4.56,3.24,7.54,3.03c4.71-0.33,4.74-7.71,0-7.37c-0.98,0.3-1.75,0.01-2.32-0.87c0.19,1.49,0.38,2.98,0.58,4.47
		c1.34-2.26,3.28-2.95,5.83-2.66c0-2.46,0-4.92,0-7.37c-0.34,0.04,2.25-3.08,2.52-3.33c-1.93-0.25-3.86-0.5-5.79-0.75
		c3.06,5.41,5.32,11.05,6.87,17.07c0.86-1.51,1.72-3.02,2.57-4.54c-5.81,1.07-11.75,0.43-17.17-1.93c0.44,1.68,0.88,3.36,1.32,5.04
		c3.67-5.72,7.33-11.43,11-17.15C173.84,79.7,167.46,76,164.91,79.99L164.91,79.99z"/>
	<path d="M417.73,212.35c-2.54,7.72,0.34,15.11,7.03,19.55c1.3,0.86,3.42,0.58,4.47-0.58c8.84-9.78,8.9-24.01,0.26-33.93
		c-1.73-1.98-4.46-0.99-5.79,0.75c-9.7,12.72-10.53,29.93-2.58,43.73c1.24,2.15,4.05,2.31,5.79,0.75
		c10.93-9.77,10.95-27.64,0.05-37.43c-1.72-1.55-4.58-1.42-5.79,0.75c-5.26,9.42-3.88,20.38,3.48,28.25c1.3,1.4,3.92,1.45,5.21,0
		c4.43-4.97,5.22-11.2,1.6-16.92c-1.34-2.12-3.96-2.32-5.79-0.75c-5.92,5.1-7.04,12.7-3.62,19.58c1.57,3.16,5.65,1.76,6.74-0.88
		c2.02-4.92,2.31-9.26,1.57-14.48c-0.59-4.16-7.3-3.09-7.24,0.98c0.03,2.04,0.06,4.09,0.09,6.13c0.07,4.74,7.44,4.75,7.37,0
		c-0.03-2.04-0.06-4.09-0.09-6.13c-2.41,0.33-4.83,0.65-7.24,0.98c0.55,3.89-0.11,7.02-1.57,10.56c2.25-0.29,4.49-0.59,6.74-0.88
		c-2.03-4.07-0.85-7.79,2.47-10.64c-1.93-0.25-3.86-0.5-5.79-0.75c2.02,2.69,1.88,5.35-0.45,7.99c1.74,0,3.48,0,5.21,0
		c-5.09-5.44-5.94-12.84-2.32-19.31c-1.93,0.25-3.86,0.5-5.79,0.75c8.06,7.25,8.03,19.78-0.05,27.01c1.93,0.25,3.86,0.5,5.79,0.75
		c-6.76-11.73-5.58-25.59,2.58-36.28c-1.93,0.25-3.86,0.5-5.79,0.75c5.91,6.78,5.75,16.85-0.26,23.5c1.49-0.19,2.98-0.38,4.47-0.58
		c-4.06-2.7-5.11-6.74-3.64-11.23C426.32,209.79,419.2,207.86,417.73,212.35L417.73,212.35z"/>
	<path d="M197.36,212.35c-2.54,7.72,0.34,15.11,7.03,19.55c1.3,0.86,3.42,0.58,4.47-0.58c8.84-9.78,8.9-24.01,0.26-33.93
		c-1.72-1.98-4.46-0.99-5.79,0.75c-9.7,12.72-10.53,29.93-2.58,43.73c1.24,2.15,4.05,2.31,5.79,0.75
		c10.93-9.77,10.95-27.64,0.05-37.43c-1.72-1.55-4.58-1.42-5.79,0.75c-5.26,9.42-3.88,20.38,3.48,28.25c1.3,1.4,3.92,1.45,5.21,0
		c4.43-4.97,5.22-11.2,1.6-16.92c-1.34-2.12-3.96-2.32-5.79-0.75c-5.92,5.1-7.04,12.7-3.62,19.58c1.57,3.16,5.65,1.76,6.74-0.88
		c2.02-4.92,2.31-9.26,1.57-14.48c-0.59-4.16-7.3-3.09-7.24,0.98c0.03,2.04,0.06,4.09,0.09,6.13c0.07,4.74,7.44,4.75,7.37,0
		c-0.03-2.04-0.06-4.09-0.09-6.13c-2.41,0.33-4.83,0.65-7.24,0.98c0.55,3.89-0.11,7.02-1.57,10.56c2.25-0.29,4.49-0.59,6.74-0.88
		c-2.03-4.07-0.85-7.79,2.47-10.64c-1.93-0.25-3.86-0.5-5.79-0.75c2.02,2.69,1.88,5.35-0.45,7.99c1.74,0,3.48,0,5.21,0
		c-5.09-5.44-5.94-12.84-2.32-19.31c-1.93,0.25-3.86,0.5-5.79,0.75c8.06,7.25,8.03,19.78-0.05,27.01c1.93,0.25,3.86,0.5,5.79,0.75
		c-6.76-11.73-5.58-25.59,2.58-36.28c-1.93,0.25-3.86,0.5-5.79,0.75c5.91,6.78,5.75,16.85-0.26,23.5c1.49-0.19,2.98-0.38,4.47-0.58
		c-4.06-2.7-5.11-6.74-3.64-11.23C205.96,209.79,198.84,207.86,197.36,212.35L197.36,212.35z"/>
	<path d="M312.07,255.36c-7.8-6.29-16.3,4.7-9.69,11.74c7.37,7.85,21.29,3.99,27.19-3.63c6.61-8.53-5.86-16.27-13.91-15.41
		c-9.2,0.97-13.77,10.45-10.22,18.67c3.58,8.27,13.88,9.96,19.51,2.74c5.68-7.3,1.94-19.74-8.67-18.23
		c-8.7,1.24-9.52,15.36-0.17,15.52c8.33,0.14,8.98-12.57,1.84-15.11c-11.54-4.1-17.99,15.43-6.74,19.88
		c9.45,3.74,14.34-11.83,4.9-13.76c-1.74-0.36-3.16,0.28-4.16,1.69c-2.32,3.27-2.3,7.03-0.13,10.35c0.98,1.51,2.46,1.96,4.16,1.69
		c12.36-1.96,4.81-23.75-7.64-15c-5.6,3.94-5.96,11.36-2.29,16.72c4.07,5.95,11.84,8.56,18.78,7.54
		c13.31-1.96,21.04-20.57,8.37-28.91c-10.71-7.06-27.98,0.84-30.77,13.04c-1.72,7.53,4.26,13.42,11.63,13.01
		c8.37-0.47,12.62-8.38,14.79-15.47c0.63-2.06-0.77-3.81-2.57-4.54c-6.79-2.72-18.56,3.53-13.84,11.67
		c1.67,2.88,5.65,6.59,9.27,5.86c4.66-0.93,8.91-7.37,10.83-11.19c2.13-4.23-4.23-7.97-6.37-3.72c-1.75,3.48-3.99,6.09-7.3,8.17
		c1.24,0,2.48,0,3.72,0c-1.63-0.71-4.29-1.55-3.07-3.31c0.91-1.31,3.68-0.83,4.81-0.38c-0.86-1.51-1.72-3.02-2.57-4.54
		c-0.95,3.1-2.25,7.34-5.25,9.09c-2.2,1.28-4,1.44-5.73-0.58c-1.85-2.17-0.93-3.81,0.53-5.97c3.05-4.51,10.04-7.55,15.39-6.08
		c7.97,2.18,6.45,12.5,0.07,15.62c-3.51,1.72-7.94,1.38-11.3-0.57c-1.48-0.86-3.19-2.22-3.91-3.86c-0.18-1.14-0.36-2.29-0.53-3.43
		c4.23-2.07,5.24-2.17,3.02-0.3c1.39,0.56,2.78,1.13,4.16,1.69c0.04-0.97,0.09-1.94,0.13-2.91c-1.39,0.56-2.78,1.13-4.16,1.69
		c-3.46-0.7-0.75-5.78,1.89-6.22c2.95-0.48,4.55,1,4.25,3.81c-0.48,4.51-5.85,5.7-7.94,1.72c-4.73-9.03,8.89-11.63,12.72-3.52
		c0-1.24,0-2.48,0-3.72c-1.84,3.14-4.51,5.48-8.05,6.49c-1.28,0.36-2.68,0.57-4.01,0.5c-3.69-0.18-3.52-1.25-6.14-3.36
		C310.51,263.52,315.76,258.34,312.07,255.36L312.07,255.36z"/>
	<path d="M266.58,290.24c-5.44,21.76,12.96,42.09,35.3,37.29c23.25-4.99,26.82-31.88,27.65-51.54c0.21-4.87-6.77-4.55-7.37,0
		c-2.46,18.42-2.98,53.5,18.55,62.04c9.19,3.64,19.47-0.2,26.03-7.12c8.04-8.48,10.04-20.38,11.4-31.52c0.57-4.7-6.81-4.66-7.37,0
		c-1.11,9.08-2.69,19.39-9.24,26.31c-6.44,6.8-16.63,8.9-23.56,1.63c-11.67-12.26-10.49-35.98-8.44-51.33c-2.46,0-4.92,0-7.37,0
		c-0.6,14.23-1.59,33.39-15.26,41.7c-17.67,10.74-38.01-6.3-33.21-25.5C274.84,287.6,267.73,285.64,266.58,290.24L266.58,290.24z"/>
	<path d="M258.16,114.22c-3.37,15.4-3.85,31.28-0.65,46.77c1.89,9.15,7.35,21.12,18.61,19.88c11.06-1.22,15.15-14.34,17.17-23.43
		c3.57-16.13,3.58-32.61,0.65-48.83c-0.4-2.23-3.58-3.51-5.42-2.2c-7.29,5.18-15.05,9.01-23.63,11.56c1.2,2.05,2.39,4.11,3.59,6.16
		c2.62-2.49,5.53-3.38,9.08-3.16c-0.87-2.1-1.74-4.2-2.61-6.29c-6.77,7.4-11.38,15.91-13.72,25.67c-0.83,3.44,3.55,6.38,6.16,3.59
		c7.35-7.89,14.7-15.77,22.05-23.66c-1.74-1.74-3.48-3.48-5.21-5.21c-9.68,11.3-15.86,24.6-17.85,39.38
		c-0.51,3.82,4.5,6.82,6.74,2.84c5.31-9.46,10.63-18.93,15.94-28.39c-2.25-0.95-4.49-1.89-6.74-2.84
		c-4.79,12.37-9.58,24.73-14.37,37.1c-1.5,3.88,4.87,6.56,6.74,2.84c5.07-10.11,10.14-20.21,15.21-30.32
		c-2.29-0.62-4.58-1.24-6.87-1.86c-0.98,14.82-5.51,28.65-13.31,41.27c1.93-0.25,3.86-0.5,5.79-0.75
		c-13.66-17.68-8.66-42.19-4.17-62.21c-2.41-0.33-4.83-0.65-7.24-0.98c-0.05,7.77-0.71,15.83-0.06,23.57
		c0.35,4.22,2.09,8.62,6.59,9.68c11.78,2.78,17.36-20.45,19.57-27.96c-2.41-0.33-4.83-0.65-7.24-0.98
		c2.01,17.17-0.97,33.97-9.08,49.26c1.68-0.44,3.36-0.88,5.04-1.32c-2.03-1.24-3.07-2.95-3.1-5.11c-0.77-4.67-7.87-2.69-7.11,1.96
		c0.7,4.3,2.88,7.19,6.49,9.52c1.62,1.05,4.14,0.38,5.04-1.32c8.68-16.39,12.25-34.54,10.08-52.98c-0.46-3.93-5.99-5.24-7.24-0.98
		c-0.88,2.98-7.75,24.54-11.53,21.21c-1.31-1.15-0.19-9.22-0.18-11.02c0.03-4.51,0.06-9.01,0.08-13.52
		c0.02-4.08-6.31-5.11-7.24-0.98c-5.2,23.16-9.53,49.2,6.06,69.38c1.51,1.96,4.68,1.05,5.79-0.75c8.48-13.73,13.24-28.9,14.31-44.99
		c0.24-3.61-5.25-5.08-6.87-1.86c-5.07,10.11-10.14,20.21-15.21,30.32c2.25,0.95,4.49,1.89,6.74,2.84
		c4.79-12.37,9.58-24.73,14.37-37.1c1.53-3.94-4.73-6.42-6.74-2.84c-5.31,9.46-10.63,18.93-15.94,28.39
		c2.25,0.95,4.49,1.89,6.74,2.84c1.81-13.49,7.08-25.76,15.95-36.12c3.05-3.56-1.94-8.72-5.21-5.21
		c-7.35,7.89-14.7,15.77-22.05,23.66c2.05,1.2,4.11,2.39,6.16,3.59c2.05-8.54,5.89-15.93,11.82-22.42c2.23-2.43,0.6-6.09-2.61-6.29
		c-5.63-0.36-10.22,1.45-14.29,5.32c-2.66,2.53,0.08,7.2,3.59,6.16c9.17-2.72,17.59-6.76,25.39-12.3c-1.81-0.73-3.61-1.47-5.42-2.2
		c2.06,11.39,2.52,22.95,1.12,34.45c-0.93,7.7-2.29,23.67-10.41,27.81c-10.85,5.53-13.62-16.46-14.26-22.29
		c-1.27-11.53-0.49-23.06,1.99-34.37C266.28,111.55,259.18,109.58,258.16,114.22L258.16,114.22z"/>
	<path d="M318.56,116.7c-4.86,15.28-6.83,33.05-2.37,48.69c2.72,9.55,10.09,20.28,21.43,18.06c11.84-2.31,15.78-16.52,18.47-26.49
		c3.89-14.41,6.16-29.21-0.42-43.16c-1.39-2.94-5.97-2.01-6.74,0.88c-4.44,16.71-10.02,33.06-16.85,48.96
		c2.25,0.95,4.49,1.89,6.74,2.84c3.18-15.36,6.35-30.71,9.53-46.07c0.84-4.06-4.43-6.45-6.74-2.84
		c-6.17,9.64-12.33,19.29-18.5,28.93c2.12,1.24,4.24,2.48,6.37,3.72c4.04-7.61,6.28-15.45,6.97-24.04c0.17-2.16-1.84-3.45-3.69-3.69
		c-4.1-0.52-6.98,0.67-9.92,3.51c1.93,1.49,3.86,2.98,5.79,4.47c2.38-5.14,2.99-9.92,1.93-15.47c-0.74-3.89-5.98-3.1-7.11,0
		c-7.22,19.77-13.63,47.68,8.9,60.35c1.9,1.07,5,0.21,5.42-2.2c3.03-17.58,4.91-35.29,5.6-53.11c0.13-3.32-4.05-4.69-6.29-2.61
		c-13,12.1-14.51,30.31-15.11,47.06c-0.11,3.03,4.22,5.08,6.29,2.61c9.95-11.87,13.96-26.4,11.63-41.7
		c-0.4-2.63-4.51-3.68-6.16-1.63c-6.47,8.06-10.77,16.92-12.72,27.1c2.37,0,4.74,0,7.11,0c-2.5-10.58,0.02-21.21,7.14-29.47
		c-2.1-0.87-4.2-1.74-6.29-2.61c0.23,8.25-0.17,16.42-1.23,24.61c-0.55,4.24,6.08,4.8,7.24,0.98c1.95-6.44,4.95-11.71,9.51-16.66
		c-2.05-0.54-4.11-1.08-6.16-1.63c6.53,16.38,5.33,34.15-3.66,49.37c-2.09,3.54,2.93,7.63,5.79,4.47
		c13.37-14.78,18.53-34.67,13.98-54.08c-1.01-4.32-6.85-2.91-7.24,0.98c-1.7,16.88-7.07,32.79-15.75,47.35c2.12,0,4.24,0,6.37,0
		c-9.76-16.55-0.41-36.1,7.57-51.38c-1.39,0.56-2.78,1.13-4.16,1.69c1.55,0.61,3.1,1.23,4.65,1.84c0.65-2.37,1.31-4.74,1.96-7.11
		c-2.08-0.38-4.17-0.75-6.25-1.13c-4.64-0.84-6.63,6.27-1.96,7.11c2.08,0.38,4.17,0.75,6.25,1.13c4.72,0.85,6.36-5.37,1.96-7.11
		c-1.55-0.61-3.1-1.23-4.65-1.84c-1.44-0.57-3.47,0.37-4.16,1.69c-9.31,17.83-18.85,39.71-7.57,58.82c1.41,2.4,4.95,2.38,6.37,0
		c9.37-15.72,14.92-32.88,16.76-51.07c-2.41,0.33-4.83,0.65-7.24,0.98c3.93,16.76-0.53,34.14-12.08,46.91
		c1.93,1.49,3.86,2.98,5.79,4.47c9.89-16.76,11.62-36.94,4.4-55.05c-0.96-2.41-4.1-3.86-6.16-1.63
		c-5.37,5.82-9.11,12.33-11.41,19.91c2.41,0.33,4.83,0.65,7.24,0.98c1.05-8.19,1.46-16.36,1.23-24.61
		c-0.08-2.98-4.11-5.14-6.29-2.61c-8.89,10.31-12.17,23.37-9.04,36.64c0.81,3.43,6.42,3.61,7.11,0c1.69-8.84,5.18-16.81,10.83-23.85
		c-2.05-0.54-4.11-1.08-6.16-1.63c1.9,12.47-1.63,24.86-9.73,34.52c2.1,0.87,4.2,1.74,6.29,2.61c0.53-14.77,1.44-31.14,12.95-41.85
		c-2.1-0.87-4.2-1.74-6.29-2.61c-0.66,17.17-2.42,34.22-5.33,51.15c1.81-0.73,3.61-1.47,5.42-2.2
		c-19.25-10.82-11.47-35.71-5.51-52.02c-2.37,0-4.74,0-7.11,0c0.67,3.52,0.32,6.53-1.18,9.79c-1.69,3.66,2.61,7.54,5.79,4.47
		c1.57-0.45,3.14-0.9,4.7-1.35c-1.23-1.23-2.46-2.46-3.69-3.69c-0.58,7.32-2.52,13.83-5.96,20.32c-2.23,4.2,3.81,7.72,6.37,3.72
		c6.17-9.64,12.33-19.29,18.5-28.93c-2.25-0.95-4.49-1.89-6.74-2.84c-3.18,15.36-6.35,30.71-9.53,46.07
		c-0.79,3.81,4.99,6.9,6.74,2.84c7.08-16.49,12.98-33.37,17.59-50.72c-2.25,0.29-4.49,0.59-6.74,0.88
		c4.91,10.42,3.52,21.81,0.92,32.67c-1.87,7.82-4.28,23.03-13.29,25.69c-11.22,3.31-14.52-14.46-15.26-21.92
		c-1.19-12,0.35-23.84,3.99-35.3C327.11,114.12,320,112.18,318.56,116.7L318.56,116.7z"/>
	<path d="M377.3,120.8c-4.83,15.43-6.51,31.62-4.42,47.68c1.45,11.13,5.58,24.9,19.6,23.15c12.57-1.57,17.93-14.47,20.57-25.26
		c3.82-15.64,3.39-31.84-0.67-47.37c-1.09-4.18-6.96-3.05-7.24,0.98c-1.4,20.28-6.14,39.92-13.96,58.67
		c2.41,0.33,4.83,0.65,7.24,0.98c-1.01-17.27,1.85-34.01,8.46-49.98c-2.37-0.65-4.74-1.31-7.11-1.96
		c-3.88,11.63-7.75,23.26-11.63,34.89c2.37,0.65,4.74,1.31,7.11,1.96c3.58-13.97,7.16-27.94,10.74-41.9
		c0.94-3.67-3.46-6.02-6.16-3.59c-9.5,8.55-15.81,19.57-18.32,32.11c-0.79,3.94,4.57,6.64,6.74,2.84
		c5.37-9.41,9.18-19.35,11.41-29.96c0.55-2.61-1.7-5.44-4.54-4.54c-7.33,2.35-12.43,7.73-13.89,15.35
		c-0.75,3.95,4.53,6.63,6.74,2.84c3.35-5.73,3.35-11.67,0.06-17.43c-1.65-2.89-5.74-2.03-6.74,0.88
		c-7.02,20.55-5.59,42.45,3.6,62.07c1.3,2.78,6.19,2.17,6.74-0.88c2.23-12.49,2.75-24.92,1.36-37.54c-0.43-3.93-6.02-5.25-7.24-0.98
		c-3.78,13.22-2.74,26.4,2.66,39c1.51,3.53,6.83,1.51,6.87-1.86c0.06-5.95,1.3-11.23,4-16.56c-2.25-0.95-4.49-1.89-6.74-2.84
		c-2.04,6.51-4.09,13.02-6.13,19.53c-0.96,3.06,2.72,5.82,5.42,4.16c17.18-10.58,25.17-32.09,18.63-51.26
		c-1.52-4.47-8.65-2.55-7.11,1.96c5.47,16.04-0.73,34-15.24,42.93c1.81,1.39,3.61,2.78,5.42,4.16c2.04-6.51,4.09-13.02,6.13-19.53
		c1.24-3.94-4.83-6.6-6.74-2.84c-3.27,6.45-4.93,13.04-5.01,20.28c2.29-0.62,4.58-1.24,6.87-1.86c-4.6-10.73-5.12-22.14-1.92-33.32
		c-2.41-0.33-4.83-0.65-7.24-0.98c1.32,11.94,1.02,23.75-1.09,35.58c2.25-0.29,4.49-0.59,6.74-0.88
		c-8.36-17.85-9.21-37.79-2.86-56.39c-2.25,0.29-4.49,0.59-6.74,0.88c1.92,3.36,1.89,6.65-0.06,9.99c2.25,0.95,4.49,1.89,6.74,2.84
		c0.97-5.06,3.78-8.62,8.74-10.2c-1.51-1.51-3.02-3.02-4.54-4.54c-2.11,10-5.6,19.31-10.67,28.2c2.25,0.95,4.49,1.89,6.74,2.84
		c2.29-11.42,7.76-21.06,16.43-28.86c-2.05-1.2-4.11-2.39-6.16-3.59c-3.58,13.97-7.16,27.94-10.74,41.9
		c-1.19,4.63,5.62,6.44,7.11,1.96c3.88-11.63,7.75-23.26,11.63-34.89c1.54-4.61-5.35-6.22-7.11-1.96
		c-6.84,16.53-9.76,34.09-8.73,51.94c0.25,4.37,5.68,4.73,7.24,0.98c8.08-19.37,12.78-39.7,14.23-60.63
		c-2.41,0.33-4.83,0.65-7.24,0.98c2.81,10.75,3.8,21.75,2.59,32.81c-1.05,9.55-3.53,26.53-14.24,30.09
		c-13.88,4.61-14.11-19.2-14.27-27.23c-0.23-11.56,1.61-22.86,5.06-33.88C385.83,118.22,378.72,116.28,377.3,120.8L377.3,120.8z"/>
	<path d="M494.56,293.16c13.76-4.82,27.8-4.47,41.33,0.94c4.41,1.76,6.32-5.37,1.96-7.11c-14.6-5.83-30.42-6.13-45.25-0.94
		C488.15,287.61,490.06,294.73,494.56,293.16L494.56,293.16z"/>
	<path d="M493.58,320.67c14.36,0.33,27.55,5.63,38.13,15.36c3.49,3.21,8.72-1.99,5.21-5.21c-12.02-11.05-27.01-17.13-43.34-17.51
		C488.84,313.19,488.84,320.56,493.58,320.67L493.58,320.67z"/>
	<path d="M488.44,344.98c10.66,3.81,19.14,11.32,24.49,21.26c2.25,4.18,8.61,0.46,6.37-3.72c-6.27-11.67-16.44-20.21-28.89-24.65
		C485.92,336.28,484,343.4,488.44,344.98L488.44,344.98z"/>
	<path d="M79.76,279.58c16.14-6.53,33.79-6.74,49.88,0.13c4.32,1.84,8.08-4.51,3.72-6.37c-17.89-7.63-37.45-8.19-55.56-0.87
		C73.46,274.23,75.36,281.37,79.76,279.58L79.76,279.58z"/>
	<path d="M98.31,305.66c10.03-5.96,20.84-8.77,32.51-8.48c4.75,0.12,4.74-7.25,0-7.37c-12.88-0.32-25.16,2.9-36.23,9.48
		C90.51,301.72,94.22,308.09,98.31,305.66L98.31,305.66z"/>
	<path d="M101.79,336.26c11.76-9.4,25.26-15.77,39.91-19.16c4.62-1.07,2.67-8.18-1.96-7.11c-15.96,3.69-30.38,10.84-43.16,21.06
		C92.87,334.01,98.12,339.2,101.79,336.26L101.79,336.26z"/>
</g>
</svg>
