<?xml version="1.0" encoding="utf-8"?>
<!-- Generator: Adobe Illustrator 28.2.0, SVG Export Plug-In . SVG Version: 6.00 Build 0)  -->
<svg version="1.1" id="Layer_1" xmlns="http://www.w3.org/2000/svg" xmlns:xlink="http://www.w3.org/1999/xlink" x="0px" y="0px"
	 viewBox="0 0 640 480" style="enable-background:new 0 0 640 480;" xml:space="preserve">
<style type="text/css">
	.st0{fill:#FFFFFF;}
	.st1{fill:#FFFF00;}
</style>
<path d="M165.47,16.17c-3.8,26.28,3,53,21.2,72.77c20.09,21.81,50.13,29.77,78.53,33.52c34.12,4.51,68.64,6.71,102.91,9.88
	c29.92,2.77,63.09,7.05,88.74-12.26c10.76-8.1,18.43-19.31,21.51-32.46c3.09-13.18,1.37-32.84,13.28-41.92
	c-1.99-0.81-3.99-1.62-5.98-2.43c13.33,44.9,26.66,89.79,39.98,134.68c6.49,21.85,13.35,43.62,19.27,65.63
	c5.94,22.09,10.52,45.09,7.7,68.02c-4.84,39.38-32.39,71.51-64.23,93.11c-30.49,20.68-65.98,32.36-102.31,37.34
	c-37.13,5.1-74.99,3.63-112.12-0.6c-34.66-3.95-70.51-8.9-103.45-20.86c-34.12-12.38-63.27-35.04-75.02-70.49
	c-12.21-36.85-6.84-77.16-0.58-114.61c6.33-37.88,14.59-75.57,26.25-112.19c11.58-36.37,26.49-73.53,51.13-103.17
	c3.33-4-2.4-9.79-5.76-5.76c-22.44,27-37.04,59.71-48.52,92.63c-12.33,35.37-21.06,71.97-27.87,108.78
	c-6.87,37.14-13.53,75.69-7.89,113.43c5.51,36.87,25.54,67.68,57.93,86.37c30.94,17.86,67.09,24.37,101.95,29.72
	c39.51,6.07,79.68,9.84,119.67,7.28c72.53-4.65,156.27-35.02,188.93-105.64c21.99-47.54,4.57-97.73-9.41-144.85
	c-15.93-53.67-31.86-107.33-47.8-161c-0.67-2.26-3.81-4.09-5.98-2.43c-18.41,14.03-11.49,39.97-21.32,58.61
	c-14.38,27.24-47.41,30.81-74.86,28.94c-32.33-2.2-64.61-5.86-96.87-8.84c-28.72-2.66-59.04-4.95-84.42-20.04
	c-27.5-16.34-41.27-47.59-36.73-79.01C174.06,13.2,166.21,10.99,165.47,16.17z"/>
<g>
	<path class="st0" d="M450.04,107.36c-1.25-13.64-5.68-26.98-12.86-38.64c-2.68-4.36-5.96-8.68-10.63-10.76
		c-10.07-4.5-21.19,2.92-29.72,9.92c-5.5,4.52-11.41,9.73-12.3,16.8c-1.17,9.32,6.9,17.15,14.96,21.97
		c10.48,6.27,22.23,10.38,34.33,12.02c4.1,0.56,8.45,0.8,12.21-0.93c3.76-1.72,6.66-5.99,5.53-9.97c8.63-8.41,24.88-6.91,31.51,3.15
		c6.64,10.06,1.26,25.89-10.25,29.48c-11.51,3.59-25.1-6.84-24.27-18.86c0.25,13.37,18.62,21.18,29.91,14
		c3.29-2.09,6.01-5.04,9.47-6.84c12.75-6.62,27.11,4.78,36.94,15.27c2.32,2.48,4.75,5.17,5.29,8.53c0.86,5.4-3.44,10.2-7.81,13.49
		c-10.23,7.7-24.43,12.21-35.87,6.45c-11.44-5.76-14.96-24.75-3.89-31.18"/>
	<path d="M454.11,107.36c-1.16-10.78-3.74-21.16-8.27-31.04c-4.02-8.78-9.6-19.39-19.38-22.71c-9.35-3.18-18.94,1.39-26.49,6.76
		c-7.17,5.09-15.48,11.25-18.49,19.85c-7.14,20.44,19.6,33.5,34.81,38.55c8.96,2.97,21.61,6.76,30.82,2.89
		c7.87-3.3,6.4-12.64,14.12-14.71c13.36-3.59,25.07,8.88,18.92,21.69c-6.83,14.22-27.52,7.95-27.51-7.11c-2.71,0-5.43,0-8.14,0
		c0.89,10.68,8.86,18.28,19.25,20.29c4.91,0.95,10.1,0.51,14.65-1.65c7.83-3.72,12.48-11.38,22.31-8.66
		c7.68,2.12,16.67,8.84,21.31,15.33c1.76,2.46,4.15,6.94,3.32,10.13c-0.55,2.11-3.83,4.49-5.55,5.81c-3.68,2.81-7.84,5.1-12.25,6.53
		c-8.51,2.76-19.42,2.52-24.75-5.73c-3.71-5.75-4.4-14.58,1.87-18.82c4.32-2.92,0.25-9.98-4.11-7.03
		c-12.59,8.5-10.62,27.45,0.84,36.23c14.44,11.06,39.83,3.05,49.67-10.92c5.63-7.99,2.77-15.32-3.3-21.96
		c-6.66-7.3-15.19-14.71-24.9-17.42c-9.26-2.59-16.26,0.67-23.5,6.2c-8.67,6.62-25.58,5.26-26.72-8.33c-0.43-5.15-8.14-5.32-8.14,0
		c-0.01,15.72,17.17,28.73,32.16,21.71c13.32-6.23,17.81-25.62,8.11-36.81c-4.84-5.58-12.4-8.38-19.69-8.17
		c-6.02,0.17-15.23,2.73-17.51,8.96c-0.46,1.26,0.17,3.15-0.45,4.32c-1.29,2.46-6.05,3.43-8.31,3.46c-3.15,0.04-6.38-0.59-9.46-1.2
		c-6.27-1.24-12.42-3.18-18.26-5.76c-10.83-4.79-29.38-15.4-19.57-29.28c7.23-10.24,27.08-25.24,38.23-13.4
		c10.06,10.68,14.71,27.8,16.23,42C446.52,112.52,454.67,112.58,454.11,107.36L454.11,107.36z"/>
</g>
<g>
	<path d="M421.99,176.61c-21.18,1.8-41.77,5.79-62.92,14.87c-68.47,29.39-15.6,115.02,28.11,144.11
		c12.43,8.27,27.46,11.82,42.34,13.14c32.28,2.86,65.81-4.51,92.52-22.85c26.72-18.34,46-47.99,49.45-80.22
		c1.04-9.74,0.65-19.81-2.72-29.01c-6.57-17.97-23.77-30.38-42.05-36.06c-18.27-5.68-37.76-5.63-56.9-5.52
		C453.27,175.16,437.47,175.3,421.99,176.61z"/>
</g>
<g>
	<path d="M203.73,184.87c19.33,1.64,38.12,5.29,57.42,13.57c62.49,26.82,14.24,104.96-25.65,131.51
		c-11.34,7.55-25.06,10.79-38.64,11.99c-29.46,2.61-60.05-4.11-84.43-20.85c-24.38-16.74-41.98-43.8-45.13-73.2
		c-0.95-8.89-0.59-18.08,2.48-26.47c6-16.4,21.7-27.73,38.37-32.91c16.68-5.18,34.46-5.13,51.92-5.04
		C175.18,183.55,189.6,183.67,203.73,184.87z"/>
</g>
<path d="M320.58,321.04c1.8-12.38-12.23-19.07-21.37-10.8c-8.16,7.37-8.16,20.68,1.71,26.52c11.25,6.66,25.94,0.3,30.57-11.3
	c5.07-12.7-1.2-26.94-13.68-32.2c-11.88-5-25.08-0.59-31.81,10.34c-6.19,10.05-5.48,23.83,4.34,31.29
	c8.79,6.68,22.84,6.95,31.05-0.9c8.59-8.21,8.09-23.86-1.54-31.09c-10.07-7.56-27.21-1.26-28.23,11.89
	c-0.97,12.41,14.55,21.13,24.62,14c1.87-1.32,2.55-3.47,1.46-5.57c-5.23-10.1-20.04-11.87-27.2-2.85c-1.77,2.23-1.43,4.68,0.82,6.4
	c6.45,4.9,16.35,7.52,21.9-0.27c3.66-5.14,2.17-12.45-4.18-14.45c-5.25-1.65-11.62,1.68-11,7.69c0.59,5.8,7.83,8.59,12.79,6.43
	c6.31-2.75,6.47-10.69,2.47-15.53c-5.31-6.42-14.19-5.12-20.44-0.92c-5.36,3.6-9.57,9.93-5.06,15.93c6,7.98,15.79,3.7,22.15-1.14
	c1.42-1.08,2.45-2.74,1.87-4.6c-3.74-12.02-17.3-17.58-28.43-11.74c-1.91,1-2.58,3.77-1.46,5.57c8.4,13.48,29.9,10.79,35.03-4.08
	c1.71-4.96-6.15-7.1-7.85-2.16c-2.84,8.23-15.62,9.41-20.15,2.14c-0.49,1.86-0.97,3.71-1.46,5.57c6.41-3.37,14.32-0.03,16.46,6.87
	c0.62-1.53,1.25-3.07,1.87-4.6c-1.26,0.96-2.51,2-3.88,2.8c-1.09,0.52-2.19,1.04-3.28,1.57c-3.52-2.43-3.93-4.2-1.22-5.32
	c1.05-0.93,2.28-1.48,3.68-1.65c3.14-1.61,3.46-0.36,0.94,3.75c0.33,4.26-0.66,5.43-2.97,3.51c-1.35-0.59-2.58-1.38-3.67-2.39
	c0.27,2.13,0.55,4.26,0.82,6.4c3.98-5.01,11.41-4.6,14.41,1.2c0.49-1.86,0.97-3.71,1.46-5.57c-7.82,5.54-17.17-6.18-8.81-12.06
	c8.79-6.17,17.73,3.06,15.7,12.31c-3.83,17.44-32.43,9.6-28.57-8.03c3.85-17.59,30.38-20.22,34.38-1.18
	c2.06,9.8-5.49,19.99-15.92,18.18c-4.57-0.79-8.38-4.07-7.45-9.15c0.28-1.56,1.22-3.4,2.26-4.59c1.13-1.3,10.35-7.52,9.02,1.63
	C311.98,324,319.83,326.22,320.58,321.04L320.58,321.04z"/>
<path d="M299.39,333.01c1.64,13.76,3.92,32.49-10.06,40.96c-14.45,8.76-23.46-8.71-27.25-19.85c-1.68-4.93-9.55-2.82-7.85,2.16
	c5,14.71,15.86,33.04,34.33,26.99c21.24-6.95,21.13-32.22,18.98-50.26C306.92,327.87,298.77,327.81,299.39,333.01L299.39,333.01z"/>
<path d="M304.59,340.01c0.34,16.6,5.98,37.32,23.53,43.4c13.29,4.61,30.24-1.27,33.84-15.74c1.26-5.09-6.59-7.26-7.85-2.16
	c-2.75,11.07-17.02,13.94-26.16,8.97c-11.89-6.47-14.95-22.2-15.21-34.46C312.62,334.78,304.48,334.76,304.59,340.01L304.59,340.01z
	"/>
<path d="M276.53,247.73c18.08-14.92,44.55-15.01,63.24-1.24c4.22,3.11,8.29-3.95,4.11-7.03c-21.81-16.06-52.39-14.58-73.11,2.52
	C266.73,245.31,272.52,251.05,276.53,247.73L276.53,247.73z"/>
<path d="M280.65,253.31c16.5-11.39,36.73-13.78,55.45-6.61c4.9,1.88,7.02-5.99,2.16-7.85c-20.55-7.87-43.62-5.07-61.73,7.43
	C272.25,249.23,276.32,256.29,280.65,253.31L280.65,253.31z"/>
<path class="st0" d="M361.29,226.46c10.35-7.48,21.93-12.33,34.63-13.97c5.13-0.66,5.19-8.81,0-8.14
	c-14.16,1.83-27.14,6.7-38.74,15.09C352.97,222.47,357.03,229.54,361.29,226.46L361.29,226.46z"/>
<path class="st0" d="M96.88,233.84c1.45-4.77,5.69-8.74,10.74-9.38c2.2-0.28,4.05-1.67,4.07-4.07c0.02-1.99-1.89-4.35-4.07-4.07
	c-8.78,1.11-15.98,6.79-18.59,15.36C87.5,236.7,95.36,238.85,96.88,233.84L96.88,233.84z"/>
<path class="st1" d="M423.25,75.52c-3-10.9-17.92-9.59-22.87-0.96c-5.78,10.09,0.27,23.21,11.55,25.48
	c12.11,2.44,24.22-7.92,21.94-20.52c-1.93-10.66-16.07-16.57-24.04-7.99c-9.02,9.71,1.71,23.39,11.21,27.51
	c8.25,3.58,24.39,2.35,22.89-10.2c-1.3-10.92-16.55-12.69-22.66-4.97c-6.59,8.33-2.1,21.8,9.35,21.76
	c13.02-0.04,16.27-18.69,3.35-22.13c-12.49-3.32-16.52,15.59-5.19,19.78c4.92,1.82,7.05-6.05,2.16-7.85
	c-3.51-1.3,2.38-8.41,3.24-1.42c0.39,3.16-3.27,4.04-5.38,3.19c-6.63-2.68,0.38-13.96,5.68-9.23c5.71,5.09-6.37,4.87-8.36,4.3
	c-4.39-1.26-9.42-4.99-10.82-9.5c-2.2-7.12,6.63-9.67,9.84-4.05c3.53,6.18-2.5,13.02-8.58,13.52c-5.57,0.46-10.49-3.55-10.25-9.35
	c0.08-2.03,0.81-4.61,2.47-5.95c1.69-1.37,5.82-2.14,6.61,0.76C416.79,82.74,424.65,80.59,423.25,75.52L423.25,75.52z"/>
<path class="st1" d="M463.38,116.15c-4.97-5.77-15.08-2.55-16.97,4.49c-2.27,8.48,7.07,15.32,14.79,13.7
	c5.71-1.2,17.83-12.42,9.35-17.47c-5.94-3.54-14.76,4.5-10.2,10.43c3.15,4.1,10.23,0.05,7.03-4.11c-0.52,1.25-0.56,1.6-0.13,1.05
	c0.84-0.36,0.37-0.64-1.44-0.83c-0.14-1.05-0.27-2.09-0.41-3.14c-1.28,3.6-5.47,8.27-9.56,5.32c-3.14-2.27-0.06-5.79,1.76-3.68
	C461.04,125.88,466.78,120.1,463.38,116.15L463.38,116.15z"/>
<path class="st1" d="M492.51,127.78c-7.08,1.01-12.37,8.62-10.35,15.68c1.88,6.6,9.65,9.85,15.95,7.68
	c7.1-2.46,8.66-10.09,2.75-14.97c-7.44-6.14-13.29,0.64-14.06,8.34c-0.71,7.06,4.33,14.97,12.2,14c5.97-0.73,9.99-7.73,6.96-13.24
	c-3.52-6.4-12.11-4.16-14.77,1.69c-3.57,7.86,3.91,14.1,10.98,15.33c-0.81-1.99-1.62-3.99-2.43-5.98c-1.59,3.51-2.9,7.93,0.35,10.99
	c2.78,2.62,6.32,2.11,9.03-0.14c4.03-3.35-1.75-9.09-5.76-5.76c1.14-0.33,2.27-0.66,3.41-0.98c0.97-2.15,0.4-5.49-2.43-5.98
	c-1.3-0.13-2.55-0.48-3.74-1.04c-0.26-3.48-1.3-4.46-3.12-2.96c-3.73-3.42-2.76-6.4-0.52-10.39c-1.17,0.67-2.34,1.34-3.52,2.02
	c3.6,0.66,3.83,1.19,0.68,1.59c-1.79,0.1-3.16-0.69-4.1-2.36c-1.22-3.09,2.24-5.31,4.66-5.66
	C499.84,134.9,497.64,127.05,492.51,127.78L492.51,127.78z"/>
<path class="st1" d="M526.45,229.93c2.69-4.92,6.26-9.26,10.77-12.63c-1.86-1.86-3.71-3.71-5.57-5.57
	c-1.63,2.26-3.26,4.51-4.89,6.77c-3.07,4.26,3.99,8.32,7.03,4.11c1.63-2.26,3.26-4.51,4.89-6.77c2.33-3.22-2.34-7.98-5.57-5.57
	c-5.65,4.22-10.3,9.34-13.69,15.55C516.9,230.42,523.93,234.53,526.45,229.93L526.45,229.93z"/>
<path class="st1" d="M525.1,246.18c6.51-4.9,13.02-9.79,19.52-14.68c4.14-3.11,0.08-10.19-4.11-7.03
	c-6.51,4.89-13.02,9.79-19.52,14.68C516.85,242.26,520.9,249.33,525.1,246.18L525.1,246.18z"/>
</svg>
