<?xml version="1.0" encoding="utf-8"?>
<!-- Generator: Adobe Illustrator 28.2.0, SVG Export Plug-In . SVG Version: 6.00 Build 0)  -->
<svg version="1.1" id="Layer_1" xmlns="http://www.w3.org/2000/svg" xmlns:xlink="http://www.w3.org/1999/xlink" x="0px" y="0px"
	 viewBox="0 0 640 480" style="enable-background:new 0 0 640 480;" xml:space="preserve">
<path d="M166.38,356.16c0.79,19.62,2.56,40.43,12.94,57.64c11.86,19.66,32.87,28.49,54.58,32.67c26.52,5.11,54,6.93,80.94,7.98
	c28.71,1.12,57.48,0.54,86.12-1.74c23.61-1.88,51.14-2.65,70.74-17.69c15.07-11.56,21.41-29.64,23.29-47.95
	c2.49-24.25-0.87-49.33-2.24-73.56c-1.66-29.38-3.31-58.77-4.97-88.15c-3.75-66.55-7.5-133.09-11.25-199.64
	c-0.15-2.62-3.57-4.54-5.55-2.3c-15.22,17.18-30.44,34.36-45.66,51.54c-7.61,8.59-15.21,17.19-22.83,25.77c-3,3.37-6,6.99-10.01,9.2
	c-5.19,2.87-11.53,2.87-17.28,3.27c-46.12,3.16-92.25,6.26-138.37,9.39c1.04,0.8,2.09,1.59,3.13,2.39
	c-11.48-38.93-35.03-72.95-65.45-99.55c-3.12-2.73-7.57,1.58-4.6,4.6c1.83,1.85,0.97,8.91,0.88,11.57
	c-0.27,7.31-1.09,14.61-1.95,21.88c-1.77,15.03-4.24,29.99-5.59,45.06c-0.61,6.81-0.05,13.19,0.46,20.02
	c1.07,14.43,1.72,28.9,2.09,43.36c0.75,29,0.39,58,0.05,87C165.5,291.33,165.18,323.76,166.38,356.16c0.15,4.17,6.66,4.19,6.5,0
	c-2.21-59.7,0.84-119.43-0.44-179.14c-0.31-14.47-0.88-28.94-1.85-43.38c-0.56-8.28-1.59-16.33-0.87-24.6
	c1.35-15.48,3.92-30.85,5.72-46.29c0.94-8.05,1.89-16.17,1.94-24.28c0.02-4.12,0.29-9.87-2.86-13.06c-1.53,1.53-3.06,3.06-4.6,4.6
	c29.6,25.89,52.6,58.78,63.78,96.69c0.38,1.3,1.71,2.48,3.13,2.39c24.77-1.68,49.54-3.36,74.31-5.04c23.6-1.6,47.39-2.46,70.93-4.86
	c8.72-0.89,15.57-3.8,21.67-10.15c7.91-8.24,15.22-17.12,22.79-25.66c16.35-18.45,32.69-36.9,49.04-55.36
	c-1.85-0.77-3.7-1.53-5.55-2.3c6.19,109.76,12.4,219.52,18.56,329.28c1.06,18.88,1.81,39.32-6.48,56.85
	c-10.43,22.05-33.05,29.02-55.63,31.85c-52.76,6.63-106.78,6.37-159.61,0.78c-25.35-2.68-55.93-4.92-74.69-24.45
	c-16.18-16.85-18.4-41.69-19.29-63.87C172.72,351.99,166.21,351.97,166.38,356.16z"/>
<path d="M335.93,263.15c-8.72-2.57-20.99,0.91-23.4,10.8c-2.66,10.91,11.17,13.38,18.99,11.81c7.97-1.6,20.28-10.28,14.6-19.78
	c-5.09-8.51-18.15-5.69-24.54-0.68c-6.42,5.03-11.12,17.58,0.46,19.49c6.71,1.1,19.77-6.66,17.18-14.73
	c-2.68-8.37-16.07-5.1-18.17,2.01c-2.32,7.87,7.5,15.03,13.2,7.96c6.53-8.1-7.44-15.28-10.94-6.61c-1.58,3.91,1.46,7.64,5.33,8.31
	c5,0.86,8.3-2.95,10.87-6.63c0.9-1.28,0.34-2.85-0.51-3.94c-2.95-3.78-8.54-3.76-11.61-0.15c-0.94,1.1-1.29,2.63-0.51,3.94
	c1.5,2.51,3.41,3.12,6.21,2.69c4.12-0.63,2.37-6.89-1.73-6.27c0.38,0.1,0.76,0.2,1.13,0.3c-0.17,1.31-0.34,2.63-0.51,3.94
	c0.81,0.05,1.61,0.1,2.42,0.15c-0.17-1.31-0.34-2.63-0.51-3.94c-1.02,1.46-4.14,4.95-6.34,4.03c-2.01-0.84,2.19-5.04,3.95-4.18
	c3.53,1.71-4.98,6.23-6.61,6.56c-3.93,0.81-3.63-3.19-1.7-5.56c1.02-1.25,2.28-2.31,3.63-3.17c3.08-1.97,7.49-3.24,11.06-1.92
	c5.4,1.99,1.33,7.61-2,9.61c-3.27,1.97-7.18,2.88-10.99,2.5c-2.54-0.25-7.02-0.99-5.65-5.4c0.54-1.74,2.8-3.24,4.27-4.04
	c3.35-1.82,7.07-1.91,10.66-0.85C338.23,270.61,339.94,264.34,335.93,263.15L335.93,263.15z"/>
<path d="M319.94,283.37c3.09,8.97,2.37,20.13-6.75,25.34c-8.72,4.99-21.16-1.17-18.17-12.11c1.1-4.04-5.17-5.77-6.27-1.73
	c-3.64,13.35,8.98,24.96,22.05,21.76c15.64-3.83,20.13-21.29,15.41-34.99C324.86,277.71,318.57,279.4,319.94,283.37L319.94,283.37z"
	/>
<path d="M322.88,289.77c1.73,10.86,5.6,23.53,17.74,26.52c11.57,2.85,18.57-7.69,22.75-16.71c1.75-3.77-3.86-7.08-5.61-3.28
	c-3.21,6.93-8.6,17.34-17.96,12.81c-7.78-3.77-9.42-13.42-10.64-21.07C328.5,283.92,322.23,285.67,322.88,289.77L322.88,289.77z"/>
<path d="M394.66,186.77c-2.22,10.68-0.49,21.18,5.26,30.48c1.34,2.17,4.24,2.02,5.61,0c8.92-13.1,9-30.38,0.26-43.59
	c-1.04-1.57-3.71-2.39-5.11-0.66c-9.69,12.04-10.83,28.86-2.09,41.8c1.24,1.83,4.51,2.38,5.61,0c4.09-8.84,11.83-31.16-1.72-35.92
	c-1.51-0.53-3.76,0.61-4,2.27c-1.05,7.37-0.71,14.36,1.27,21.55c0.6,2.16,3.86,3.41,5.43,1.43c3.79-4.76,4.46-10.47,1.11-15.7
	c-1.19-1.86-4.56-2.36-5.61,0c-2.11,4.75-2.59,9.19-1.21,14.23c1.11,4.03,7.38,2.32,6.27-1.73c-0.91-3.32-0.86-6.04,0.56-9.22
	c-1.87,0-3.74,0-5.61,0c1.6,2.5,1.88,5.34-0.1,7.82c1.81,0.48,3.62,0.96,5.43,1.43c-1.66-6.03-2.15-11.89-1.27-18.1
	c-1.33,0.76-2.67,1.51-4,2.27c7.29,2.56-0.31,22.34-2.17,26.37c1.87,0,3.74,0,5.61,0c-6.97-10.33-6.84-24.09,1.07-33.92
	c-1.7-0.22-3.4-0.44-5.11-0.66c7.56,11.42,7.44,25.71-0.26,37.02c1.87,0,3.74,0,5.61,0c-4.83-7.81-6.48-16.44-4.61-25.47
	C401.78,184.41,395.51,182.67,394.66,186.77L394.66,186.77z"/>
<path d="M243.32,185.66c-4.21,6.33-6.05,13.83-4.76,21.38c0.85,4.96,3.67,13.33,10.26,12.09c5.81-1.1,7.17-10.24,7.76-14.92
	c1.01-7.94-0.6-15.61-4.1-22.76c-1.16-2.37-4.33-1.83-5.61,0c-7.5,10.7-9.89,23.53-7.1,36.26c0.44,2,3.07,3.05,4.78,1.94
	c9.51-6.17,12.55-18.84,6.38-28.5c-1.21-1.9-3.46-2.01-5.11-0.66c-4.48,3.67-6,9.29-4.09,14.74c0.99,2.83,4.23,3,5.94,0.78
	c2.05-2.67,2.81-5.19,2.95-8.53c0.11-2.62-3.78-4.55-5.55-2.3c-3.42,4.34-4.56,9.18-2.51,14.44c1.51,3.85,7.8,2.18,6.27-1.73
	c-1.1-2.81-1.17-5.57,0.83-8.12c-1.85-0.77-3.7-1.53-5.55-2.3c0.03,2.09-0.66,3.84-2.06,5.25c1.98,0.26,3.96,0.52,5.94,0.78
	c-1.2-3.43-0.38-6.12,2.42-8.42c-1.7-0.22-3.4-0.44-5.11-0.66c4.19,6.57,2.6,15.29-4.05,19.6c1.59,0.65,3.18,1.3,4.78,1.94
	c-2.44-11.12-0.07-21.95,6.44-31.25c-1.87,0-3.74,0-5.61,0c1.91,3.89,3.17,8,3.47,12.35c0.21,3.07,0.67,10.09-1.59,12.53
	c-3.27,3.52-4.16-5.73-4.08-8.06c0.15-4.69,1.7-8.73,4.28-12.61C251.26,185.45,245.63,182.19,243.32,185.66L243.32,185.66z"/>
<path d="M268.37,124.59c8.7,3.89,6.63,16.59,10.86,23.89c3.39,5.85,9.13,10.23,15.54,12.32c6.37,2.07,13.16,1.74,19.26-1.03
	c9.71-4.42,16.17-12.02,27.77-9.7c8.24,1.64,15.51,3.94,23.91,1.77c6.89-1.78,13.29-5.86,17.94-11.22
	c6.13-7.05,14.65-28.98-1.16-30.41c-1.01-0.09-2.4,0.66-2.81,1.61c-4.57,10.65-10.74,20.13-18.73,28.54c1.7,1.31,3.4,2.63,5.11,3.94
	c4.02-6.14,8.65-11.68,13.95-16.76c-1.7-1.31-3.4-2.63-5.11-3.94c-5.3,7.26-11.42,13.66-18.32,19.41c1.53,1.53,3.06,3.06,4.6,4.6
	c5.66-6.68,12.08-12.19,19.61-16.68c-1.48-1.48-2.97-2.97-4.45-4.45c-4.56,6.12-9.11,12.24-13.67,18.37
	c1.87,1.09,3.74,2.19,5.61,3.28c4.33-6.52,9.38-12.28,15.2-17.5c-1.53-1.53-3.06-3.07-4.6-4.6c-6.03,6.63-12.48,12.78-19.39,18.49
	c1.7,1.31,3.4,2.63,5.11,3.94c3.9-7.25,7.8-14.5,11.71-21.75c1.45-2.69-1.61-6.37-4.45-4.45c-8.03,5.44-16.06,10.88-24.09,16.32
	c1.31,1.7,2.63,3.4,3.94,5.11c5.06-5.87,10.13-11.75,15.19-17.62c2.24-2.6-0.75-7.41-3.94-5.11c-8.29,5.98-16.59,11.96-24.88,17.94
	c1.31,1.7,2.63,3.4,3.94,5.11c5.47-5.77,10.94-11.53,16.4-17.3c2.46-2.6-0.73-7.16-3.94-5.11c-10.46,6.7-20.92,13.41-31.37,20.11
	c1.31,1.7,2.63,3.4,3.94,5.11c8.79-7.06,16.95-14.73,24.53-23.07c2.34-2.58-0.8-7.39-3.94-5.11c-11.71,8.53-23.42,17.06-35.13,25.6
	c1.31,1.7,2.63,3.4,3.94,5.11c7.11-5.91,13.52-12.42,19.31-19.63c2.14-2.67-0.57-7.25-3.94-5.11c-8.49,5.4-16.99,10.8-25.48,16.2
	c1.31,1.7,2.63,3.4,3.94,5.11c4.31-4.89,8.63-9.79,12.94-14.68c2-2.27,0.12-6.52-3.16-5.43c-8.54,2.82-15.98,7.27-22.48,13.49
	c-2.6,2.48,0.93,7.36,3.94,5.11c4.95-3.72,7.6-8.5,7.74-14.74c0.06-2.6-2.77-3.87-4.89-2.81c-5.49,2.74-11.07,5.18-16.82,7.34
	c1.37,1.04,2.74,2.09,4.12,3.13c0.04-2.73,0.06-5.46,0.04-8.19c-0.01-1.7-1.48-3.33-3.25-3.25c-10.12,0.45-16.73,10.94-11.62,20.09
	c5.68,10.18,18.66,9.53,26.3,2.13c-1.81-0.48-3.62-0.96-5.43-1.43c1.55,7.18,10.43,10.75,16.36,6.2c-1.31-1.7-2.63-3.4-3.94-5.11
	c-2.96,2.49-6.06,4.59-9.41,6.49c1.59,1.22,3.18,2.45,4.78,3.67c0.38-1.48,0.77-2.97,1.15-4.45c0.41-1.58-0.52-3.69-2.27-4
	c-1.58-0.28-2.88-0.42-4.46-0.39c-3.87,0.08-5.05,0.15-2.77-4.33c2.28-4.5,7.06-8.99,10.18-12.96c1.79-2.27,0.25-6.62-3.16-5.43
	c-2.41,0.84-4.37,1.88-6.33,3.56c-1.22,1.04-2.27,2.26-3.44,3.35c-0.29,0.27-7.5,6.36-6.61,0.79c0.21-1.3,8.47-2.74,9.73-3.04
	c4.46-1.08,8.96-1.84,13.52-2.34c-0.55-2.02-1.09-4.04-1.64-6.06c-5.76,3.53-10.99,7.62-15.81,12.35c-2.65,2.6,0.73,6.93,3.94,5.11
	c10.73-6.11,21.83-11.35,33.39-15.67c-1.05-1.81-2.11-3.62-3.16-5.43c-4.56,4.98-9.47,9.51-14.79,13.66
	c-3.11,2.43,0.85,6.53,3.94,5.11c8.21-3.79,16.01-8.21,23.49-13.29c-1.09-1.87-2.19-3.74-3.28-5.61c-5.37,4-10.14,8.44-14.37,13.63
	c-2,2.46-0.18,6.22,3.16,5.43c8.99-2.11,17.7-4.93,26.22-8.48c-1.22-1.59-2.45-3.18-3.67-4.78c-2.14,3.72-4.28,7.43-6.42,11.15
	c-1.66,2.88,1.62,5.96,4.45,4.45c2.59-1.92,5.5-1.93,8.73-0.03c-0.44,2.53,2.21,5.41,4.78,3.67c10.35-7.02,19.09-15.61,26.33-25.81
	c-1.98-0.26-3.96-0.52-5.94-0.78c1.97,6.13,1.04,12.23-3.12,17.25c1.31-0.17,2.63-0.34,3.94-0.51c-1.86-1.31-3.73-2.61-5.59-3.92
	c-3.43-2.41-6.69,3.23-3.28,5.61c1.86,1.31,3.73,2.61,5.59,3.92c1.08,0.76,3.08,0.53,3.94-0.51c5.63-6.77,7.5-15.12,4.79-23.57
	c-0.9-2.8-4.33-3.05-5.94-0.78c-6.57,9.27-14.59,17.09-23.99,23.47c1.59,1.22,3.18,2.45,4.78,3.67c0.68-3.87-0.56-7.23-4.14-9.25
	c-4.72-2.67-9.8-0.38-14.14,1.94c1.48,1.48,2.97,2.97,4.45,4.45c2.14-3.72,4.28-7.43,6.42-11.15c1.28-2.22-0.92-5.92-3.67-4.78
	c-8.52,3.55-17.23,6.37-26.22,8.48c1.05,1.81,2.11,3.62,3.16,5.43c3.87-4.74,8.14-8.96,13.06-12.62c3.28-2.44,0.24-8.01-3.28-5.61
	c-7.48,5.08-15.28,9.49-23.49,13.29c1.31,1.7,2.63,3.4,3.94,5.11c5.33-4.15,10.23-8.68,14.79-13.66c2.02-2.2,0.08-6.65-3.16-5.43
	c-12.08,4.52-23.74,9.94-34.95,16.33c1.31,1.7,2.63,3.4,3.94,5.11c4.43-4.35,9.2-8.09,14.49-11.34c2.53-1.55,1.74-6.43-1.64-6.06
	c-7.68,0.85-15.51,2.11-22.82,4.71c-4.16,1.48-8.67,4.14-8.11,9.25c0.49,4.45,5.2,7.3,9.41,7.03c7.25-0.46,10.07-8.34,16.37-10.53
	c-1.05-1.81-2.11-3.62-3.16-5.43c-3.65,4.65-7.31,9.3-10.96,13.95c-1.86,2.38-4.29,4.86-4.08,8.11c0.53,8.13,9.98,5.59,14.97,6.47
	c-0.76-1.33-1.51-2.67-2.27-4c-0.38,1.48-0.77,2.97-1.15,4.45c-0.71,2.76,2.29,5.08,4.78,3.67c3.85-2.18,7.35-4.66,10.73-7.5
	c2.79-2.35-1-7.36-3.94-5.11c-2.65,2.03-6.07,1.14-6.81-2.31c-0.53-2.46-3.76-3.06-5.43-1.43c-3.99,3.87-10.17,5.55-14.45,1.16
	c-4.29-4.39-2.52-11.98,4.37-12.29c-1.08-1.08-2.17-2.17-3.25-3.25c0.02,2.73,0,5.46-0.04,8.19c-0.03,1.96,2.13,3.88,4.12,3.13
	c6.27-2.35,12.38-5.01,18.37-7.99c-1.63-0.94-3.26-1.87-4.89-2.81c-0.08,3.79-1.44,6.82-4.52,9.13c1.31,1.7,2.63,3.4,3.94,5.11
	c5.69-5.44,12.14-9.34,19.61-11.82c-1.05-1.81-2.11-3.62-3.16-5.43c-4.31,4.89-8.63,9.79-12.94,14.68
	c-2.33,2.64,0.66,7.19,3.94,5.11c8.49-5.4,16.98-10.8,25.48-16.2c-1.31-1.7-2.63-3.4-3.94-5.11c-5.79,7.21-12.2,13.72-19.31,19.63
	c-2.81,2.33,0.95,7.29,3.94,5.11c11.71-8.53,23.42-17.06,35.13-25.6c-1.31-1.7-2.63-3.4-3.94-5.11
	c-7.58,8.34-15.74,16.01-24.53,23.07c-2.88,2.31,0.86,7.08,3.94,5.11c10.46-6.7,20.92-13.41,31.37-20.11
	c-1.31-1.7-2.63-3.4-3.94-5.11c-5.47,5.77-10.94,11.53-16.4,17.3c-2.43,2.56,0.83,7.35,3.94,5.11c8.29-5.98,16.59-11.96,24.88-17.94
	c-1.31-1.7-2.63-3.4-3.94-5.11c-5.06,5.87-10.13,11.75-15.19,17.62c-2.26,2.62,0.69,7.31,3.94,5.11
	c8.03-5.44,16.06-10.88,24.09-16.32c-1.48-1.48-2.97-2.97-4.45-4.45c-3.9,7.25-7.8,14.5-11.71,21.75c-1.82,3.38,2.32,6.25,5.11,3.94
	c6.91-5.71,13.36-11.86,19.39-18.49c2.83-3.1-1.48-7.39-4.6-4.6c-6.23,5.59-11.59,11.85-16.22,18.82c-2.36,3.55,3.17,6.56,5.61,3.28
	c4.56-6.12,9.11-12.24,13.67-18.37c2.01-2.7-1.83-6.01-4.45-4.45c-7.96,4.76-14.93,10.62-20.92,17.7c-2.72,3.21,1.38,7.28,4.6,4.6
	c7.34-6.11,13.71-13.01,19.34-20.72c2.24-3.06-2.53-6.41-5.11-3.94c-5.7,5.47-10.64,11.47-14.97,18.07
	c-2.03,3.09,2.57,6.6,5.11,3.94c8.34-8.77,14.98-18.73,19.75-29.85c-0.94,0.54-1.87,1.07-2.81,1.61c3.94,0.36,2.39,7.86,1.79,9.87
	c-1.03,3.44-2.9,6.71-5.22,9.44c-4.28,5.04-10.31,8.69-16.82,9.95c-7.41,1.43-14.23-1.57-21.44-2.67
	c-6.22-0.94-11.71,0.24-17.19,3.24c-5.58,3.06-10.73,7.83-17.19,8.9c-6.68,1.11-13.77-1.52-18.51-6.24
	c-8.61-8.57-3.8-24.65-16.25-30.22C267.86,117.28,264.55,122.88,268.37,124.59L268.37,124.59z"/>
<path d="M383.37,277.43c11.23-6.37,23.09-10.99,35.65-13.96c4.07-0.96,2.35-7.23-1.73-6.27c-13.09,3.09-25.5,7.99-37.2,14.61
	C376.44,273.88,379.72,279.49,383.37,277.43L383.37,277.43z"/>
<path d="M384.35,297.48c7.55-0.9,14.88,0.09,21.78,3.33c3.77,1.77,7.07-3.84,3.28-5.61c-7.93-3.72-16.34-5.26-25.06-4.22
	C380.25,291.47,380.2,297.98,384.35,297.48L384.35,297.48z"/>
<path d="M384.12,316.29c7.67,5.32,14.35,11.77,20.07,19.14c2.56,3.3,7.13-1.33,4.6-4.6c-6.07-7.83-13.25-14.52-21.39-20.16
	C383.96,308.28,380.7,313.92,384.12,316.29L384.12,316.29z"/>
<path d="M275.69,268.71c-12.56-5.43-25.77-6.69-39.11-3.51c-4.07,0.97-2.35,7.24,1.73,6.27c11.51-2.75,23.2-1.86,34.1,2.85
	C276.21,275.96,279.53,270.36,275.69,268.71L275.69,268.71z"/>
<path d="M269.91,290.94c-10.56-1.02-20.73,0.96-30.26,5.58c-3.76,1.83-0.47,7.43,3.28,5.61c8.53-4.14,17.57-5.6,26.98-4.7
	C274.07,297.84,274.04,291.34,269.91,290.94L269.91,290.94z"/>
<path d="M267.8,309.96c-12.13,6.63-22.29,15.72-30.4,26.9c-2.46,3.39,3.18,6.64,5.61,3.28c7.44-10.26,16.96-18.49,28.07-24.57
	C274.75,313.57,271.47,307.95,267.8,309.96L267.8,309.96z"/>
<path d="M480.47,241.17c-10.88-4.4-19.5,9.17-20.47,18.4c-0.6,5.73,1.17,9.97,3.37,15.07c2.39,5.51,1,8.24-2.63,12.52
	c-2.6,3.06-5.45,5.88-8,8.98c-6.61,8.04-11.9,20.34-4.68,29.79c9.32,12.19,31.93,5.52,37.29,22.35c1.27,3.97,7.55,2.27,6.27-1.73
	c-3.03-9.52-11.25-14.47-20.36-17.29c-6.03-1.86-15.8-2.42-19.01-8.78c-3.29-6.51,0.68-14.13,4.68-19.21
	c5.25-6.66,16.51-14.63,14.46-24.44c-1.03-4.94-4.8-8.46-5.05-13.75c-0.26-5.53,4.18-18.95,12.38-15.64
	C482.62,249.01,484.31,242.72,480.47,241.17L480.47,241.17z"/>
<path d="M490.23,347.04c1.01-3.29,2.01-6.57,3.02-9.86c0.77-2.52-2.45-5.42-4.78-3.67c-1.69,1.27-2.89,2.47-3.97,4.3
	c2.02,0.55,4.04,1.09,6.06,1.64c0.04-5.15,0.93-9.98,2.96-14.74c1.29-3.04-2.52-7.07-5.11-3.94c-3.41,4.13-6.81,8.26-10.22,12.4
	c1.7,1.31,3.4,2.63,5.11,3.94c2.79-6.55,5.16-13.19,7.05-20.06c0.87-3.16-3.12-5.41-5.43-3.16c-3.37,3.28-6.75,6.57-10.12,9.85
	c1.7,1.31,3.4,2.63,5.11,3.94c3.58-6.71,6.55-13.63,8.94-20.85c1.08-3.27-3.16-5.19-5.43-3.16c-6.06,5.4-12.12,10.8-18.18,16.2
	c1.7,1.31,3.4,2.63,5.11,3.94c4.57-7.58,9.14-15.15,13.71-22.73c1.92-3.18-2.49-6.54-5.11-3.94c-6.62,6.57-13.24,13.14-19.86,19.72
	c1.7,1.31,3.4,2.63,5.11,3.94c5.92-8.82,11.83-17.64,17.75-26.45c2.15-3.2-2.47-6.29-5.11-3.94c-9.02,8.02-18.05,16.04-27.07,24.06
	c1.7,1.31,3.4,2.63,5.11,3.94c6.08-9.15,12.16-18.3,18.23-27.44c1.75-2.63-1.8-6.34-4.45-4.45c-7.57,5.4-13.81,11.84-18.91,19.62
	c-1.99,3.03,2.81,6.87,5.11,3.94c2.99-3.83,5.98-7.66,8.97-11.49c-1.81-1.05-3.62-2.11-5.43-3.16c-2.72,9.08-12.56,15.8-10.19,26.3
	c1.92,8.51,12.58,11.11,20.18,9.81c7.17-1.22,11.37-7.04,13.86-13.44c4.26-10.97,5.75-23.41,8.27-34.86
	c0.61-2.78-2.22-5.06-4.78-3.67c-3.5,1.9-7.03,3.72-10.61,5.47c1.63,0.94,3.26,1.87,4.89,2.81c0.15-3.99,1.27-7.23,3.82-10.36
	c-1.7-1.31-3.4-2.63-5.11-3.94c-2.26,3.68-4.85,6.92-7.92,9.95c1.7,1.31,3.4,2.63,5.11,3.94c3.63-8.53,6.4-17.21,8.22-26.31
	c0.49-2.43-2.31-5.56-4.78-3.67c-2.68,2.05-4.74,4.19-6.52,7.08c1.87,1.09,3.74,2.19,5.61,3.28c2.73-5.21,4.92-10.55,6.6-16.19
	c0.84-2.8-2.35-4.99-4.78-3.67c-4.62,2.53-8.43,5.67-11.74,9.79c1.81,1.05,3.62,2.11,5.43,3.16c1.8-5,3.59-10,5.39-15.01
	c1.29-3.6-4.03-5.48-5.94-2.51c-3.83,5.95-6.83,12.2-9.14,18.88c-0.44,1.27,0.28,3.07,1.49,3.67c2.27,1.13,3.14,1.36,5.67,1.54
	c4.18,0.3,4.16-6.21,0-6.5c-0.8-0.22-1.6-0.44-2.39-0.66c0.5,1.22,1,2.45,1.49,3.67c2.14-6.16,4.96-11.85,8.49-17.32
	c-1.98-0.83-3.96-1.67-5.94-2.51c-1.8,5-3.59,10-5.39,15.01c-1.06,2.96,3.41,5.69,5.43,3.16c2.95-3.68,6.27-6.5,10.42-8.77
	c-1.59-1.22-3.18-2.45-4.78-3.67c-1.52,5.1-3.47,9.92-5.95,14.64c-1.94,3.7,3.4,6.85,5.61,3.28c1.02-1.92,2.42-3.5,4.19-4.74
	c-1.59-1.22-3.18-2.45-4.78-3.67c-1.7,8.51-4.16,16.76-7.56,24.76c-1.36,3.19,2.27,6.73,5.11,3.94c3.49-3.43,6.38-7.09,8.93-11.26
	c1.88-3.07-2.73-6.85-5.11-3.94c-3.65,4.48-5.51,9.16-5.73,14.96c-0.1,2.63,2.79,3.83,4.89,2.81c3.58-1.75,7.11-3.57,10.61-5.47
	c-1.59-1.22-3.18-2.45-4.78-3.67c-1.69,7.67-3.39,15.34-5.08,23.01c-1.28,5.78-2.32,13-6.48,17.54c-5.96,6.5-21.02,2.85-17.5-7.5
	c2.15-6.32,7.52-10.87,9.48-17.41c0.88-2.92-3.37-5.8-5.43-3.16c-2.99,3.83-5.98,7.66-8.97,11.49c1.7,1.31,3.4,2.63,5.11,3.94
	c4.47-6.81,9.95-12.55,16.58-17.28c-1.48-1.48-2.97-2.97-4.45-4.45c-6.08,9.15-12.16,18.3-18.23,27.44
	c-2.13,3.21,2.46,6.29,5.11,3.94c9.02-8.02,18.05-16.04,27.07-24.06c-1.7-1.31-3.4-2.63-5.11-3.94
	c-5.92,8.82-11.83,17.64-17.75,26.45c-2.09,3.11,2.53,6.5,5.11,3.94c6.62-6.57,13.24-13.14,19.86-19.72
	c-1.7-1.31-3.4-2.63-5.11-3.94c-4.57,7.58-9.14,15.15-13.71,22.73c-1.97,3.27,2.42,6.33,5.11,3.94c6.06-5.4,12.12-10.8,18.18-16.2
	c-1.81-1.05-3.62-2.11-5.43-3.16c-2.22,6.69-4.96,13.08-8.28,19.3c-1.72,3.22,2.4,6.57,5.11,3.94c3.37-3.28,6.75-6.57,10.12-9.85
	c-1.81-1.05-3.62-2.11-5.43-3.16c-1.74,6.31-3.83,12.48-6.4,18.5c-1.29,3.04,2.52,7.07,5.11,3.94c3.41-4.13,6.81-8.26,10.22-12.4
	c-1.7-1.31-3.4-2.63-5.11-3.94c-2.49,5.85-3.8,11.65-3.85,18.02c-0.02,3.24,4.43,4.4,6.06,1.64c0.54-0.66,1.09-1.31,1.64-1.97
	c-1.59-1.22-3.18-2.45-4.78-3.67c-1.01,3.29-2.01,6.57-3.02,9.86C482.73,349.32,489,351.03,490.23,347.04L490.23,347.04z"/>
<path d="M165.04,259.66c3.81,5.23,8.98,7.88,14.42,11.13c3.75,2.24,7.41,4.81,8.71,9.23c1.37,4.64-0.09,9.67-1.33,14.16
	c-3.98,14.45-5.96,27.97,3.57,40.9c7.8,10.57,36.65,20.62,26.17,37.35c-5.47,8.73-16.63,9.86-25.97,9.2
	c-6.55-0.46-13.23-2.76-18.59,2.12c-3.1,2.82,1.51,7.41,4.6,4.6c3.28-2.99,12.37-0.23,16.27-0.08c4.04,0.15,8.12-0.05,12.08-0.93
	c6.91-1.54,13.45-5.52,17.23-11.62c9.48-15.32-4.69-27.28-16.3-35.25c-8.5-5.84-14.7-13.29-16.05-23.83
	c-1.25-9.79,3.45-18.41,4.9-27.87c1.06-6.93-0.15-13.65-5.29-18.7c-5.56-5.48-14.12-7.26-18.79-13.68
	C168.21,253.03,162.57,256.27,165.04,259.66L165.04,259.66z"/>
<path d="M176.54,269.7c-4.2,4.47-6.38,9.41-7.14,15.48c-0.39,3.13,3.65,3.83,5.55,2.3c3.53-2.84,6.39-6,9-9.68
	c-1.87-1.09-3.74-2.19-5.61-3.28c-4.3,6.08-7.18,12.67-8.73,19.96c-0.71,3.32,2.94,5.21,5.43,3.16c4.16-3.41,8.32-6.82,12.48-10.23
	c-1.7-1.31-3.4-2.63-5.11-3.94c-4.77,9.44-8.92,19.13-12.46,29.1c-1.18,3.32,3.19,5.07,5.43,3.16c6.02-5.12,10.82-11.14,14.49-18.13
	c-1.98-0.83-3.96-1.67-5.94-2.51c-3.33,12.67-7.67,24.97-13.14,36.89c-1.72,3.75,3.76,7.07,5.61,3.28
	c2.91-5.95,6.41-11.31,10.8-16.29c-1.85-0.77-3.7-1.53-5.55-2.3c-1.35,10.41-4.26,20.44-8.65,29.97c-1.44,3.13,2.42,6.85,5.11,3.94
	c3.73-4.04,7.46-8.08,11.19-12.12c-1.81-1.05-3.62-2.11-5.43-3.16c-3.21,10.18-7.85,19.56-13.9,28.35
	c-2.07,3.01,2.73,6.78,5.11,3.94c5.53-6.61,11.06-13.22,16.59-19.83c-1.7-1.31-3.4-2.63-5.11-3.94c-4.24,8.4-8.48,16.8-12.72,25.2
	c-1.6,3.17,2.44,6.73,5.11,3.94c7.31-7.64,14.61-15.27,21.92-22.91c-1.7-1.31-3.4-2.63-5.11-3.94c-5.1,9.92-10.69,19.54-16.79,28.88
	c-1.98,3.04,2.78,6.85,5.11,3.94c7.69-9.64,15.89-18.82,24.6-27.56c-1.7-1.31-3.4-2.63-5.11-3.94
	c-6.09,9.66-12.17,19.31-18.26,28.97c-1.97,3.13,2.54,6.59,5.11,3.94c6.73-6.96,13.46-13.92,20.19-20.87
	c-1.81-1.05-3.62-2.11-5.43-3.16c-2.29,6.29-5.35,12.01-9.19,17.49c-2.1,2.99,2.81,6.84,5.11,3.94c5.15-6.5,10.87-12.31,17.29-17.56
	c-1.85-0.77-3.7-1.53-5.55-2.3c-0.57,5.54-2.58,10.44-6.11,14.78c-2.59,3.19,1.76,7.76,4.6,4.6c2.97-3.3,5.94-6.61,8.91-9.91
	c-1.81-1.05-3.62-2.11-5.43-3.16c-0.83,4.74-2.13,9.19-4.15,13.58c1.98,0.26,3.96,0.52,5.94,0.78c-0.82-2.36-1.63-4.72-2.45-7.08
	c-1.36-3.93-7.64-2.24-6.27,1.73c0.82,2.36,1.63,4.72,2.45,7.08c0.82,2.38,4.68,3.52,5.94,0.78c2.25-4.89,3.88-9.82,4.8-15.13
	c0.51-2.92-3.06-5.8-5.43-3.16c-2.97,3.3-5.94,6.61-8.91,9.91c1.53,1.53,3.06,3.06,4.6,4.6c4.7-5.78,7.26-11.96,8.01-19.38
	c0.32-3.11-3.62-3.87-5.55-2.3c-6.42,5.25-12.15,11.06-17.29,17.56c1.7,1.31,3.4,2.63,5.11,3.94c4.16-5.94,7.37-12.24,9.84-19.04
	c1.13-3.12-3.27-5.4-5.43-3.16c-6.73,6.96-13.46,13.92-20.19,20.87c1.7,1.31,3.4,2.63,5.11,3.94c6.09-9.66,12.17-19.31,18.26-28.97
	c1.98-3.15-2.52-6.54-5.11-3.94c-8.71,8.74-16.9,17.92-24.6,27.56c1.7,1.31,3.4,2.63,5.11,3.94c6.1-9.34,11.69-18.96,16.79-28.88
	c1.63-3.17-2.45-6.72-5.11-3.94c-7.31,7.64-14.61,15.27-21.92,22.91c1.7,1.31,3.4,2.63,5.11,3.94c4.24-8.4,8.48-16.8,12.72-25.2
	c1.56-3.1-2.6-6.93-5.11-3.94c-5.53,6.61-11.06,13.22-16.59,19.83c1.7,1.31,3.4,2.63,5.11,3.94c6.37-9.25,11.17-19.2,14.55-29.9
	c0.97-3.07-3.25-5.53-5.43-3.16c-3.73,4.04-7.46,8.08-11.19,12.12c1.7,1.31,3.4,2.63,5.11,3.94c4.9-10.65,8.03-21.63,9.53-33.25
	c0.36-2.8-3.8-4.29-5.55-2.3c-4.73,5.38-8.66,11.17-11.81,17.61c1.87,1.09,3.74,2.19,5.61,3.28c5.69-12.42,10.32-25.22,13.79-38.44
	c0.91-3.48-4.19-5.85-5.94-2.51c-3.43,6.53-7.86,12.03-13.47,16.81c1.81,1.05,3.62,2.11,5.43,3.16c3.36-9.44,7.29-18.6,11.81-27.54
	c1.72-3.4-2.27-6.27-5.11-3.94c-4.16,3.41-8.32,6.82-12.48,10.23c1.81,1.05,3.62,2.11,5.43,3.16c1.44-6.75,4.09-12.78,8.08-18.41
	c2.42-3.42-3.21-6.67-5.61-3.28c-2.29,3.22-4.92,5.89-7.99,8.36c1.85,0.77,3.7,1.53,5.55,2.3c0.53-4.23,2.33-7.79,5.23-10.88
	C184,271.25,179.41,266.64,176.54,269.7L176.54,269.7z"/>
<path d="M201.58,337.43c-4.85,2.68-8.95,6.07-12.42,10.4c1.81,1.05,3.62,2.11,5.43,3.16c1.06-4.76,4.49-13.36-2.62-15.03
	c-5.81-1.36-8.66,4.05-9.52,8.84c-0.61,3.35,2.85,5.17,5.43,3.16c1.8-1.47,3.82-2.26,6.05-2.36c-1.37-1.04-2.74-2.09-4.12-3.13
	c-0.27,5.68-0.54,11.36-0.81,17.04c-0.18,3.84-1.53,9.62-0.02,13.38c2.78,6.93,13.14,2.34,18.13,1.29c-1.33-1.33-2.67-2.67-4-4
	c-1.65,5.64-7.07,7.79-12.55,7.8c-2.6,0-11.32-0.55-13.02-3.25c-0.63-1-0.14-6.39-0.16-7.59c-0.05-2.11-0.09-4.22-0.14-6.32
	c-0.1-4.64-0.2-9.28-0.3-13.91c-0.4-18.55-0.8-37.1-1.19-55.65c-0.09-4.18-6.42-4.19-6.5,0c-0.08,3.92-0.15,7.85-0.23,11.77
	c-0.07,3.56,5.87,4.56,6.39,0.86c1.02-7.37,2.27-14.82,4.31-21.98c0.71-2.48,2.54-8.4,3.89-2.91c1.08,4.39,0.24,8.65-1.47,12.72
	c2.09,0,4.18,0,6.27,0c-1.66-8.65-5.29-16.17-10.74-23.05c-1.88-2.37-5.44-0.24-5.55,2.3c-0.18,3.93,0.67,7.14,2.7,10.49
	c2.16,3.57,7.79,0.31,5.61-3.28c-1.49-2.46-1.94-4.41-1.81-7.21c-1.85,0.77-3.7,1.53-5.55,2.3c4.73,5.97,7.64,12.73,9.07,20.18
	c0.68,3.54,5.18,2.6,6.27,0c2.47-5.87,4.58-25.34-6.7-24.05c-4.21,0.48-6.4,4.84-7.62,8.38c-2.66,7.73-3.84,16.32-4.96,24.38
	c2.13,0.29,4.26,0.58,6.39,0.86c0.08-3.92,0.15-7.85,0.23-11.77c-2.17,0-4.33,0-6.5,0c0.58,26.98,0.88,53.98,1.74,80.95
	c0.12,3.69,0.01,6.75,3.45,8.89c3.87,2.42,10.43,3.14,14.94,3.37c8.84,0.45,17.41-3.67,20.01-12.55c0.73-2.5-1.65-4.49-4-4
	c-2.6,0.55-5.56,1.64-8.2,1.72c-1.8,0.06-1.28,0.56-2.14-0.39c-0.66-0.73,0.25-5.16,0.29-6.09c0.33-6.9,0.66-13.79,0.99-20.69
	c0.11-2.32-2.16-3.43-4.12-3.13c-3.59,0.53-6.08,1.83-8.92,4.03c1.81,1.05,3.62,2.11,5.43,3.16c0.9-4.99-0.13,1.55-0.39,2.73
	c-0.64,2.88,3.25,5.89,5.43,3.16c3.17-3.94,6.66-6.93,11.11-9.38C208.53,341.02,205.25,335.4,201.58,337.43L201.58,337.43z"/>
</svg>
