<?xml version="1.0" encoding="utf-8"?>
<!-- Generator: Adobe Illustrator 28.2.0, SVG Export Plug-In . SVG Version: 6.00 Build 0)  -->
<svg version="1.1" id="Layer_1" xmlns="http://www.w3.org/2000/svg" xmlns:xlink="http://www.w3.org/1999/xlink" x="0px" y="0px"
	 viewBox="0 0 640 480" style="enable-background:new 0 0 640 480;" xml:space="preserve">
<style type="text/css">
	.st0{fill:#FFFFFF;}
	.st1{fill:#FFFF00;}
</style>
<g>
	<path d="M488.14,393.19c-86.46,105.12-267.19,110.16-343.45-14.03c-11.79-19.2-20.07-41.18-32.28-60.01
		c-12.21-18.83-30-34.95-50.15-34.95c6.96-11.31,16.66-20.28,27.66-25.57c-15.17-11.76-34.3-16.23-52.15-12.2
		c22.79-52.29,61.82-94.53,108.03-116.94c5.9-2.86,12.27-5.73,15.93-11.87c3.32-5.58,3.74-12.77,4.32-19.55
		C168.79,65.9,177.83,34.51,192.25,7c18.65,28.46,31.35,62.26,36.69,97.63c68.45-3.87,112.84-0.09,180.68,11.25
		c8.41-26.82,41.19-53.64,49.6-80.47c9.38,32.03,14.09,65.94,13.84,99.81c51.85,11.06,97.51,55.94,115.94,113.96
		c-10.03,1.46-19.79,5.45-28.42,11.62c12.39,15.8,21.52,35.11,26.39,55.82c-20.37-4.01-40.93,7.53-56.61,23.33
		C514.67,355.75,502.49,375.73,488.14,393.19z"/>
</g>
<path class="st0" d="M424.4,203.81c-9.73,12.46-13.98,28.59-9.78,44.11c3.51,12.95,16.18,21.83,27.56,10.53
	c5.57-5.52,7.61-14.11,9.29-21.5c1.73-7.64,2.72-16.19-0.82-23.5c-5-10.32-19.68-15.43-28.24-6.4c-3.6,3.79,2.14,9.55,5.74,5.74
	c8.19-8.64,16.79,4.85,16.78,12.41c-0.01,8.01-2.54,21.54-8.53,27.24c-10.78,10.26-15.22-8.99-15.25-16.77
	c-0.04-9.5,3.15-18.65,8.99-26.13C433.32,205.48,427.61,199.69,424.4,203.81L424.4,203.81z"/>
<path class="st0" d="M204.37,197.81c-9.73,12.46-13.98,28.59-9.78,44.11c3.51,12.95,16.18,21.83,27.56,10.53
	c5.57-5.52,7.61-14.11,9.29-21.5c1.73-7.64,2.72-16.19-0.82-23.5c-5-10.32-19.68-15.43-28.24-6.4c-3.6,3.79,2.14,9.55,5.74,5.74
	c8.19-8.64,16.79,4.85,16.78,12.41c-0.01,8.01-2.54,21.54-8.53,27.24c-10.78,10.26-15.22-8.99-15.25-16.77
	c-0.04-9.5,3.15-18.65,8.99-26.13C213.3,199.48,207.59,193.69,204.37,197.81L204.37,197.81z"/>
<path class="st0" d="M254.2,296.41c0.27,17.31,13.22,36.35,32.03,36.34c19.87-0.01,29.82-20.38,36.27-36.11
	c-2.66-0.36-5.32-0.72-7.98-1.08c2.25,19.41,8.82,39.55,31.54,41.05c20.51,1.35,35.06-16.27,36.21-35.54c0.31-5.22-7.81-5.2-8.12,0
	c-0.91,15.16-12.51,29.06-28.66,27.32c-17.33-1.86-21.16-18.24-22.85-32.83c-0.54-4.64-6.2-5.41-7.98-1.08
	c-4.7,11.46-11.4,27.24-25.11,29.83c-15.73,2.97-27.02-14.1-27.23-27.9C262.24,291.19,254.12,291.18,254.2,296.41L254.2,296.41z"/>
<path class="st0" d="M322.81,280.31c-8.04-8.44-22.24-1.68-21.14,9.78c1.1,11.44,15.19,18.86,25.11,12.74
	c8.73-5.38,9.22-20.2-0.22-25.12c-9.15-4.77-21.97,4.41-18.85,14.72c3.16,10.45,19.51,10.15,22.86,0.15
	c0.62-1.85-0.46-3.54-1.87-4.59c-4.28-3.19-12.62-5.47-14.53,1.66c-1.21,4.53,2.41,9.97,7.42,8.28c4.93-1.67,2.81-9.52-2.16-7.83
	c1.98,0.43,2.94,1.54,2.87,3.32c0.8,0.48,1.57,1,2.29,1.59c-0.62-1.53-1.24-3.06-1.87-4.59c-1.1,3.3-8.18,1.76-7.28-2.01
	c0.55-2.29,3.62-4.03,5.85-3.86c2.82,0.21,4.1,2.94,4.09,5.49c-0.01,6.79-7.47,8.55-12.33,4.92c-2.41-1.8-4.84-6.19-2.55-8.94
	c1.66-2,4.89-1.7,6.53,0.03C320.68,289.85,326.42,284.1,322.81,280.31L322.81,280.31z"/>
<path class="st0" d="M460.57,305.76c16.6,5.8,32.13,13.71,46.66,23.61c4.33,2.95,8.4-4.08,4.1-7.02
	c-15.1-10.29-31.35-18.41-48.6-24.43C457.78,296.2,455.66,304.04,460.57,305.76L460.57,305.76z"/>
<path class="st0" d="M459.27,330.68c9.13,4.69,16.95,10.98,23.51,18.88c3.34,4.03,9.06-1.75,5.74-5.74
	c-6.96-8.37-15.47-15.18-25.16-20.15C458.72,321.28,454.61,328.29,459.27,330.68L459.27,330.68z"/>
<path class="st0" d="M448.33,348.55c4.03,7.33,8.06,14.66,12.1,21.98c2.52,4.58,9.54,0.49,7.01-4.1
	c-4.03-7.33-8.06-14.66-12.1-21.98C452.82,339.87,445.81,343.96,448.33,348.55L448.33,348.55z"/>
<path class="st0" d="M184.83,279.65c-15.54-3.37-30.87-1.36-45.01,5.93c-4.65,2.39-0.54,9.41,4.1,7.01
	c12.14-6.25,25.41-8,38.75-5.11C187.76,288.59,189.94,280.76,184.83,279.65L184.83,279.65z"/>
<path class="st0" d="M179.85,299.56c-11.64,2.65-22.04,8.29-30.72,16.47c-3.81,3.59,1.94,9.33,5.74,5.74
	c7.71-7.26,16.82-12.03,27.14-14.38C187.11,306.23,184.95,298.39,179.85,299.56L179.85,299.56z"/>
<path class="st0" d="M183.04,325.56c-6.53,5.65-13.07,11.29-19.6,16.94c-3.96,3.42,1.8,9.15,5.74,5.74
	c6.53-5.65,13.07-11.29,19.6-16.94C192.75,327.88,186.98,322.16,183.04,325.56L183.04,325.56z"/>
<path class="st1" d="M318.64,396.74c-9.76-24.37-47.01-4.23-46.9,16.47c0.14,25.42,45.39,25.68,58.53,11.91
	c17.87-18.73-6.34-44.41-27.74-34.15c-9.43,4.52-18.62,16.29-14.15,27.18c4.11,10.03,16.38,12.53,25.66,8.83
	c8.13-3.25,23.82-16.44,13.63-25.67c-9.68-8.76-24.41,2.54-28.61,11.56c-1.19,2.55-0.17,4.96,2.43,5.97
	c8.61,3.33,18.21-0.56,22.13-8.9c1.34-2.85-0.27-5.92-3.51-6.11c-7.74-0.46-14.24,1.89-20.27,6.65c-1.29,1.02-1.59,3.6-0.64,4.92
	c5.2,7.23,15.79,8.54,21.65,1.21c1.71-2.14,1.53-6.17-1.79-6.79c-11.54-2.14-23.13-3.23-34.87-3.19c-4.77,0.02-5.26,6.45-1.08,7.98
	c7.94,2.89,15.95,0.91,21.87-5.03c2.51-2.52,0.63-6.88-2.87-6.93c-9.82-0.16-18.35,4.94-22.57,13.86c-1.13,2.39-0.25,5.16,2.43,5.97
	c10.85,3.27,21.86,5.15,33.18,5.77c5.22,0.29,5.21-7.84,0-8.12c-10.6-0.58-20.86-2.42-31.02-5.48c0.81,1.99,1.62,3.98,2.43,5.97
	c3.04-6.43,8.34-9.96,15.56-9.84c-0.96-2.31-1.91-4.62-2.87-6.93c-4,4.01-8.77,4.83-13.96,2.94c-0.36,2.66-0.72,5.32-1.08,7.98
	c11.02-0.04,21.87,0.88,32.71,2.9c-0.6-2.26-1.2-4.53-1.79-6.79c-2.11,2.63-6.28,4.07-8.89,0.43c-0.21,1.64-0.42,3.28-0.64,4.92
	c4.37-3.45,9.09-4.6,14.53-4.27c-1.17-2.04-2.34-4.07-3.51-6.11c-2.48,5.28-7.53,7.26-12.96,5.17c0.81,1.99,1.62,3.98,2.43,5.97
	c1.57-3.37,3.52-6.2,6.79-8.19c1.85-1.16,3.86-1.87,6.02-2.13c2.31,3.72,2.02,6.5-0.88,8.35c-5.43,5.84-21.59,9.63-22.63-2.37
	c-0.76-8.75,10.26-15.9,17.8-16.16c8.21-0.28,16.05,6.83,15.03,15.28c-2.15,17.79-29.84,16.45-41.56,10.43
	c-22.66-11.63,17.38-40.23,24.17-23.27C312.72,403.69,320.58,401.6,318.64,396.74L318.64,396.74z"/>
<path class="st1" d="M173.9,420.89c33.96-15.06,71.61-20.35,108.41-15.19c5.11,0.72,7.32-7.11,2.16-7.83
	c-39.19-5.5-78.48-0.04-114.67,16C165.03,415.99,169.16,422.99,173.9,420.89L173.9,420.89z"/>
<path class="st1" d="M184.63,443.57c30.16-16.77,64.48-23.34,98.72-19.2c5.18,0.63,5.13-7.5,0-8.12
	c-35.6-4.3-71.5,2.89-102.82,20.31C175.96,439.1,180.05,446.12,184.63,443.57L184.63,443.57z"/>
<path class="st1" d="M322.28,431.44c35.6-1.87,70.86,8.96,98.97,31c4.07,3.19,9.86-2.52,5.74-5.74
	c-29.82-23.37-66.82-35.37-104.71-33.38C317.08,423.59,317.05,431.71,322.28,431.44L322.28,431.44z"/>
<path class="st1" d="M332.28,412.28c34.92,2.49,68.3,14.01,97.47,33.35c4.37,2.9,8.44-4.14,4.1-7.01
	c-30.37-20.14-65.23-31.87-101.57-34.46C327.06,403.78,327.08,411.91,332.28,412.28L332.28,412.28z"/>
</svg>
