<?xml version="1.0" encoding="utf-8"?>
<!-- Generator: Adobe Illustrator 28.2.0, SVG Export Plug-In . SVG Version: 6.00 Build 0)  -->
<svg version="1.1" id="Layer_1" xmlns="http://www.w3.org/2000/svg" xmlns:xlink="http://www.w3.org/1999/xlink" x="0px" y="0px"
	 viewBox="0 0 640 480" style="enable-background:new 0 0 640 480;" xml:space="preserve">
<style type="text/css">
	.st0{fill:#FFFFFF;}
	.st1{fill:#FFFF00;}
</style>
<g>
	<path d="M119.69,366.61c-53.59-51.18-80.36-124.08-41.37-210.97c3.01-6.71,42.91-60.57,43.36-59.31
		c-10-28.21-17.23-57.53-21.52-87.33c33.3,4.39,58.11,36.82,91,43.91c13.81,2.98,28.07,1.25,42.11-0.02
		c54.87-4.93,110.32-2.49,164.62,7.26c15.58,2.8,31.19,6.21,46.99,5.94c37.66-0.62,71.96-21.73,104.3-42.22
		c-1.24,28.62-11.73,56.7-29.29,78.44c5.6-6.89,49.93,114.25,49.93,131.18C569.9,469.64,251.02,492.04,119.69,366.61z"/>
</g>
<path class="st0" d="M424.01,171.96c20.8-1.21,41.57-0.62,62.28,1.79c-1.28-1.03-2.55-2.06-3.83-3.1
	c6.08,18.88-5.24,39.63-24.69,40.62c-21.03,1.06-31-19.71-33.35-38.95c-0.65-5.31-8.6-5.38-7.94,0
	c3.01,24.65,16.79,50.11,43.57,47.2c23.27-2.52,37.55-27.87,30.07-51.11c-0.62-1.94-1.98-2.88-3.83-3.1
	c-20.71-2.41-41.47-3-62.28-1.79C418.93,163.82,418.9,172.26,424.01,171.96L424.01,171.96z"/>
<path class="st0" d="M166.79,170.92c20,1.24,40,2.49,60,3.73c-1.32-1.41-2.65-2.81-3.97-4.22c-0.93,19.44-15.6,38.58-34.79,39.09
	c-18.26,0.48-34.62-19.09-31.05-38.25c0.99-5.3-6.66-7.57-7.66-2.24c-4.44,23.79,13.74,47.74,36.57,48.89
	c24.52,1.23,43.69-22.92,44.86-47.49c0.11-2.37-1.92-4.09-3.97-4.22c-20-1.24-40-2.49-60-3.73
	C161.68,162.16,161.7,170.6,166.79,170.92L166.79,170.92z"/>
<path class="st0" d="M149.08,171.01c7.11,1.08,14.23,2.16,21.34,3.24c5,0.76,7.16-7.37,2.11-8.13c-7.11-1.08-14.23-2.16-21.34-3.24
	C146.19,162.11,144.03,170.24,149.08,171.01L149.08,171.01z"/>
<path class="st0" d="M174.74,169.63c-9.53,7.11-5.67,22.75,5.35,25.4c14.32,3.45,22.94-11.58,25.75-24.08
	c0.65-2.91-1.24-5.02-3.83-5.34c-7.5-0.93-18.19-0.68-20.88,8.68c-1.92,6.67,1.48,14.54,8.56,14.67c3.48,0.06,5.19-4.64,2.81-7.2
	c-3.72-4.01-9.22-3.09-12.11,1.42c-2.89,4.5,3.99,8.72,6.86,4.26c-0.12,0.1-0.24,0.19-0.36,0.29c0.94-2.4,1.87-4.8,2.81-7.2
	c-2.89-0.05-0.2-5.14,1.02-5.85c3.28-1.91,7.76-1.06,11.3-0.62c-1.28-1.78-2.55-3.56-3.83-5.34c-1.55,6.87-4.21,15.33-11.28,17.69
	c-2.77,0.92-6.4,0.99-8.42-1.6c-1.64-2.1-2.03-6.17,0.27-7.89C182.9,173.82,178.94,166.5,174.74,169.63L174.74,169.63z"/>
<path class="st0" d="M443.04,170.12c-9.39,8.49-2.53,24.57,8.88,25.52c14.66,1.22,21.9-14.62,20.9-28.05c-2.65,0-5.29,0-7.94,0
	c0.43,5.4-1.97,10.69-6.91,12.77c1.63,0.98,3.26,1.96,4.88,2.95c-1.1-3.75-2.21-7.49-3.31-11.24c-0.65-2.19-2.74-3.54-4.88-2.95
	c-6.92,1.93-8.77,10.42-4.6,16.06c3.16,4.27,8.74-1.74,5.61-5.97c-0.61-0.82,0.57-1.81,1.09-1.96c-1.63-0.98-3.26-1.96-4.88-2.95
	c1.1,3.75,2.21,7.49,3.31,11.24c0.59,2,2.83,3.81,4.88,2.95c8.09-3.39,13.49-11.48,12.74-20.9c-0.42-5.36-8.34-5.43-7.94,0
	c0.56,7.52-1.14,17.13-9.14,19.32c-6.03,1.65-12.92-5.55-7.08-10.83C452.55,172.56,446.91,166.61,443.04,170.12L443.04,170.12z"/>
<path class="st0" d="M315.38,228.96c-5.83-3.73-13.71-1.69-17.05,4.84c-3.98,7.78,0.78,17.22,7.74,20.75
	c15.12,7.68,37.03-9.25,27.35-26.69c-8.53-15.36-30.12-6.53-28,10.74c2.02,16.46,24.03,15.47,28.67,1.44
	c0.45-1.36-0.05-3.14-1.02-4.1c-7.38-7.35-20.06-3.75-22.29,7.02c-0.46,2.21,0.61,4.58,2.77,5.19c7.35,2.08,12.17-7.08,7.32-12.96
	c-2.21-2.69-7-0.6-6.78,2.98c1.73,27.63,4.59,55.55,3.54,83.27c-0.76,20.05-5.25,43.92-23.93,53.46c1.6,2.21,3.21,4.42,4.81,6.62
	c9.13-8.95,18.26-17.9,27.39-26.85c-2.21-0.62-4.42-1.24-6.64-1.86c2.87,11.02,8.45,20.34,16.8,27.6c3.92,3.41,9.57-2.53,5.61-5.97
	c-7.32-6.36-12.23-14.16-14.76-23.88c-0.82-3.15-4.46-3.99-6.64-1.86c-9.13,8.95-18.26,17.9-27.39,26.85
	c-3.49,3.42,0.94,8.6,4.81,6.62c18.34-9.37,25.12-31.02,27.22-51.14c3.18-30.57-0.98-62.33-2.89-92.87
	c-2.26,0.99-4.52,1.99-6.78,2.98c0.14-0.38,0.27-0.76,0.41-1.14c0.92,1.73,1.85,3.46,2.77,5.19c0.89-4.32,5.68-6.62,9.02-3.3
	c-0.34-1.37-0.68-2.74-1.02-4.1c-1.51,4.57-8.57,6.73-11.85,2.82c-5.28-6.28,4.12-16.26,10.17-10.79c5.97,5.4,2.71,12.65-3.27,15.94
	c-3.87,2.13-7.29,2.59-11.35,0.8c-3.23-0.59-5-2.81-5.31-6.65c1.16-4.18,3.35-5.41,6.55-3.69
	C315.76,239.06,319.75,231.76,315.38,228.96L315.38,228.96z"/>
<path class="st0" d="M270.1,77.35c9.08-2.07,18.09-2.49,27.31-1.48c-1.32-1.41-2.65-2.81-3.97-4.22c0.6,8.62,0.51,17.24-0.73,25.8
	c-0.52,3.64-0.88,8.38-2.35,11.74c-0.22,3.4-2.15,5.37-5.79,5.92c-1.18-1.4-2.16-2.94-2.94-4.62c-3.86-6.85-8.9-15.51-11.21-23.09
	c-1.68-5.53-1.2-4.61,4.32-2.72c3.32,1.14,5.21,2.03,8.69,1.64c-1.32-1.41-2.65-2.81-3.97-4.22c-0.51,9.12-1.02,18.24-1.53,27.37
	c-0.23,4.08,5.7,5.89,7.4,2.13c4.41-9.75,5.74-19.49,4.27-30.18c-0.65-4.74-7.89-3.55-7.8,1.12c0.18,8.98-0.86,17.55-3.19,26.19
	c-1.21,4.46,5.44,7.73,7.26,3.25c4.01-9.92,6.12-19.93,6.2-30.74c0.02-3.09-3.43-5.41-5.97-3.64c-6.48,4.5-12.96,8.99-19.44,13.49
	c1.6,2.21,3.21,4.42,4.81,6.62c6.52-5.73,13.7-9.61,21.85-12.03c-1.63-1.73-3.26-3.46-4.88-5.19c-1.39,9.21-2.77,18.42-4.16,27.63
	c-0.8,5.31,6.85,7.6,7.66,2.24c1.39-9.21,2.77-18.42,4.16-27.63c0.46-3.06-1.72-6.13-4.88-5.19c-9.49,2.82-17.77,7.53-25.36,14.2
	c-3.47,3.05,1.06,9.23,4.81,6.62c6.48-4.5,12.96-8.99,19.44-13.49c-1.99-1.21-3.98-2.43-5.97-3.64c-0.07,9.25-1.67,17.97-5.12,26.48
	c2.42,1.08,4.84,2.17,7.26,3.25c2.53-9.34,3.68-18.71,3.48-28.43c-2.6,0.37-5.2,0.75-7.8,1.12c1.14,8.28-0.07,16.15-3.47,23.68
	c2.47,0.71,4.93,1.42,7.4,2.13c0.51-9.12,1.02-18.24,1.53-27.37c0.12-2.11-1.92-4.45-3.97-4.22c-5.93,0.66-22.02-9.47-22.94,4.52
	c-0.39,6,4.84,12.9,7.27,17.91c3.04,6.26,5.59,13.59,9.83,19.06c6.13,7.91,15.19,6.99,18.91-2.79c5.22-13.71,5.88-30.4,4.86-44.94
	c-0.17-2.46-1.69-3.97-3.97-4.22c-9.96-1.09-19.65-0.44-29.42,1.78C263,70.35,265.11,78.48,270.1,77.35L270.1,77.35z"/>
<path class="st0" d="M329.17,75.05c-4.75,14.15-12.49,56.03,9.48,59.72c23.84,4,25.97-37.36,29.15-53.02
	c0.47-2.29-0.63-4.47-2.77-5.19c-9.85-3.31-19.82-3-29.42,1.09c-3.71,1.58-3.79,6.58,0,8.14c5.09,2.09,10.06,3.07,15.5,3.23
	c-1.14-2.12-2.29-4.23-3.43-6.35c-8.67,12.72-14.98,26.75-18.94,41.87c-0.85,3.23,2.96,7.1,5.83,4.76
	c12.11-9.85,18.67-24.93,16.75-41.19c-0.39-3.29-4.23-5.99-6.78-2.98c-7.81,9.22-10.4,21.44-6.52,33.22
	c0.76,2.32,3.62,4.24,5.83,2.52c10.35-8.04,14.99-21.03,11.71-34.31c-0.59-2.38-2.78-3.31-4.88-2.95
	c-11.55,1.99-19.73,13.27-18.72,25.63c0.44,5.37,8.38,5.42,7.94,0c-0.73-8.94,4.61-16.07,12.89-17.5c-1.63-0.98-3.26-1.96-4.88-2.95
	c2.31,9.34-0.64,19.02-8.06,24.78c1.94,0.84,3.89,1.68,5.83,2.52c-2.93-8.89-1.5-17.96,4.48-25.01c-2.26-0.99-4.52-1.99-6.78-2.98
	c1.55,13.1-2.81,25.76-12.81,33.9c1.94,1.59,3.89,3.18,5.83,4.76c3.8-14.5,9.84-27.68,18.14-39.86c1.85-2.72-0.67-6.27-3.43-6.35
	c-4.76-0.13-8.98-1.11-13.39-2.93c0,2.71,0,5.42,0,8.14c8.36-3.56,16.61-3.98,25.2-1.09c-0.92-1.73-1.85-3.46-2.77-5.19
	c-1.78,8.75-3.49,17.52-5.34,26.26c-1.54,7.28-3.56,19.31-12.24,20.61c-17.43,2.62-8.53-40.76-5.74-49.09
	C338.55,72.17,330.88,69.96,329.17,75.05L329.17,75.05z"/>
<path class="st1" d="M482.23,285.44c32.66-7.42,65.67-12.56,98.96-15.37c5.06-0.43,5.1-8.87,0-8.44
	c-33.99,2.87-67.73,8.1-101.07,15.67C475.12,278.44,477.24,286.57,482.23,285.44L482.23,285.44z"/>
<path class="st1" d="M482.29,318.77c26.37-4.53,53.06-2.89,78.81,4.59c4.94,1.43,7.04-6.7,2.11-8.13
	c-27.2-7.9-55.21-9.36-83.03-4.59C475.15,311.49,477.29,319.63,482.29,318.77L482.29,318.77z"/>
<path class="st1" d="M477.79,353.5c15.03,4.42,30.07,8.83,45.1,13.25c4.93,1.45,7.04-6.69,2.11-8.13
	c-15.03-4.42-30.07-8.83-45.1-13.25C474.97,343.92,472.87,352.05,477.79,353.5L477.79,353.5z"/>
<path class="st1" d="M45.8,294.11c28.14-11.07,57.65-16.06,87.64-14.76c5.11,0.22,5.1-8.21,0-8.44
	c-30.62-1.33-61.01,3.75-89.75,15.06C38.94,287.85,41,296,45.8,294.11L45.8,294.11z"/>
<path class="st1" d="M59.7,333.94c20.71-14.1,43.37-23.79,67.49-28.9c5.01-1.06,2.89-9.19-2.11-8.13
	c-24.74,5.24-48.14,15.29-69.38,29.75C51.41,329.58,55.38,336.88,59.7,333.94L59.7,333.94z"/>
<path class="st1" d="M81.82,373.37c15.36-15.15,32.49-27.72,51.21-37.73c4.57-2.44,0.55-9.72-4.01-7.28
	c-19.31,10.32-36.98,23.43-52.82,39.04C72.45,371.1,78.08,377.06,81.82,373.37L81.82,373.37z"/>
</svg>
